<svg xmlns="http://www.w3.org/2000/svg" xmlns:xlink="http://www.w3.org/1999/xlink" width="603.2768" height="471.7004" viewBox="0 0 603.2768 471.7004">
  <defs>
    <linearGradient id="a" x1="259.9182" y1="300.7639" x2="504.6128" y2="300.7639" gradientUnits="userSpaceOnUse">
      <stop offset="0" stop-color="#dfe0f1"/>
      <stop offset="1" stop-color="#fff"/>
    </linearGradient>
    <linearGradient id="b" x1="363.1191" y1="121.461" x2="388.7632" y2="121.461" gradientUnits="userSpaceOnUse">
      <stop offset="0" stop-color="#357bcf"/>
      <stop offset="0.2166" stop-color="#2f72c4"/>
      <stop offset="0.603" stop-color="#1d5ba5"/>
      <stop offset="1" stop-color="#083e7f"/>
    </linearGradient>
    <linearGradient id="c" x1="386.6325" y1="143.0135" x2="405.6334" y2="143.0135" xlink:href="#b"/>
    <linearGradient id="d" x1="365.339" y1="72.2505" x2="408.2564" y2="72.2505" gradientUnits="userSpaceOnUse">
      <stop offset="0" stop-color="#fed42f"/>
      <stop offset="0.9166" stop-color="#f99f1f"/>
      <stop offset="1" stop-color="#f99a1e"/>
    </linearGradient>
    <linearGradient id="e" x1="399.2236" y1="213.6589" x2="439.3306" y2="213.6589" gradientUnits="userSpaceOnUse">
      <stop offset="0" stop-color="#00b5e2"/>
      <stop offset="0.0462" stop-color="#0bb8e3"/>
      <stop offset="0.2849" stop-color="#41c8e9"/>
      <stop offset="0.5077" stop-color="#6bd4ee"/>
      <stop offset="0.7081" stop-color="#89ddf1"/>
      <stop offset="0.8789" stop-color="#9be2f3"/>
      <stop offset="1" stop-color="#a2e4f4"/>
    </linearGradient>
    <linearGradient id="f" x1="380.4356" y1="206.7345" x2="408.4085" y2="206.7345" gradientUnits="userSpaceOnUse">
      <stop offset="0" stop-color="#00b5e2"/>
      <stop offset="0.1337" stop-color="#05b6e3"/>
      <stop offset="0.2945" stop-color="#14bbe4"/>
      <stop offset="0.4693" stop-color="#2cc2e7"/>
      <stop offset="0.654" stop-color="#4ecceb"/>
      <stop offset="0.8444" stop-color="#79d8ef"/>
      <stop offset="1" stop-color="#a2e4f4"/>
    </linearGradient>
    <linearGradient id="g" x1="199.5593" y1="177.7969" x2="403.9286" y2="177.7969" gradientUnits="userSpaceOnUse">
      <stop offset="0" stop-color="#69be55"/>
      <stop offset="0.123" stop-color="#61bc5b"/>
      <stop offset="0.318" stop-color="#4ab76a"/>
      <stop offset="0.5594" stop-color="#25b083"/>
      <stop offset="0.5752" stop-color="#22af85"/>
      <stop offset="0.684" stop-color="#1e9b76"/>
      <stop offset="0.9056" stop-color="#15684f"/>
      <stop offset="1" stop-color="#10503d"/>
    </linearGradient>
    <linearGradient id="h" x1="292.9888" y1="186.7529" x2="372.7442" y2="186.7529" gradientUnits="userSpaceOnUse">
      <stop offset="0" stop-color="#fff"/>
      <stop offset="0.247" stop-color="#f9f8fa"/>
      <stop offset="0.599" stop-color="#e6e6ed"/>
      <stop offset="1" stop-color="#cac8d9"/>
    </linearGradient>
    <linearGradient id="i" x1="296.9706" y1="313.0428" x2="348.5909" y2="313.0428" xlink:href="#g"/>
    <linearGradient id="j" x1="165.9143" y1="216.6378" x2="380.3637" y2="216.6378" xlink:href="#g"/>
    <linearGradient id="k" x1="87.9645" y1="214.5429" x2="333.5635" y2="214.5429" gradientUnits="userSpaceOnUse">
      <stop offset="0" stop-color="#a6a4b2"/>
      <stop offset="0.0113" stop-color="#aba9b6"/>
      <stop offset="0.0824" stop-color="#c5c4cd"/>
      <stop offset="0.1641" stop-color="#dadadf"/>
      <stop offset="0.2595" stop-color="#ebeaee"/>
      <stop offset="0.3774" stop-color="#f7f6f8"/>
      <stop offset="0.5427" stop-color="#fdfdfd"/>
      <stop offset="1" stop-color="#fff"/>
    </linearGradient>
    <linearGradient id="l" x1="223.324" y1="271.1866" x2="284.1016" y2="271.1866" gradientUnits="userSpaceOnUse">
      <stop offset="0" stop-color="#00b5e2"/>
      <stop offset="0.1397" stop-color="#0fb9e4"/>
      <stop offset="0.4107" stop-color="#38c5e8"/>
      <stop offset="0.7825" stop-color="#79d8ef"/>
      <stop offset="1" stop-color="#a2e4f4"/>
    </linearGradient>
    <linearGradient id="m" x1="215.8073" y1="278.5681" x2="277.673" y2="278.5681" gradientUnits="userSpaceOnUse">
      <stop offset="0" stop-color="#69be55"/>
      <stop offset="0.6507" stop-color="#22af85"/>
      <stop offset="0.7328" stop-color="#21ac82"/>
      <stop offset="0.802" stop-color="#1fa17b"/>
      <stop offset="0.8665" stop-color="#1c906d"/>
      <stop offset="0.9281" stop-color="#17775b"/>
      <stop offset="0.9873" stop-color="#115843"/>
      <stop offset="1" stop-color="#10503d"/>
    </linearGradient>
    <linearGradient id="n" x1="212.348" y1="290.5423" x2="272.5792" y2="290.5423" gradientUnits="userSpaceOnUse">
      <stop offset="0" stop-color="#f99a1e"/>
      <stop offset="0.0834" stop-color="#f99f1f"/>
      <stop offset="1" stop-color="#fed42f"/>
    </linearGradient>
    <linearGradient id="o" x1="222.0339" y1="189.8322" x2="291.8682" y2="189.8322" gradientUnits="userSpaceOnUse">
      <stop offset="0" stop-color="#f99a1e"/>
      <stop offset="0.0168" stop-color="#f99b1e"/>
      <stop offset="0.6657" stop-color="#fdc42a"/>
      <stop offset="1" stop-color="#fed42f"/>
    </linearGradient>
    <linearGradient id="p" x1="110.8063" y1="341.335" x2="256.1147" y2="341.335" xlink:href="#a"/>
    <linearGradient id="q" x1="78.1803" y1="361.6206" x2="224.4185" y2="361.6206" xlink:href="#a"/>
    <linearGradient id="r" x1="172.073" y1="413.6023" x2="318.2391" y2="413.6023" xlink:href="#a"/>
    <linearGradient id="s" x1="116.7423" y1="180.1587" x2="124.7216" y2="180.1587" gradientUnits="userSpaceOnUse">
      <stop offset="0" stop-color="#cac8d9"/>
      <stop offset="0.2599" stop-color="#dbdae5"/>
      <stop offset="0.7259" stop-color="#f5f5f8"/>
      <stop offset="1" stop-color="#fff"/>
    </linearGradient>
    <linearGradient id="t" x1="117.0944" y1="228.4854" x2="130.5415" y2="228.4854" gradientUnits="userSpaceOnUse">
      <stop offset="0" stop-color="#09008f"/>
      <stop offset="0.0367" stop-color="#080b9d"/>
      <stop offset="0.1344" stop-color="#0524bb"/>
      <stop offset="0.2422" stop-color="#0339d4"/>
      <stop offset="0.3622" stop-color="#0249e7"/>
      <stop offset="0.501" stop-color="#0154f5"/>
      <stop offset="0.6755" stop-color="#005bfd"/>
      <stop offset="1" stop-color="#005dff"/>
    </linearGradient>
    <linearGradient id="u" x1="121.4082" y1="251.628" x2="148.9989" y2="251.628" gradientUnits="userSpaceOnUse">
      <stop offset="0" stop-color="#005dff"/>
      <stop offset="0.3245" stop-color="#005bfd"/>
      <stop offset="0.499" stop-color="#0154f5"/>
      <stop offset="0.6378" stop-color="#0249e7"/>
      <stop offset="0.7578" stop-color="#0339d4"/>
      <stop offset="0.8656" stop-color="#0524bb"/>
      <stop offset="0.9633" stop-color="#080b9d"/>
      <stop offset="1" stop-color="#09008f"/>
    </linearGradient>
    <linearGradient id="v" x1="111.1641" y1="238.9483" x2="150.8537" y2="238.9483" gradientUnits="userSpaceOnUse">
      <stop offset="0" stop-color="#69be55"/>
      <stop offset="0.5167" stop-color="#22af85"/>
      <stop offset="0.6799" stop-color="#1d926f"/>
      <stop offset="1" stop-color="#10503d"/>
    </linearGradient>
    <linearGradient id="w" x1="158.4756" y1="227.6943" x2="158.5313" y2="227.6943" gradientUnits="userSpaceOnUse">
      <stop offset="0" stop-color="#f99a1e"/>
      <stop offset="1" stop-color="#fed42f"/>
    </linearGradient>
    <linearGradient id="x" x1="155.3728" y1="241.375" x2="158.4904" y2="241.375" gradientUnits="userSpaceOnUse">
      <stop offset="0" stop-color="#b67116"/>
      <stop offset="0.1531" stop-color="#dc881b"/>
      <stop offset="0.2855" stop-color="#f99a1e"/>
      <stop offset="0.3001" stop-color="#f99c21"/>
      <stop offset="0.4842" stop-color="#fbb73f"/>
      <stop offset="0.665" stop-color="#fdca55"/>
      <stop offset="0.8393" stop-color="#fed662"/>
      <stop offset="1" stop-color="#feda66"/>
    </linearGradient>
    <linearGradient id="y" x1="111.382" y1="248.3915" x2="118.2858" y2="248.3915" xlink:href="#x"/>
    <linearGradient id="z" x1="118.2858" y1="248.5116" x2="134.5549" y2="248.5116" xlink:href="#w"/>
    <linearGradient id="aa" x1="118.2028" y1="256.2602" x2="155.457" y2="256.2602" gradientUnits="userSpaceOnUse">
      <stop offset="0" stop-color="#a2e4f4"/>
      <stop offset="0.1311" stop-color="#95e0f3"/>
      <stop offset="0.3764" stop-color="#71d6ef"/>
      <stop offset="0.7063" stop-color="#38c5e8"/>
      <stop offset="1" stop-color="#00b5e2"/>
    </linearGradient>
    <linearGradient id="ab" x1="74.9992" y1="299.737" x2="120.3182" y2="299.737" gradientUnits="userSpaceOnUse">
      <stop offset="0" stop-color="#feda66"/>
      <stop offset="0.1478" stop-color="#fdd05b"/>
      <stop offset="0.4062" stop-color="#fbb63e"/>
      <stop offset="0.6418" stop-color="#f99a1e"/>
      <stop offset="0.8079" stop-color="#dc881b"/>
      <stop offset="1" stop-color="#b67116"/>
    </linearGradient>
    <linearGradient id="ac" x1="100.9172" y1="221.3493" x2="124.896" y2="221.3493" gradientUnits="userSpaceOnUse">
      <stop offset="0" stop-color="#083e7f"/>
      <stop offset="0.397" stop-color="#1d5ba5"/>
      <stop offset="0.7834" stop-color="#2f72c4"/>
      <stop offset="1" stop-color="#357bcf"/>
    </linearGradient>
    <linearGradient id="ad" x1="115.608" y1="238.6797" x2="147.2717" y2="238.6797" gradientUnits="userSpaceOnUse">
      <stop offset="0" stop-color="#083e7f"/>
      <stop offset="0.1521" stop-color="#175299"/>
      <stop offset="0.3336" stop-color="#2464b1"/>
      <stop offset="0.5268" stop-color="#2e71c2"/>
      <stop offset="0.7378" stop-color="#3379cc"/>
      <stop offset="1" stop-color="#357bcf"/>
    </linearGradient>
    <linearGradient id="ae" x1="408.2564" y1="350.2099" x2="519.827" y2="350.2099" xlink:href="#a"/>
    <linearGradient id="af" x1="228.222" y1="419.3076" x2="338.5248" y2="419.3076" xlink:href="#a"/>
    <linearGradient id="ag" x1="255.248" y1="406.6292" x2="339.1761" y2="406.6292" xlink:href="#a"/>
    <linearGradient id="ah" x1="481.1664" y1="347.0403" x2="511.5788" y2="347.0403" xlink:href="#a"/>
    <linearGradient id="ai" x1="188.4223" y1="395.8271" x2="194.7366" y2="395.8271" gradientUnits="userSpaceOnUse">
      <stop offset="0" stop-color="#005dff"/>
      <stop offset="0.1562" stop-color="#0155f6"/>
      <stop offset="0.4137" stop-color="#0341dd"/>
      <stop offset="0.7386" stop-color="#061fb5"/>
      <stop offset="1" stop-color="#09008f"/>
    </linearGradient>
    <linearGradient id="ak" x1="112.2234" y1="399.8727" x2="140.7353" y2="399.8727" gradientUnits="userSpaceOnUse">
      <stop offset="0" stop-color="#10503d"/>
      <stop offset="0.1543" stop-color="#15684f"/>
      <stop offset="0.5165" stop-color="#1e9b76"/>
      <stop offset="0.6943" stop-color="#22af85"/>
      <stop offset="0.7027" stop-color="#25b083"/>
      <stop offset="0.831" stop-color="#4ab76a"/>
      <stop offset="0.9346" stop-color="#61bc5b"/>
      <stop offset="1" stop-color="#69be55"/>
    </linearGradient>
    <linearGradient id="al" x1="152.1512" y1="413.7169" x2="152.1525" y2="413.7169" xlink:href="#w"/>
    <linearGradient id="am" x1="152.1525" y1="384.7929" x2="188.4892" y2="384.7929" gradientUnits="userSpaceOnUse">
      <stop offset="0" stop-color="#10503d"/>
      <stop offset="0.0944" stop-color="#15684f"/>
      <stop offset="0.316" stop-color="#1e9b76"/>
      <stop offset="0.4248" stop-color="#22af85"/>
      <stop offset="0.4406" stop-color="#25b083"/>
      <stop offset="0.682" stop-color="#4ab76a"/>
      <stop offset="0.877" stop-color="#61bc5b"/>
      <stop offset="1" stop-color="#69be55"/>
    </linearGradient>
    <linearGradient id="an" x1="215.2043" y1="401.9447" x2="220.615" y2="401.9447" gradientUnits="userSpaceOnUse">
      <stop offset="0" stop-color="#a2e4f4"/>
      <stop offset="0.1202" stop-color="#98e1f3"/>
      <stop offset="0.325" stop-color="#7dd9f0"/>
      <stop offset="0.5894" stop-color="#51cdeb"/>
      <stop offset="0.9001" stop-color="#15bbe4"/>
      <stop offset="1" stop-color="#00b5e2"/>
    </linearGradient>
    <linearGradient id="ao" x1="174.9724" y1="419.9397" x2="215.2712" y2="419.9397" xlink:href="#am"/>
    <linearGradient id="ap" x1="140.8767" y1="427.9382" x2="174.9724" y2="427.9382" gradientUnits="userSpaceOnUse">
      <stop offset="0" stop-color="#feda66"/>
      <stop offset="0.1607" stop-color="#fed662"/>
      <stop offset="0.335" stop-color="#fdca55"/>
      <stop offset="0.5158" stop-color="#fbb73f"/>
      <stop offset="0.6999" stop-color="#f99c21"/>
      <stop offset="0.7145" stop-color="#f99a1e"/>
      <stop offset="0.8469" stop-color="#dc881b"/>
      <stop offset="1" stop-color="#b67116"/>
    </linearGradient>
    <linearGradient id="aq" x1="188.8629" y1="330.3204" x2="227.5206" y2="330.3204" xlink:href="#o"/>
    <linearGradient id="ar" x1="218.0765" y1="330.9986" x2="249.4709" y2="330.9986" xlink:href="#w"/>
    <linearGradient id="as" x1="159.0043" y1="365.2848" x2="213.5527" y2="365.2848" xlink:href="#ap"/>
    <linearGradient id="at" x1="172.5432" y1="363.1961" x2="204.518" y2="363.1961" gradientUnits="userSpaceOnUse">
      <stop offset="0" stop-color="#a2e4f4"/>
      <stop offset="0.7933" stop-color="#15bbe4"/>
      <stop offset="1" stop-color="#00b5e2"/>
    </linearGradient>
    <linearGradient id="au" x1="177.3276" y1="344.3269" x2="206.2488" y2="344.3269" xlink:href="#w"/>
    <linearGradient id="av" x1="196.831" y1="357.6596" x2="229.1989" y2="357.6596" xlink:href="#o"/>
    <linearGradient id="aw" x1="433.0846" y1="294.9788" x2="500.5542" y2="294.9788" xlink:href="#b"/>
    <linearGradient id="ax" x1="411.4657" y1="300.7644" x2="445.2716" y2="300.7644" xlink:href="#b"/>
    <linearGradient id="ay" x1="421.0513" y1="248.0252" x2="465.3467" y2="248.0252" gradientUnits="userSpaceOnUse">
      <stop offset="0" stop-color="#a2e4f4"/>
      <stop offset="1" stop-color="#00b5e2"/>
    </linearGradient>
    <linearGradient id="az" x1="421.6601" y1="225.3813" x2="457.3945" y2="225.3813" xlink:href="#ay"/>
    <linearGradient id="ba" x1="398.6361" y1="231.8181" x2="431.1958" y2="231.8181" xlink:href="#ay"/>
  </defs>
  <g style="isolation: isolate">
    <g>
      <path d="M137.3571,463.8994q-11.4936-2.4306-22.7494-5.6182C59.2058,442.5764-29.0441,401.5816,9.41,330.0491c9.418-17.519,21.8856-38.0562,29.6875-56.3522,23.5834-55.3044,1.943-122.592,40.8957-168.39,29.6417-34.85,82.8906-38.3126,127.3155-27.3758,16.34,4.0228,33.2708,9.6339,49.618,5.6389,21.5976-5.2781,35.584-25.4517,48.5338-43.5246,36.4507-50.8706,97.241-50.9125,145.278-13.4612,84.01,65.4983,128.8489,192.3274,148.1437,289.7321,3.7921,19.1431,7.4825,39.5512.2993,57.6962-7.9231,20.014-29.5922,33.678-51.0667,32.2015-18.1087-1.2451-34.3665-11.9479-52.3538-14.384-31.5474-4.2726-85.3969,19.66-112.88,35.7276a309.978,309.978,0,0,1-67.219,29.2473C258.6345,473.9308,195.898,476.28,137.3571,463.8994Z" style="fill: #eef7f9"/>
      <g>
        <rect x="259.9182" y="227.2287" width="244.6946" height="147.0703" style="mix-blend-mode: multiply;fill: url(#a)"/>
        <g>
          <g>
            <polygon points="347.124 72.624 399.406 309.011 402.326 311.267 350.044 74.881 347.124 72.624" style="fill: #dedce9"/>
            <rect x="376.1103" y="71.3393" width="6.3409" height="242.0993" transform="translate(-32.597 86.4452) rotate(-12.4713)" style="fill: #fff"/>
            <polygon points="397.34 286.289 432.776 304.72 435.121 300.223 396.643 283.334 397.34 286.289" style="fill: #dedce9"/>
            <polygon points="396.643 283.335 432.776 302.167 437.21 299.416 401.076 280.581 396.643 283.335" style="fill: #fff"/>
            <polygon points="388.932 249.578 424.367 268.009 426.712 263.512 388.233 246.623 388.932 249.578" style="fill: #dedce9"/>
            <polygon points="388.233 246.624 424.367 265.456 428.801 262.705 392.667 243.872 388.233 246.624" style="fill: #fff"/>
            <polygon points="380.522 212.869 415.958 231.3 418.304 226.802 379.824 209.912 380.522 212.869" style="fill: #dedce9"/>
            <polygon points="379.824 209.913 415.958 228.747 420.393 225.996 384.259 207.161 379.824 209.913" style="fill: #fff"/>
            <polygon points="372.113 176.158 407.549 194.589 409.896 190.092 371.416 173.203 372.113 176.158" style="fill: #dedce9"/>
            <polygon points="371.416 173.203 407.549 192.036 411.983 189.285 375.85 170.45 371.416 173.203" style="fill: #fff"/>
            <g>
              <path d="M344.6164,80.0891a8.48,8.48,0,0,1,.1362-.9261c-.177.0222-.3442.0533-.5126.0855-.1869.0309-.3763.0606-.5547.1039-.052.0062-.0953.0248-.1473.031a20.2508,20.2508,0,0,0-2.7189.8592c-1.0686.4037-3.3517,1.5774-3.5126,1.6616a14.4694,14.4694,0,0,0-1.9464,1.0846,4.9065,4.9065,0,0,0-.3887,1.2369,1.2305,1.2305,0,0,0,.55.4853c-.0124.5585,1.3718.317,1.3384.452-.1349.5547.5844.9075,2.3512-.0545.1065-.057,4.1626-1.21,5.6558-1.8176A8.5211,8.5211,0,0,1,344.6164,80.0891Z" style="fill: #ffb2b2"/>
              <path d="M365.573,64.3178c-5.4478,2.89-16.0065,10.98-23.9244,15.1844a22.4625,22.4625,0,0,1,2.4045,4.7928C354.1055,80.624,371.9544,72.58,371.68,68.3144,371.37,63.52,367.1838,63.4635,365.573,64.3178Z" style="fill: #fffffe"/>
              <g>
                <path d="M403.2915,187.9254l-4.71-.2179a29.9466,29.9466,0,0,1-.4185,3.0607c-.3863,1.6789-1.2481,4.2642-1.45,5.1036-.3355,1.3967.4928,2.121,1.8919,2.4515,1.2133.2848,4.0375-1.2133,4.4213-2.77.2551-1.0314,1.4882-4.8138.2848-5.9789Z" style="fill: #010080"/>
                <path d="M398.58,187.7075s-.12,1.3744-.2959,2.3872c.156.24.7565-.1077,1.7111.03,1.191.1721,2.3549.775,2.7685.3913a3.7626,3.7626,0,0,0,.5472-.941c0-.9707-.02-1.6493-.02-1.6493Z" style="fill: #ffb2b2"/>
                <path d="M363.8261,166.5256s-.83,1.02-1.5069,1.6777c-1.305,1.269-6.78,3.2055-6.78,5.0057,0,.9088,2.246,1.726,4.0784,1.788a5.5921,5.5921,0,0,0,3.9546-1.5354c.8073-.7132,3.68-1.1564,4.0858-1.7173a2.17,2.17,0,0,0,.1486-2.1011c.2006-1.0054.3962-1.9773.3962-1.9773Z" style="fill: #010080"/>
                <path d="M362.3192,168.2045a6.0033,6.0033,0,0,0,2.2484,1.7681c.8272.3739,3.239-.3294,3.239-.3294.2018-1.0054.3962-1.9773.3962-1.9773l-4.503-1.33A7.6926,7.6926,0,0,1,362.3192,168.2045Z" style="fill: #ffb2b2"/>
                <path d="M370.2841,74.6723c-.1708,1.695-7.165,91.2-7.165,91.2,1.6059,3.702,7.3123,2.0132,7.41,1.8708,0,0,17.7783-83.8291,18.2339-87.7205h0C386.2672,81.035,371.3885,76.4317,370.2841,74.6723Z" style="fill: url(#b)"/>
                <path d="M386.6325,97.4316c.15,1.6975,10.3631,90.6871,10.3631,90.6871,2.5419,1.7111,7.6.0322,7.6677-.1351,0,0,1.21-86.9255.9274-90.8379C403.3534,98.87,388.034,98.8121,386.6325,97.4316Z" style="fill: url(#c)"/>
                <path d="M372.8458,36.705c-2.4416,5.7746-5.59,19.0671-9.15,27.2982-4.3669,10.0983,4.2369,9.5374,6.5447,6.9064,6.083-6.9285,13.128-31.4362,9.863-34.96S373.5553,35.0248,372.8458,36.705Z" style="fill: #fffffe"/>
                <path d="M396.6328,32.6513a24.8127,24.8127,0,0,0-8.2237-1.9389h-.0123a2.67,2.67,0,0,0-1.2951.4172,20.9735,20.9735,0,0,0-7.976,1.6009c-6.1264,2.459-7.3163,7.6889-7.8437,10.8684-1.4547,8.8352-5.943,54.8-5.943,54.8a8.3141,8.3141,0,0,0,11.6322-4.8039l2.64-7.1651.5646,3.187c1.7828,10.1773,8.1865,18.3825,17.7424,21.1114,7.0846,2.0193,10.3384,3.0606,10.3384,3.0606v-.0211c0-26.1852-2.2918-66.6226-3.2624-69.994C403.2432,37.6818,400.627,34.2088,396.6328,32.6513Z" style="fill: url(#d)"/>
                <path d="M387.1029,31.511a21.1982,21.1982,0,0,0-7.9772,1.41,2.1,2.1,0,0,0-.5188,1.33c0,2.2683,4.2195,4.1082,9.4307,4.1082s9.4322-1.84,9.4322-4.1082a2.0315,2.0315,0,0,0-.4284-1.2183A24.5947,24.5947,0,0,0,387.1029,31.511Z" style="fill: #fffffe"/>
                <path d="M384.6093,27.2172c-.02.3453.7058,4.06-.4891,5.9653.27,1.8522,6.1387,2.8786,8.18-.1152-.65-.9248-.6155-5.9331.3577-8.1444C392.0988,25.2027,386.162,27.4957,384.6093,27.2172Z" style="fill: #ffb2b2"/>
                <path d="M387.5424,12.6022c-3.68-.52-7.3223.0781-8.392,3.5127-.385,1.2307-.6637,12.56,5.2372,14.7065,2.4962.9075,7.705-3.0953,8.1222-6.0483,0,0,.57-4.0253.5745-4.0661C393.6366,16.792,391.4958,13.1607,387.5424,12.6022Z" style="fill: #ffb2b2"/>
                <path d="M374.3464,11.9237c-.29,1.6727.7591,5.9665,17.0021,4.6937,2.293,3.5733.7355,9.6922.7355,9.6922,5.2509-3.5385,8.0961-13.2381,3.3008-18.8791C389.1124.0525,375.649,4.35,374.3464,11.9237Z" style="fill: #f99a1e"/>
              </g>
            </g>
            <polygon points="363.703 139.448 399.14 157.878 401.486 153.382 363.006 136.492 363.703 139.448" style="fill: #dedce9"/>
            <polygon points="363.006 136.493 399.14 155.325 403.574 152.574 367.44 133.74 363.006 136.493" style="fill: #fff"/>
            <polygon points="355.295 102.737 390.732 121.168 393.077 116.671 354.598 99.783 355.295 102.737" style="fill: #dedce9"/>
            <polygon points="354.598 99.783 390.732 118.615 395.166 115.864 359.032 97.029 354.598 99.783" style="fill: #fff"/>
            <polygon points="382.623 85.167 434.906 321.553 437.826 323.809 385.544 87.424 382.623 85.167" style="fill: #dedce9"/>
            <rect x="411.61" y="83.8828" width="6.3409" height="242.0981" transform="translate(-34.4682 94.4079) rotate(-12.4713)" style="fill: #fff"/>
          </g>
          <g>
            <path d="M362.24,82.8674c-.431-.1213-.8642-.3751-.9509.2205-.0891.3788,1.4536,1.0995,1.8374,1.0623.8939-.3665.676-.8866,1.5637-1.1106A8.1239,8.1239,0,0,1,362.24,82.8674Z" style="fill: #ffb2b2"/>
            <path d="M366.4509,83.541a8.6042,8.6042,0,0,1,.12-.9261c-.177.0248-.3443.0582-.5126.094-.1858.0335-.3727.067-.551.1127-.0508.0075-.0941.026-.1461.0359a20.2385,20.2385,0,0,0-2.7053.9039c-1.0611.4234-3.3232,1.6368-3.4817,1.7248a14.1413,14.1413,0,0,0-1.9265,1.1167,4.8872,4.8872,0,0,0-.3676,1.2444,1.2263,1.2263,0,0,0,.5571.4754c-.0013.5584,1.378.2921,1.347.4271-.1262.5584.6005.8977,2.3487-.094.1054-.0595,4.1416-1.2816,5.625-1.9155A8.5417,8.5417,0,0,1,366.4509,83.541Z" style="fill: #ffb2b2"/>
            <path d="M393.9188,39.674c-2.3413,5.8142-5.2559,19.1588-8.6718,27.4531-4.19,10.1713,4.4027,9.46,6.6648,6.7911,5.9591-7.0338,12.5782-31.6615,9.2526-35.1257C397.8375,35.3257,394.601,37.98,393.9188,39.674Z" style="fill: #fffffe"/>
            <path d="M387.129,67.4082c-5.3959,2.9864-15.8135,11.26-23.6559,15.6005a22.4992,22.4992,0,0,1,2.4875,4.7482c9.9867-3.8444,27.6932-12.1994,27.3441-16.46C392.9123,66.5105,388.7248,66.5266,387.129,67.4082Z" style="fill: #fffffe"/>
          </g>
        </g>
        <g>
          <path d="M383.1384,192.7778c-.3863.0519-.5113,1.7495-.34,2.0961.6612.7045,1.07.3144,1.5935,1.066a8.1606,8.1606,0,0,1-.7094-2.3512C383.6424,193.143,383.7266,192.6453,383.1384,192.7778Z" style="fill: #ffb2b2"/>
          <path d="M385.0959,196.2061c-.0272-.0446-.0594-.0779-.0854-.1238a20.307,20.307,0,0,0-1.8077-2.2063c-.7739-.842-2.7128-2.5234-2.8489-2.6422a14.3033,14.3033,0,0,0-1.73-1.404,4.9582,4.9582,0,0,0-1.2925.099,1.2344,1.2344,0,0,0-.2477.6908c-.5224.1982.2167,1.3917.0806,1.4115-.5672.0805-.743.6724.364,2.6347.7106,1.2593,3.23,2.9418,4.35,4.1033a8.48,8.48,0,0,1,2.8786-1.4239,8.6832,8.6832,0,0,1,.9088-.218c-.0843-.1572-.1759-.3008-.2675-.4432C385.299,196.5206,385.2011,196.3559,385.0959,196.2061Z" style="fill: #ffb2b2"/>
          <path d="M435.3171,207.84c-.1808-.0051-.3666-.0051-.56-.0051-3.052,0-7.5452.421-12.3541.842a151.1693,151.1693,0,0,1-15.8283.8184c-10.9971-.3-7.279,7.4771-3.9793,8.6434,8.6954,3.0706,34.0647.499,36.1225-3.8431C440.7748,209.9568,437.142,207.8743,435.3171,207.84Z" style="fill: url(#e)"/>
          <path d="M406.98,211.3534c-4.7086-3.9818-16.144-10.7767-22.9909-16.5637a22.4618,22.4618,0,0,1-3.5534,4.014c7.144,7.9674,21.2475,21.5459,25.1056,19.7062C409.8759,216.44,408.3728,212.5321,406.98,211.3534Z" style="fill: url(#f)"/>
        </g>
        <g>
          <path d="M394.4685,170.8492,268.6793,98.0545l.0074-30.7453a3.5462,3.5462,0,0,0-1.6121-2.9369l-65.7262-38.038a1.0876,1.0876,0,0,0-1.7767.9782l-.0112,52.7716a2.635,2.635,0,0,0,.0359.2886l-.0322,135.8367a10.2541,10.2541,0,0,0,4.6542,8.4836L393.9609,334.4993c2.7029,1.565,4.9971.3034,5.1283-2.8192l.0348-152.3485A10.255,10.255,0,0,0,394.4685,170.8492Z" style="fill: #69be55"/>
          <path d="M399.2676,166.0527,273.4782,93.2554l.0075-30.7428a3.5549,3.5549,0,0,0-1.612-2.9393L206.1462,21.5366a2.3421,2.3421,0,0,0-1.0524-.177c-1.93,0-5.5345,1.0574-5.5345,4.742l.0272,1.1031a1.0713,1.0713,0,0,1,1.7631-.87l65.725,38.038a3.5489,3.5489,0,0,1,1.6121,2.9369l-.0074,30.744,125.7892,72.796a10.2555,10.2555,0,0,1,4.6555,8.4837l-.0348,152.3459a4.1352,4.1352,0,0,1-.8766,2.5481l.01.0074s5.6657-.1349,5.6657-7.3533l.0346-152.3472A10.2539,10.2539,0,0,0,399.2676,166.0527Z" style="fill: url(#g)"/>
        </g>
        <path d="M359.9272,153.8645a40.05,40.05,0,0,0-21.2934-5.9976c-18.1634.0013-32.9567,11.3265-32.9567,11.3265l-12.6883,31.7148,79.7554,34.7308-.19-39.1869C372.5537,158.2425,359.9272,153.8645,359.9272,153.8645Z" style="fill: url(#h)"/>
        <g>
          <path d="M360.6564,208.835l-125.788-72.7972.0062-30.7428a3.5561,3.5561,0,0,0-1.6108-2.9394L167.5363,64.3178a1.0872,1.0872,0,0,0-1.7755.9781l-.0075,188.8982a10.2463,10.2463,0,0,0,4.6541,8.4824L360.15,372.484c2.7028,1.565,4.9958.3033,5.1258-2.82l.0358-152.3472A10.2525,10.2525,0,0,0,360.6564,208.835Z" style="fill: #9bd38e"/>
          <path d="M346.538,307.0239l-43.3854-24.9112a3.8739,3.8739,0,0,0-2.054-.3665h-.0026a3.9557,3.9557,0,0,0-4.12,3.9248l-.0049,29.7858a4.0344,4.0344,0,0,0,2.069,3.5225l43.3866,24.8122a4.1189,4.1189,0,0,0,6.1584-3.5807l.0062-29.6211A4.12,4.12,0,0,0,346.538,307.0239Z" style="fill: url(#i)"/>
          <path d="M365.34,204.86,239.6079,132.0609l.0372-30.7415a3.5413,3.5413,0,0,0-1.5985-2.9406L172.3278,60.3433a2.3566,2.3566,0,0,0-1.0524-.1769c-1.9278,0-5.3611,1.0561-5.3611,4.7432l.1832.5361v-.15c0-1.0821.6736-1.518,1.6084-.9781l65.642,38.0378a3.5114,3.5114,0,0,1,1.5688,2.9394l-.0273,30.7428,125.7782,72.7948a10.2526,10.2526,0,0,1,4.6492,8.4837L365.28,369.6635c-.0831,2.0107-1.0735,3.2352-2.4826,3.4457a8.9516,8.9516,0,0,0,4.1477-1.2653l7.7718-5.7215a13.8609,13.8609,0,0,0,5.6471-11.44V202.4488l-11.18,7.27A9.8085,9.8085,0,0,0,365.34,204.86Z" style="fill: url(#j)"/>
          <polygon points="323.265 311.307 339.176 321.042 339.176 316.475 323.265 306.739 323.265 311.307" style="fill: #fff;fill-rule: evenodd"/>
          <polygon points="303.736 311.793 333.53 329.331 333.53 324.764 303.736 307.226 303.736 311.793" style="fill: #fff;fill-rule: evenodd"/>
          <polygon points="304.887 300.062 317.751 307.933 317.751 303.365 304.887 295.493 304.887 300.062" style="fill: #fff;fill-rule: evenodd"/>
        </g>
        <g>
          <path d="M201.7335,59.4878A27.8419,27.8419,0,0,0,175.97,61.4787l-8.9864,5.45a28.37,28.37,0,0,0-13.565,24.0271V233.0554A47.5509,47.5509,0,0,1,89.41,277.8621L236.078,363.9743l.0309.0123,1.85,1.0785a47.6934,47.6934,0,0,0,35.5889,5.49c20.26-4.8436,37.0845-22.7841,37.0845-46.5056V184.4859a28.0069,28.0069,0,0,1,13.1391-24.0271l8.6942-5.4528a27.6285,27.6285,0,0,1,27.4568-1.1391L209.67,64.5085Z" style="fill: url(#k)"/>
          <path d="M247.5208,344.8166,131.17,276.5807,83.1315,248.41s-6.9224,13.9463,7.5179,31.7222l146.6271,86.1121.0124.0124,1.8387,1.0772a47.023,47.023,0,0,0,35.3214,5.49S247.5208,372.2276,247.5208,344.8166Z" style="fill: #fff"/>
          <polygon points="166.808 167.171 196.603 184.709 196.603 180.14 166.808 162.603 166.808 167.171" style="fill: #f4f3f7;fill-rule: evenodd"/>
          <polygon points="166.808 177.032 196.603 194.57 196.603 190.003 166.808 172.464 166.808 177.032" style="fill: #f4f3f7;fill-rule: evenodd"/>
          <polygon points="166.808 186.895 196.603 204.432 196.603 199.865 166.808 182.327 166.808 186.895" style="fill: #f4f3f7;fill-rule: evenodd"/>
          <polygon points="166.808 196.757 196.603 214.295 196.603 209.726 166.808 192.19 166.808 196.757" style="fill: #f4f3f7;fill-rule: evenodd"/>
          <path d="M196.4342,70.1419c-.0854.0335-.1807.0681-.2674.1016l36.0656,21.5113a19.1738,19.1738,0,0,1,3.5572-.9831L199.6534,69.2258A18.4059,18.4059,0,0,0,196.4342,70.1419Z" style="fill: #f4f3f7;fill-rule: evenodd"/>
          <path d="M190.5655,73.3611l-.2154.1374,36.0123,21.4779,2.5554-1.58a.009.009,0,0,0,.0088-.01L192.9043,71.91Z" style="fill: #f4f3f7;fill-rule: evenodd"/>
          <path d="M187.1124,75.4931a21.3816,21.3816,0,0,0-1.9328,1.3645c-.0619.0507-.13.1028-.1907.1535l35.9876,21.4606a22.1879,22.1879,0,0,1,1.934-1.3645l.4828-.3008L187.3711,75.3285Z" style="fill: #f4f3f7;fill-rule: evenodd"/>
          <path d="M181.2077,81.2072c-.0433.0606-.0867.13-.1288.1894l35.9269,21.4259a16.8425,16.8425,0,0,1,1.6567-2.1321L182.7108,79.2558A17.06,17.06,0,0,0,181.2077,81.2072Z" style="fill: #f4f3f7;fill-rule: evenodd"/>
          <path d="M251.1449,101.5855c-.0855.0348-.1808.0681-.2674.1016L286.9429,123.2a19.0805,19.0805,0,0,1,3.5572-.9844l-36.1336-21.5459A18.3667,18.3667,0,0,0,251.1449,101.5855Z" style="fill: #f4f3f7;fill-rule: evenodd"/>
          <path d="M245.2761,104.8047l-.2154.1375L281.073,126.42l2.5555-1.58a.0088.0088,0,0,0,.0086-.01l-36.0222-21.4767Z" style="fill: #f4f3f7;fill-rule: evenodd"/>
          <path d="M241.823,106.9367a21.8339,21.8339,0,0,0-1.9328,1.3645c-.0619.0507-.13.1027-.1907.1548l35.9876,21.4592a22.3965,22.3965,0,0,1,1.934-1.3632l.4829-.302-36.0222-21.478Z" style="fill: #f4f3f7;fill-rule: evenodd"/>
          <path d="M235.9183,112.6508c-.0421.0606-.0855.13-.1287.1906l35.9268,21.426a16.8982,16.8982,0,0,1,1.6566-2.1335L237.4214,110.7A17.0589,17.0589,0,0,0,235.9183,112.6508Z" style="fill: #f4f3f7;fill-rule: evenodd"/>
          <g style="opacity: 0.55">
            <path d="M276.3272,278.2658c-4.3619.7875-5.215,12.4135-8.215,1.1589-2.246-8.4342-6-40.0833-12.0594-39.2388a.5278.5278,0,0,0-.0891.0135c-8.0207,1.5329-4.0586,18.8468-7.1986,25.5526a4.08,4.08,0,0,1-2.9777,2.56c-5.7957,1.0723-7.8411-21.4048-14.4626-20.1444-5.1914.9918-8.0008,17.7313-8.0008,17.7313l60.4121,36.3046C285.1414,288.1844,282.456,277.1552,276.3272,278.2658Z" style="fill: url(#l)"/>
            <path d="M265.1444,267.8073c-6.6983.567-2.7375,22.8733-10.508,18.5076-8.875-4.99-19.3433-32.6458-26.0156-36.7775-9.1251-5.6484-12.8135,24.9014-12.8135,24.9014l61.7469,33.8567C278.6686,294.1077,271.74,267.249,265.1444,267.8073Z" style="fill: url(#m)"/>
            <path d="M268.4366,296.5716c-3.0643-1.8745-3.4,7.6071-7.2591,5.3847-4.346-2.5036-6.7132-24.7466-10.7991-27.4062-4.7209-3.0754-6.0383,17.516-13.22,13.3744-7.5476-4.3533-5.2434-13.7285-14.7671-18.5807-5.3351-2.7177-10.0437,8.9988-10.0437,8.9988L272.5138,312.15S273.4263,299.6285,268.4366,296.5716Z" style="fill: url(#n)"/>
          </g>
          <path d="M303.4609,254.6113l-.0594-6.2426.6859.3862-.0024-.2464-.6848-.3863-.0582-6.2426.6835.3876-.0025-.2478-.6847-.3874-.0582-6.2415.6847.3863-.0024-.2463-.6848-.3876-.0593-6.2414.6859.3875-.0026-.2476-.6859-.3876-.0582-6.2414.6847.3863-.0024-.2476-.6847-.3863-.0582-6.2426.6847.3874-.0026-.2476-.6846-.3863-.06-6.2413.6848.3863-.0013-.2478-.6859-.3862-.0582-6.2427.6847.3863-.0024-.2476-.6848-.3863-.0582-6.2426.6835.3863-.0025-.2465-.6834-.3862-.06-6.2415.6847.3863-.0024-.2476-.6848-.3863-.0582-6.2415.6848.3863-.0026-.2463-93.7191-52.9116.0025.2464.7824.4408.06,6.2426-.7826-.4407.0026.2463.7812.442.0595,6.2415-.7825-.4408.0024.2464.7814.4407.0593,6.2439-.7825-.4419.0025.2463.7825.442.0582,6.2427-.7812-.4408.0024.2452.7812.442.0595,6.2426-.7825-.442.0025.2477.7813.4408.0594,6.2426-.7814-.4408.0013.2464.7825.442.06,6.2426-.7825-.4407.0025.2451.7813.4421.0593,6.2414-.7813-.4407.0013.2463.7825.442.0582,6.2427-.7812-.4408.0024.2465.7812.4407.06,6.2415-.7825-.4409.0025.2477.7825.4408.0582,6.2426-.7812-.4408.0024.2464,93.718,52.9116-.0025-.2476Zm-.3616-19.5687-18.2364-10.2951-.06-6.2426,18.2377,10.2963Zm-.0606-6.4891-18.2364-10.2962-.06-6.2427,18.2365,10.2963Zm-.0607-6.489L284.74,211.77l-.0582-6.2428,18.2364,10.2963ZM247.6136,178.143l.0582,6.2415-18.2364-10.2939-.0594-6.2427ZM229.3735,167.6l-.0582-6.2427,18.2365,10.2963.0594,6.2427Zm18.3009,17.0318.0582,6.2426-18.2365-10.2963-.0582-6.2426Zm.1151-6.6352-.06-6.2415,18.2365,10.2951.06,6.2428ZM266.0272,188.54l.0594,6.2426L247.85,184.4859l-.0594-6.2426Zm-18.2922,2.5827.0594,6.2415-18.2377-10.2952-.0581-6.2426Zm.062,6.4891.0582,6.2414-18.2365-10.2963-.0595-6.2414Zm.0556-12.8779,18.2365,10.2952.06,6.2439-18.2378-10.2963Zm18.3516,3.66-.0594-6.2427,18.2364,10.2963.06,6.2428Zm18.2378,10.5427.0594,6.2426-18.2365-10.2963-.0594-6.2414ZM266.15,201.5177l.0594,6.2427-18.2365-10.2963-.0593-6.2428Zm.0619,6.49.0582,6.2427-18.2365-10.2964-.0582-6.2426Zm.0557-12.879,18.2364,10.2963.0582,6.2426-18.2352-10.295Zm18.2972,16.7865.0593,6.2427-18.2376-10.2964-.0582-6.2426Zm.0618,6.4879.0582,6.2426L266.4482,214.35l-.0582-6.2427Zm18.29-2.828-18.2377-10.2963-.0582-6.2426,18.2365,10.2963Zm-.0607-6.4889L284.6189,198.79l-.0593-6.2439,18.2376,10.2975Zm-.0619-6.49L284.5571,192.301l-.06-6.2426,18.2377,10.2963Zm-.0607-6.4891-18.2363-10.2962-.06-6.2427,18.2365,10.2963Zm-.12-12.7305.0582,6.2415-18.2364-10.2963-.0582-6.2415ZM284.3788,192.2l-18.2365-10.2951-.0581-6.2439,18.2364,10.2964Zm-.0607-6.4878-18.2365-10.2964-.0593-6.2426L284.26,179.4678Zm-.12-12.7329.06,6.2426L266.02,168.9251l-.0581-6.2415Zm-18.2328,8.8254-18.2376-10.2964-.0594-6.2426,18.2377,10.2963Zm-.0618-6.49-18.2365-10.2963-.0593-6.2428,18.2363,10.2964Zm-.12-12.7306.0582,6.2428L247.605,158.5285l-.0582-6.2415Zm-18.2339,8.823L229.3129,161.11l-.06-6.2414,18.2378,10.2963Zm-.0608-6.4878-18.2364-10.2964-.0595-6.2426L247.43,158.6746Zm-.12-12.7329.0594,6.2426L229.19,148.1319l-.06-6.2414Zm-36.6512-20.6917L228.9538,141.79l.0582,6.2413-18.2364-10.2963Zm.0606,6.489,18.2364,10.2951.06,6.2427-18.2377-10.2963Zm.0607,6.4891,18.2376,10.2963.0582,6.2426-18.2363-10.2963Zm.0619,6.49,18.2364,10.2939.0582,6.2427-18.2364-10.2963Zm.0607,6.4879,18.2363,10.2963.06,6.2426-18.2365-10.2963Zm.0606,6.49L229.26,174.2355l.0582,6.2426-18.2364-10.2963Zm.0619,6.489L229.32,180.7245l.0581,6.2427L211.142,176.672Zm.0607,6.4891,18.2365,10.2963.0594,6.2426-18.2377-10.2963Zm.0606,6.4878,18.2378,10.2964.0594,6.2438L211.2646,189.65Zm.062,6.49,18.2376,10.2963.0582,6.2426-18.2376-10.2963Zm.12,12.733-.0582-6.2427,18.2352,10.2962.0594,6.2415Zm18.2339-8.8255L247.8576,204.1l.0582,6.2427-18.2365-10.2963Zm.0607,6.4891L247.9183,210.59l.0593,6.2415L229.74,206.5358Zm.12,12.7317-.0595-6.2415L247.98,217.0786l.0582,6.2426Zm18.2339-8.8242,18.2365,10.2963.06,6.2415L248.094,210.4422Zm.0608,6.4891,18.2364,10.2963.0595,6.2426L248.156,216.9324Zm.12,12.733-.0582-6.2439,18.2365,10.2963.0582,6.2439Zm18.2341-8.8255,18.2363,10.2963.0582,6.2428L266.5089,220.84Zm.0606,6.4891,18.2365,10.2963.0594,6.2414L266.5708,227.33Zm.12,12.7317-.0594-6.2426L284.81,237.8718l.06,6.2426Zm18.2327-8.8242,18.2378,10.295.0593,6.2428-18.2376-10.2951Zm.0619,6.4891,18.2377,10.2963.0582,6.2426-18.2364-10.2963Zm.12,12.7317-.0582-6.2426,18.2364,10.2963.0581,6.2426Z" style="fill: #4589ff"/>
          <path d="M281.4469,174.275a1.268,1.268,0,0,0-1.1291.1635l-28.014,19.6492-7.72-10.2729a1.2715,1.2715,0,0,0-.8654-.4976,1.2913,1.2913,0,0,0-.9559.28l-20.7288,17.111,1.6145,1.9562,19.7049-16.2666,7.6616,10.1923a1.2656,1.2656,0,0,0,1.7408.2774L280.37,177.4992l9.0853,27.9558,2.4131-.785-9.6177-29.5865A1.266,1.266,0,0,0,281.4469,174.275Z" style="fill: url(#o)"/>
        </g>
        <polygon points="114.848 346.406 256.115 346.406 256.115 336.264 110.806 336.264 114.848 346.406" style="mix-blend-mode: multiply;fill: url(#p)"/>
        <polygon points="82.224 366.692 224.418 366.692 224.418 356.549 78.18 356.549 82.224 366.692" style="mix-blend-mode: multiply;fill: url(#q)"/>
        <rect x="177.5081" y="386.9775" width="140.7311" height="53.2496" style="mix-blend-mode: multiply;fill: url(#r)"/>
        <g>
          <path d="M102.6978,177.956c-2.22,4.58-1.2457,4.4994-3.192,5.4379-9.6017,4.6306-3.4172,14.1976,1.6963,15.7343,0,0-2.64-2.9233,4.5043-6.9955,6.0025-3.4222,3.7318-6.4915,4.8188-9.1053,2.7808-6.6908,5.7747-5.1778,7.3743-3.0941,1.43-.2513,2.36-.2723,2.974-1.1749C121.8912,174.394,110.06,162.7568,102.6978,177.956Z" style="fill: #010080"/>
          <path d="M121.2783,178.0006a3.9968,3.9968,0,0,0-.6573.0569c-3.1969.5349-3.9695,2.303-3.87,4.2592a18.2624,18.2624,0,0,1,7.9711-1.8014A3.9809,3.9809,0,0,0,121.2783,178.0006Z" style="fill: url(#s)"/>
          <path d="M82.8666,358.4114a29.9311,29.9311,0,0,1-.4185-3.062l-4.71.2192-.02,1.648c-1.2034,1.165.03,4.9475.2835,5.9789.3839,1.5575,3.2093,3.0557,4.4226,2.77,1.3979-.3294,2.2262-1.0548,1.8919-2.4515C84.1146,362.6755,83.2517,360.09,82.8666,358.4114Z" style="fill: #010080"/>
          <path d="M77.7382,355.5686s-.02.6773-.02,1.6492a3.7513,3.7513,0,0,0,.5461.941c.4147.3838,1.5773-.22,2.7684-.3912.9559-.1375,1.555.21,1.7123-.03-.177-1.014-.2958-2.3884-.2958-2.3884Z" style="fill: #ffb2b2"/>
          <path d="M112.8466,339.2215c-.6771-.6574-1.5067-1.6789-1.5067-1.6789l-4.03,1.1775a6.1331,6.1331,0,0,0,.05,1.94,2.17,2.17,0,0,0,.15,2.1023c.4061.5609,3.2773,1.0041,4.0847,1.7173a5.5906,5.5906,0,0,0,3.9545,1.5352c1.8312-.0631,4.0784-.879,4.0784-1.7878C119.6267,342.4271,114.1505,340.4906,112.8466,339.2215Z" style="fill: #010080"/>
          <path d="M107.0732,338.9752s.0842.6809.2861,1.6851c0,0,2.4119.7045,3.24.33a5.9984,5.9984,0,0,0,2.2471-1.7693,7.7162,7.7162,0,0,1-1.38-1.867Z" style="fill: #ffb2b2"/>
          <path d="M76.8753,290.0194c-.1969,2.7313.91,66.2858.91,66.2858a7.0342,7.0342,0,0,0,4.6369-.8394s6.7218-62.34,6.8258-63.5249C88.27,292.9055,78.4378,291.2228,76.8753,290.0194Z" style="fill: #ffb2b2"/>
          <path d="M99.36,273.6364c.0867,2.7351,7.773,65.8352,7.773,65.8352a7.0416,7.0416,0,0,0,4.5242-1.3161s.2277-62.7.2079-63.8913C110.9908,275.324,101.0387,274.67,99.36,273.6364Z" style="fill: #ffb2b2"/>
          <path d="M150.24,259.5749a8.1656,8.1656,0,0,1-2.4478-.2265c.8394.364.54.8431,1.3632,1.35.3727.099,2.0108-.3629,1.9859-.7516C151.1533,259.3447,150.6828,259.5266,150.24,259.5749Z" style="fill: #ffb2b2"/>
          <path d="M152.84,262.6542c-.1411-.11-2.1779-1.6752-3.1573-2.2645a20.3176,20.3176,0,0,0-2.522-1.331c-.0507-.0161-.0891-.0421-.1387-.0582-.1684-.0743-.3479-.1375-.5274-.2006-.16-.0619-.3183-.1226-.4879-.1758a8.6557,8.6557,0,0,1-.0333.9335,8.4627,8.4627,0,0,1-.82,3.1064c1.3619.8667,5.1457,2.7264,5.24,2.802,1.565,1.2616,2.3364,1.045,2.3029.473-.0086-.1374,1.3087.3479,1.3978-.2031a1.2308,1.2308,0,0,0,.6278-.38,4.91,4.91,0,0,0-.161-1.2865A14.287,14.287,0,0,0,152.84,262.6542Z" style="fill: #ffb2b2"/>
          <path d="M125.9709,211.8215a4.3267,4.3267,0,0,0-3.9558-3.21,5.0992,5.0992,0,0,0-3.0508,1.1676c-3.8431,2.88-1.3,28.2541,3.442,36.1608,1.8,3,10.1651,5.0924,7.6765-5.6236C128.0559,231.5807,127.34,217.94,125.9709,211.8215Z" style="fill: url(#t)"/>
          <path d="M125.5388,239.459c-1.6121,0-3.3826.8654-4.0833,3.6674-1.0327,4.1489,15.0866,15.2587,24.3193,20.6706a22.4691,22.4691,0,0,1,3.2241-4.2827c-7.0375-5.553-15.9756-15.4048-20.8179-19.2232A4.4758,4.4758,0,0,0,125.5388,239.459Z" style="fill: url(#u)"/>
          <path d="M116.58,203.5346a24.6145,24.6145,0,0,0-9.6091-2.9629c-4.2728-.34-7.6307,1.3595-11.5569,6.3369-3.9781,5.0441-4.5959,12.9284-8.6557,20.9429,3.4321,3.8123,21.5633,11.7585,27.3825,12.3467,2.9679-6.5188,9.3851-16.0128,10.3459-19.2939.9212-3.09,3.0978-7.7394-1.3434-12.6239A21.2235,21.2235,0,0,0,116.58,203.5346Z" style="fill: #357bcf"/>
          <path d="M114.5615,195.4509c-.307,1.7012-2.3561,5.8649-3.3454,6.4135.5323,3.5831,6.2649,6.03,7.3173,4.48-.2439-2.2361,2.0268-5.2621,2.1619-5.5816C119.176,200.3365,114.9453,195.9461,114.5615,195.4509Z" style="fill: #ffb2b2"/>
          <path d="M124.4269,186.33c-3.8035-1.2208-7.3136,1.1132-8.5232,4.88-.0124.04-1.2556,3.9076-1.2556,3.9076-.9112,2.84,2.0319,8.7139,4.6741,8.9838,6.2463.6414,10.9339-9.6747,11.1246-10.95C130.9791,189.5933,127.9631,187.4674,124.4269,186.33Z" style="fill: #ffb2b2"/>
          <path d="M86.7344,227.8429c-2.3227,6.8914-7.711,11.0466-8.9814,16.43,3.2179,3.8358,30.0854,8.9,33.7169,2.896-1.9946-3.7788,2.5245-5.5728,3.0507-7.7693C107.3754,240.0075,89.5338,229.8932,86.7344,227.8429Z" style="fill: #ffb2b2"/>
          <g>
            <g>
              <polygon points="111.198 237.431 111.164 250.05 134.556 250.05 150.819 240.294 150.854 227.847 134.451 237.379 111.198 237.431" style="fill: url(#v)"/>
              <path d="M117.9416,227.8478a18.6489,18.6489,0,0,0-2.9579,2.106c-.213.1883-.4135.3752-.6079.5635a9.5725,9.5725,0,0,0-3.1956,6.86h23.2707l16.4015-9.53C141.7361,222.5857,127,222.58,117.9416,227.8478Z" style="fill: #69be55"/>
            </g>
            <g>
              <path d="M158.49,227.1582l-.0148,1.0957.0148-.0037v-.0086c0-.3034.0322-.6068.0409-.9113.0012-.0644-.0409-.13-.0409-.1957Z" style="fill: url(#w)"/>
              <path d="M158.041,228.3009c-.0013.005-.0755.01-.0755.0161a8.325,8.325,0,0,1-.2836,1.07c-.0012.0049-.021.0111-.0234.0185-.0013.0049-.0125.01-.015.0161-.0024.01-.01.02-.0136.0309l-.0062.0124c-.0037.0125-.0086.0247-.0123.0359l-.0025.0088c-.0446.1385-.0928.2785-.1461.4183l-.0038.01-.0036.0075-.0125.0372-.0073.0148a.195.195,0,0,1-.01.0273.0925.0925,0,0,1-.01.0223c-.0013.0073-.0049.0123-.0062.02l-.0112.0286-.0025.0073a10.0228,10.0228,0,0,1-.78,1.5354l-.0049.0061a.3621.3621,0,0,1-.0223.036.0459.0459,0,0,1-.01.0161c-.005.0086-.01.0172-.0161.026l-.0174.0284c-.0037.0049.0174.01.015.0148-.0088.0137-.0038.0285-.0038.0422h0a7.8572,7.8572,0,0,0-.6823.9211c-.0284.0372-.0705.0743-.099.11l-.0161.0124c-.0074.0086-.0174.0174-.0247.026a.23.23,0,0,0-.0161.02l-.0037.0013c-.0893.1114-.1833.2216-.2774.3305-.01.01-.02.0223-.03.0335l-.0347,21.234c.1511-.1722.2959-.3468.4333-.52l.0211-.0272.021-.026.005-.0074a11.46,11.46,0,0,0,.9435-1.4078,9.5856,9.5856,0,0,0,.5361-1.1032.2576.2576,0,0,0,.0136-.0347l.0037-.0086c.0062-.0136.0112-.0273.0161-.04l.4606-.0038c.0755-.1918.6636-.3838.6636-.5757v-.0049c0-.0123-.4507-.0248-.4456-.0372.0011-.0049-.2254-.01-.2254-.01.0036-.0136-.109-.0223-.1053-.0309.0013-.0075-.0532-.0149-.0507-.0223l-.026-.0062c.0767-.255.1263-.51.177-.7652.0174-.0805.0247-.1622.0372-.2427a8.4465,8.4465,0,0,0,.3566-1.2566l.2674-20.1123c-.04.01-.2824.0186-.2848.0285C158.1908,228.2824,158.0422,228.296,158.041,228.3009Z" style="fill: url(#x)"/>
              <path d="M151.0418,217.611l-16.4028,9.5335,20.7685,6.1177C160.0456,227.9567,158.3345,221.8219,151.0418,217.611Z" style="fill: #ffe494"/>
              <polygon points="134.604 248.379 155.373 254.496 155.408 233.262 134.638 227.143 134.604 248.379" style="fill: #fed866"/>
            </g>
            <g>
              <path d="M113.5834,244.6257a11.3268,11.3268,0,0,1-.8592-1.2257,9.4419,9.4419,0,0,1-.8841-1.8992,8.0776,8.0776,0,0,1-.4235-2.5915h0l-.0346,9.3652c-.01,3.4717,2.2819,6.95,6.8691,9.5992l.0347-9.3652A16.57,16.57,0,0,1,113.5834,244.6257Z" style="fill: url(#y)"/>
              <path d="M118.2858,248.5085l16.2467-9.3467-23.1159-.1857S110.9474,244.2828,118.2858,248.5085Z" style="fill: #fbbe6f"/>
              <polygon points="118.294 257.874 134.555 248.509 134.555 239.15 118.286 248.509 118.294 257.874" style="fill: url(#z)"/>
            </g>
            <path d="M118.2028,257.922a25.84,25.84,0,0,0,5.9047,2.4788c11.47,3.3814,25.4684.7428,31.2653-5.891l.0842-3.863-37.1712,3.4122Z" style="fill: url(#aa)"/>
            <path d="M118.2858,254.059a25.8445,25.8445,0,0,0,5.9047,2.4788c11.4713,3.3814,25.4684.7441,31.2665-5.891l-20.77-6.1188Z" style="fill: #a2e4f4"/>
          </g>
          <path d="M77.753,244.2716c-2.0206,6.4359-2.5467,13.8708-2.7412,19.1949-.14,3.9186.9274,90.8379.9274,90.8379.0681.1673,5.1259,1.8462,7.6677.1362,0,0,6.8271-59.6309,9.4223-82.4546a10.2073,10.2073,0,0,0,4.1081-.8667c3.0656,26.3957,7.7148,66.1534,7.7148,66.1534.0842.1511,5.6186,2.3426,7.5489-1.2009.026-.0013.7664-31.41.7664-69.4915a155.34,155.34,0,0,0-1.6988-19.41C105.4785,251.828,82.4122,246.3145,77.753,244.2716Z" style="fill: url(#ab)"/>
          <path d="M130.9828,185.5631s-5.1184-7.6888-11.6112-4.82c-9.7762,4.32-4.8893,15.64-4.8893,15.64-.5894-3.1807,7.352-10.373,14.6533-7.4027,0,0,3.1163,2.4217-.7145,8.4788C131.4348,197.1371,135.9354,188.8194,130.9828,185.5631Z" style="fill: #010080"/>
          <path d="M117.8252,189.2813c-1.04-.3579-2.5159.6921-2.8737,1.7333-.34.9843-.3058,3.7255.577,4.3273.0731-2.1494,2.0244-3.7813,3.8171-4.9624A3.63,3.63,0,0,0,117.8252,189.2813Z" style="fill: #ffb2b2"/>
          <path d="M148.4505,240.9721a8.1829,8.1829,0,0,1-2.3637.6747c.915.0346.81.5893,1.7581.7639.3851-.0432,1.7433-1.066,1.58-1.4189C149.2193,240.4273,148.8454,240.7653,148.4505,240.9721Z" style="fill: #ffb2b2"/>
          <path d="M151.989,242.9011c-.1721-.0521-2.636-.7726-3.7627-.9683a20.1046,20.1046,0,0,0-2.8329-.3281c-.0519.0024-.099-.0062-.151-.0037-.1832-.0087-.3739-.0012-.5633.0025-.1721.0012-.34.0012-.5188.0136a9.0646,9.0646,0,0,1,.3082.8827,8.4868,8.4868,0,0,1,.3591,3.192c1.5811.3145,5.7834.68,5.8985.7157,1.9154.61,2.5555.1286,2.3178-.3913-.0569-.1263,1.3471-.1511,1.2294-.6971a1.2271,1.2271,0,0,0,.4483-.5806,4.9049,4.9049,0,0,0-.6167-1.1416A14.27,14.27,0,0,0,151.989,242.9011Z" style="fill: #ffb2b2"/>
          <path d="M108.5466,205.2358a4.5276,4.5276,0,0,0-3.5212-1.8089,4.4162,4.4162,0,0,0-3.75,2.4391c-2.5393,4.0784,9.0137,26.8131,16.295,32.4663,2.7648,2.1457,11.3191,1.0685,5.1223-8.0194C117.6408,222.9,112.037,210.4446,108.5466,205.2358Z" style="fill: url(#ac)"/>
          <path d="M119.8657,230.8355c-1.9439,0-4.7012,1.2517-4.1973,5.2187.5349,4.2418,19.5823,8.7646,30.1485,10.47a22.4558,22.4558,0,0,1,1.4548-5.16c-8.5678-2.6323-20.4676-8.58-26.3636-10.388A3.6382,3.6382,0,0,0,119.8657,230.8355Z" style="fill: url(#ad)"/>
        </g>
        <rect x="408.2564" y="347.6742" width="111.5706" height="5.0714" style="mix-blend-mode: multiply;fill: url(#ae)"/>
        <rect x="228.222" y="416.138" width="110.3027" height="6.3392" style="mix-blend-mode: multiply;fill: url(#af)"/>
        <path d="M336.1971,403.46h-77.97a3.1758,3.1758,0,0,0,0,6.3393h77.97a3.1758,3.1758,0,0,0,0-6.3393Z" style="mix-blend-mode: multiply;fill: url(#ag)"/>
        <path d="M482.1012,344.8476a3.1341,3.1341,0,0,0,2.1221,5.3623h34.3358v-6.3392H484.2233A3.1756,3.1756,0,0,0,482.1012,344.8476Z" style="mix-blend-mode: multiply;fill: url(#ah)"/>
        <rect x="188.4223" y="370.0795" width="6.3219" height="51.4951" style="fill: url(#ai)"/>
        <rect x="188.4223" y="370.0795" width="6.3219" height="51.4951" style="fill: url(#ai)"/>
        <g>
          <path d="M127.11,367.5773l-.0185,45.4c-.02,6.941,4.6108,13.8943,13.7853,19.1911l.093-44.927.3-.6339C132.3943,381.3106,127.0889,374.5207,127.11,367.5773Z" style="fill: url(#ak)"/>
          <path d="M152.1512,413.8128l.0013-.1918-.0013.0062Z" style="fill: url(#al)"/>
          <path d="M182.9336,357.21q-1.07-.3045-2.1828-.5349c-.6822-.1424-1.3755-.2612-2.0738-.3615q-1.01-.1431-2.0356-.2278c-.6846-.0558-1.373-.093-2.0615-.109-.3008-.0074-.6-.0124-.9013-.0124-.4147,0-.8283.0086-1.2419.0223q-1.1644.039-2.3177.1547c-.9013.0891-1.7929.213-2.6682.37a30.4336,30.4336,0,0,0-3.96.9857,23.7261,23.7261,0,0,0-4.5823,2.0156c-.0854.0508-.1709.099-.255.1511a16.2561,16.2561,0,0,0-2.65,1.9611,12.09,12.09,0,0,0-1.2964,1.3954,9.8122,9.8122,0,0,0-.8418,1.2493,8.4951,8.4951,0,0,0-.5572,1.1886,7.5292,7.5292,0,0,0-.338,1.1775,7.2108,7.2108,0,0,0-.1375,1.2009c-.0025.0607-.3083.1213-.3083.1846l-.3726,45.5992c.0049-.3975.364-.795.4432-1.1912a8.3409,8.3409,0,0,1,.4915-1.1774,8.8992,8.8992,0,0,1,.634-1.1886,10.0982,10.0982,0,0,1,.8791-1.25,12.18,12.18,0,0,1,1.3173-1.3954,16.39,16.39,0,0,1,2.657-1.9613c.0855-.0507.1733-.1.2613-.151a23.5887,23.5887,0,0,1,4.5848-2.0144,30.0847,30.0847,0,0,1,3.9595-.9855c.8766-.1574,1.7681-.2824,2.6694-.3715.7665-.0767,1.5415-.1288,2.3191-.1548.7131-.0247,1.4288-.0284,2.1431-.0112.6885.0174,1.3769.0558,2.06.1115s1.362.1325,2.0342.2265q1.0494.15,2.0764.3629,1.1106.2284,2.1816.5348,1.3113.3732,2.5444.858a22.8717,22.8717,0,0,1,3.0136,1.4437l.0669-45.7923a22.5308,22.5308,0,0,0-3.0124-1.4449Q184.2473,357.5838,182.9336,357.21Z" style="fill: url(#am)"/>
          <polygon points="140.97 416.352 159.006 405.874 159.006 377.581 140.97 388.061 140.97 416.352" style="fill: #1fa079"/>
          <polygon points="188.483 388.756 206.52 378.276 206.52 349.985 188.483 360.463 188.483 388.756" style="fill: #1fa079"/>
          <path d="M206.5424,359.4948,188.49,369.9854c6.5571,3.7849,8.0961,9.3,3.9273,14.0677l22.8559,6.7354C224.55,380.1765,221.1263,367.914,206.5424,359.4948Z" style="fill: #87e9ed"/>
          <path d="M220.3822,380.1877c-.005.0531-.0372.1089-.0434.1634-.0458.3651-.1126.73-.1845,1.0944-.0073.0434-.02.0867-.03.1314-.0769.3788-.1733.76-.28,1.14-.0211.0754-.0434.1522-.0657.2289q-.1673.5628-.3752,1.128c-.02.0557-.0445.1115-.0668.1671-.1535.4037-.3219.8061-.5089,1.2084a.3909.3909,0,0,1-.0185.04c-.1907.4061-.4012.8109-.6266,1.2133-.0421.0769-.0816.1536-.1274.23-.0657.1151-.135.23-.2044.3454-.0792.1337-.16.2662-.2426.4011-.0743.1164-.151.2317-.2266.3479-.0855.1325-.172.2639-.2637.3962-.078.1153-.161.2317-.2427.3468-.0928.1325-.1881.2624-.2847.3936-.0868.1153-.1734.23-.2625.3455-.0867.1139-.1758.2266-.265.3393-.2525.3181-.5151.6363-.79.9509l-.0693,34.545c.2761-.3157.5362-.6326.79-.9508.03-.0383.0655-.078.0977-.1164.0582-.0742.1115-.15.1684-.2241.088-.1139.1759-.2291.2626-.3442.0965-.1312.1894-.2624.2835-.3937.0829-.1163.1634-.2316.2452-.348.0891-.1312.1757-.2624.2611-.3949q.117-.1746.2266-.3492c.0831-.1325.1623-.265.2427-.4.0693-.1151.1387-.23.2055-.3454.0212-.0383.0446-.0755.0657-.1126s.0384-.0781.0607-.1177c.2253-.4024.437-.8072.6277-1.2133l.0173-.0384c.1882-.4037.3553-.8073.51-1.2084.0136-.0384.031-.0756.0458-.1115.0075-.02.0124-.0384.0186-.0594.14-.3752.2625-.75.3739-1.1268.0235-.0754.0447-.1522.0657-.2289.1064-.379.2006-.76.2786-1.14.0012-.0112.0062-.0236.0086-.0372.0062-.031.0087-.0631.0137-.0942q.1057-.546.172-1.0932c.0075-.0544.0174-.109.0223-.1647.0421-.3776.0681-.7553.0817-1.1341,0-.0372.0075-.0756.0075-.1139.0049-.1312.0966-.265.0977-.3962l.16-34.5067v-.0359c0,.1708-.0991.3391-.1053.5088C220.4962,379.4324,220.4255,379.8087,220.3822,380.1877Z" style="fill: url(#an)"/>
          <polygon points="192.233 427.022 215.099 425.405 215.353 390.598 192.533 383.741 192.233 427.022" style="fill: #00b5e2"/>
          <path d="M211.63,403.3135c-.2414.2042-.4939.4073-.7565.6017-.68.5237-1.399,1.03-2.1469,1.5241-.3207.213-.65.4272-.9905.6315-.5918.37-1.2034.728-1.825,1.0673-.3293.1857-.6612.36-1.0016.5349a54.4705,54.4705,0,0,1-8.3116,3.4481c-.6785.2229-1.3682.4272-2.0677.62a2.3432,2.3432,0,0,1-.2439.078c-.5337.1559-1.0859.3008-1.6306.437-.2043.0582-.4086.1065-.6228.1548-.6587.1658-1.3186.3206-1.99.4568a.5614.5614,0,0,1-.0693.02c-.7082.1561-1.4263.291-2.1445.4272a.3938.3938,0,0,0-.1065.0186c-.9632.1758-1.9426.3306-2.9244.4668-1.019.146-2.0479.2624-3.0767.3689-.525.0483-1.0389.0978-1.5638.1362-.3987.04-.7973.0582-1.1948.0878q-1.1813.0708-2.36.1164c-.4469.02-1.3656.0286-1.3656.0286l-.265.01v25.5042s1.0426-.0086,1.5675-.0284q2.58-.0873,5.116-.34,3.0588-.3064,6-.8358a68.7639,68.7639,0,0,0,8.8749-2.2149,51.5124,51.5124,0,0,0,10.6814-4.7669,35.6165,35.6165,0,0,0,5.8848-4.3595,27.3966,27.3966,0,0,0,2.1061-2.1654l.0681-25.5142A28.9526,28.9526,0,0,1,211.63,403.3135Z" style="fill: url(#ao)"/>
          <path d="M174.9626,399.6907v14.8576s.2426-.01.2723-.01q.6983,0,1.3694-.0286,1.1775-.0444,2.3587-.1164c.3986-.03.7961-.0481,1.1948-.0878.5249-.04,1.04-.0879,1.5625-.1362,1.03-.1065,2.059-.2229,3.078-.3689.9818-.1362,1.9624-.291,2.9244-.4656a.3534.3534,0,0,1,.1065-.02c.7182-.135,1.4363-.2724,2.147-.4272a.6573.6573,0,0,0,.0668-.02c.6711-.1362,1.331-.291,1.9909-.4568.213-.0483.4185-.0966.62-.1548.5436-.1349,1.0982-.2811,1.6319-.437a2.3432,2.3432,0,0,0,.2439-.078c.6983-.1932,1.3879-.3975,2.0677-.62a54.4045,54.4045,0,0,0,8.3128-3.4481c.34-.1746.67-.3492,1-.5349.6216-.3393,1.2332-.6984,1.8263-1.0673.3392-.2043.67-.4173.9892-.6315.7479-.4952,1.466-1,2.1469-1.5254.2613-.1931.5151-.3962.7578-.6a28.9537,28.9537,0,0,0,3.64-3.4866l-22.8584-6.7305C188.9262,397.0782,182.1487,399.458,174.9626,399.6907Z" style="fill: #b9e0b0"/>
          <path d="M172.7339,423.6968c-.281.0087-.5757,0-.8568-.0112-.7576-.0185-1.5055-.0481-2.2645-.0853-.759-.04-1.5056-.0979-2.2646-.1561-.2625-.02-.5336-.0384-.7961-.0681-.863-.0779-1.7173-.1659-2.5716-.2822-.3714-.0483-.749-.0966-1.118-.1449-.3875-.0582-.7763-.1176-1.1552-.1758-.7776-.1164-1.5451-.2526-2.3128-.3975-.3789-.078-.7664-.1547-1.144-.2339-.4185-.0855-.8259-.1733-1.2431-.2712-.4087-.0879-.8259-.1858-1.2333-.29-.41-.099-.8171-.2043-1.2245-.312-.6-.1548-1.2047-.3195-1.7965-.4965-.4667-.1449-.9224-.2811-1.378-.4259-.369-.1164-.7379-.234-1.0982-.3492-.3505-.1176-.68-.234-1.0091-.35-.4482-.1647-.8753-.3206-1.3025-.4853-.2514-.0979-.4953-.1944-.7367-.2923s-.4866-.203-.728-.3c-.4866-.1943-.9534-.4086-1.419-.6215a.4229.4229,0,0,1-.0681-.03c-.4456-.2141-.8828-.4185-1.3211-.64-.4654-.224-.9124-.4667-1.3692-.7094s-.9126-.4964-1.3694-.759l-.0769,16.3583a48.2846,48.2846,0,0,0,6.613,3.1844c1.6108.64,3.3219,1.2133,5.1939,1.768.1956.0582.3789.1164.5745.1647,1.622.4656,3.2625.8643,4.9228,1.2146,1.5254.3195,3.07.582,4.6132.8049q2.2287.3063,4.4772.4952c1.5142.1275,3.0358.2042,4.54.2439,1.0587.0285,1.8932.0285,3.161.0086V423.6968C173.7046,423.7055,173.4718,423.7167,172.7339,423.6968Z" style="fill: url(#ap)"/>
          <path d="M159.008,405.323l-18.0532,10.4882q.6852.3936,1.3693.7565c.4569.2439.9027.4866,1.3694.7106.4359.2229.8729.4273,1.32.64a.4759.4759,0,0,0,.0681.0286c.4668.2141.9423.4172,1.4177.6215.244.0978.4854.2042.7293.3021.2414.0966.4853.1944.7379.29.4271.1671.8544.3206,1.3.4866.3318.1164.6612.2328,1.01.3492.359.1164.728.234,1.0969.35.4569.1461.9138.281,1.3793.4271.5918.1746,1.1948.3393,1.7965.4953.4087.1065.816.213,1.2245.3107.4074.1065.8246.2043,1.2333.291.416.0979.8246.1845,1.2418.2724.38.0767.7677.1547,1.1465.2327.7665.1462,1.534.2823,2.3116.3987.3789.0582.7664.1164,1.154.1746.3713.0483.749.0966,1.118.1461.8542.1151,1.7086.2031,2.5741.281.2624.03.5323.0484.7948.0669.7578.0594,1.5056.1176,2.2634.156s1.5055.0681,2.262.0879c.2811.0087.5732.0186.8543.0087.7491.0211,1.497.0211,2.2349.01V408.8479a34.0047,34.0047,0,0,1-10.6529-1.3A23.2513,23.2513,0,0,1,159.008,405.323Z" style="fill: #ffe494"/>
          <path d="M140.7356,349.955c-18.1138,10.5253-18.0172,27.5929.213,38.1183l18.057-10.4919c-8.1953-4.7321-8.2386-12.4024-.0967-17.1346s21.3825-4.73,29.5815-.0012l18.052-10.49C188.3121,339.43,158.8471,339.427,140.7356,349.955Z" style="fill: #b9e0b0"/>
        </g>
        <g>
          <path d="M247.7871,321.2266a8.225,8.225,0,0,1-1.3323,2.0664c.7107-.577.998-.09,1.8275-.5869.26-.286.6054-1.9513.25-2.1073C248.0025,320.309,247.9467,320.8105,247.7871,321.2266Z" style="fill: #ffb2b2"/>
          <path d="M255.03,320.65a1.2364,1.2364,0,0,0-.047-.7318,4.8931,4.8931,0,0,0-1.2157-.4506,14.1547,14.1547,0,0,0-2.0493.8729c-.1645.0754-2.491,1.1588-3.4655,1.7568a20.246,20.246,0,0,0-2.3461,1.622c-.0372.0371-.0781.0595-.1153.0966-.1435.1151-.2822.2463-.4209.3739-.1288.1138-.2562.2278-.3814.3541a8.0289,8.0289,0,0,1,.8135.4593,8.4741,8.4741,0,0,1,2.3772,2.1619c1.3954-.8086,4.7928-3.3084,4.903-3.3567,1.8436-.8059,2.0057-1.59,1.4833-1.8249C254.4382,321.9273,255.4784,320.9839,255.03,320.65Z" style="fill: #ffb2b2"/>
          <path d="M221.2848,330.1386c-8.7288-2.0615-21.2674-7.4771-27.359-8.9678a3.395,3.395,0,0,0-.7986-.0879c-1.95,0-4.903,1.3546-4.1416,5.4577.8742,4.7235,24.7391,13.7123,33.9286,12.9744C226.4032,339.2339,231.991,332.6681,221.2848,330.1386Z" style="fill: url(#aq)"/>
          <path d="M220.4962,331.8955c-1.6617.7479-4.1837,4.0908-.5857,7.2728,3.203,2.8328,20.4985-6.34,29.56-12.0322a22.498,22.498,0,0,1-2.3117-4.8373C238.9839,325.9772,226.12,329.3623,220.4962,331.8955Z" style="fill: url(#ar)"/>
          <path d="M194.1635,370.3754a7.091,7.091,0,0,0-5.64,4.8423,4.5567,4.5567,0,0,0,.9868,4.029c1.4536,1.7655,4.1762,2.9145,8.0949,3.4159,4.7718.6117,10.9884,2.0393,16.4733,3.2972,4.5341,1.0413,8.8156,2.0255,11.719,2.4168,2.345.3169,6.1882-.75,6.9856-4.0474a6.06,6.06,0,0,0-.3863-3.686C229.9554,374.4835,202.3612,369.17,194.1635,370.3754Z" style="fill: #f7a2a1"/>
          <path d="M253.2088,393.81c-6.0433-3.5176-18.8666-26.5406-23.709-26.2757a4.0363,4.0363,0,0,0-3.1226,1.3211c-1.2554,1.6121-.1139,3.9694.7454,5.38,7.1663,11.7475,20.7833,21.2935,24.2675,23.6669C251.567,398.0205,254.5943,394.6168,253.2088,393.81Z" style="fill: #ffb2b2"/>
          <path d="M231.4215,368.3957c-4.8139-4.5526-32.07,2.2831-38.9914,6.8394a7.0874,7.0874,0,0,0-3.0681,6.77A4.555,4.555,0,0,0,191.96,385.24c2.06.9868,5.0145.8779,8.78-.3219,4.5836-1.4609,10.82-2.7932,16.3248-3.9682,4.5489-.9694,8.8452-1.8869,11.6422-2.7573,2.26-.7033,5.293-3.2934,4.6231-6.6191A6.0631,6.0631,0,0,0,231.4215,368.3957Z" style="fill: #ffb2b2"/>
          <path d="M204.5366,364.2046a21.1588,21.1588,0,0,1-.99-6.6365c-.4656-10.77.5522-21.14-.0644-24.8815-.5274-3.1819-.5894-8.3153-6.7156-10.7754a21.2017,21.2017,0,0,0-7.9761-1.41c-.0768,0-.5472-.0359-1.3-.0359a24.2569,24.2569,0,0,0-8.64,1.56c-3.9942,1.5563-5.89,4.6479-7.6393,10.74-.5126,1.7841,2.3042,13.9327,1.5551,28.8584-.6648,13.3037.369,37.97-13.7618,48.4815,0,0,31.38-3.0767,36.3627-15.6661,6.4061-16.1848,10.0771-22.8311,18.1857-26.1976C209.3591,367.0634,206.2378,368.45,204.5366,364.2046Z" style="fill: url(#as)"/>
          <path d="M183.149,361.6862a40.9606,40.9606,0,0,1-10.3408-1.2987c-.0111.4073-.265,7.3421-.265,7.3421a37.91,37.91,0,0,0,10.6058,1.3668,46.2149,46.2149,0,0,0,21.369-4.8844c-.52-2.2794-.9831-6.8258-.9831-6.9162A46.8691,46.8691,0,0,1,183.149,361.6862Z" style="fill: url(#at)"/>
          <path d="M188.79,320.5022a24.59,24.59,0,0,0-9.94,1.523,2.0291,2.0291,0,0,0-.4284,1.2183c0,2.2683,4.22,4.1056,9.4321,4.1056s9.4321-1.8373,9.4321-4.1056a2.1075,2.1075,0,0,0-.5188-1.331A21.2042,21.2042,0,0,0,188.79,320.5022Z" style="fill: #fffffe"/>
          <path d="M191.2836,316.2084c-1.5526.2786-7.4907-2.0145-8.05-2.293.9733,2.21,1.0092,7.2182.3591,8.1444,2.0405,2.9926,7.9092,1.9662,8.18.1138C190.5779,320.2682,191.3022,316.555,191.2836,316.2084Z" style="fill: #ffb2b2"/>
          <path d="M188.3492,301.5934c-3.9521.5585-6.094,4.19-5.5418,8.1049.0049.0408.5744,4.066.5744,4.066.4173,2.9529,5.6274,6.9559,8.1222,6.0482,5.9009-2.1468,5.6236-13.4758,5.2385-14.7065C195.6716,301.6714,192.03,301.0735,188.3492,301.5934Z" style="fill: #ffb2b2"/>
          <path d="M183.554,307.2542c-1.0945.13-1.8189,1.5922-1.6876,2.6867.1226,1.0327,1.3471,3.4829,2.4044,3.6414a6.9671,6.9671,0,0,1,.3455-6.24A2.4131,2.4131,0,0,0,183.554,307.2542Z" style="fill: #ffb2b2"/>
          <path d="M230.2848,357.0594a8.19,8.19,0,0,1-2.1989,1.0956c.9062-.1325.9038.431,1.8695.4284.37-.1127,1.518-1.3681,1.2926-1.6851C230.9409,356.3808,230.6364,356.782,230.2848,357.0594Z" style="fill: #ffb2b2"/>
          <path d="M236.3269,358.6a14.2486,14.2486,0,0,0-2.2076-.2946c-.18-.02-2.735-.2761-3.8766-.26a20.2771,20.2771,0,0,0-2.8453.1968c-.0519.0136-.0977.0125-.1486.0235-.1832.026-.3689.0669-.5546.1078-.1671.0309-.3342.0631-.5077.1089a9.24,9.24,0,0,1,1.4042,3.8816c1.6144.02,5.81-.395,5.9306-.38,1.9958.2476,2.5357-.3431,2.2063-.811-.0793-.1139,1.2963-.3962,1.0809-.91a1.2245,1.2245,0,0,0,.3331-.6537A4.92,4.92,0,0,0,236.3269,358.6Z" style="fill: #ffb2b2"/>
          <path d="M184.4937,329.2645a4.5454,4.5454,0,0,0-3.0656-1.1973c-1.46,0-3.0335.7689-3.9645,3.1535-1.7482,4.4747,13.7853,24.7,21.9818,28.9166,3.1127,1.6035,11.3227-1.0276,3.5609-8.8229C196.6782,344.959,188.8816,333.744,184.4937,329.2645Z" style="fill: url(#au)"/>
          <path d="M201.3756,352.295a2.9888,2.9888,0,0,0-.3231-.0173c-1.908,0-5.2819,1.6565-3.8964,5.9727,1.3062,4.07,20.8626,5.0157,31.5612,4.75a22.4165,22.4165,0,0,1,.4816-5.3388C220.2918,356.6471,207.5032,352.9883,201.3756,352.295Z" style="fill: url(#av)"/>
          <path d="M197.2861,298.4176a3.3988,3.3988,0,0,0-3.37-.3739s0-.5942-2.9765-2.231c-2.3772-1.3088-9.1968-1.92-12.9174,1.5s-5.2064,8.1456-3.8667,14.31-.2563,11.4378-1.8622,13.25c-2.6693,3.0161-3.2811,7.45-3.2811,9.5808,0,12.4444,12.3591,18.5311,12.3591,18.5311s-3.432-13.67,1.601-24.4136c3.5026-7.4746,1.2-10.1129.7267-13.4844-.6178-4.4164,4.3-1.85,7.95-7.5613a16.32,16.32,0,0,0,2.0961-5.6014s5.9938,2.1334,1.4164,14.303C198.3992,313.9154,201.9959,302.132,197.2861,298.4176Z" style="fill: #357bcf"/>
          <path d="M187.5024,299.9691c-5.3586,2.756-5.8229,5.1716-6.7825,8.18,0,0,5.6211-7.8039,14.6471-7.71A7.3531,7.3531,0,0,0,187.5024,299.9691Z" style="fill: #00b5e2"/>
          <path d="M232.0132,380.1777a4.0443,4.0443,0,0,0-3.11-1.35c-2.0343.2042-2.9542,2.6545-3.3825,4.2493-3.5647,13.2913-1.3421,29.6705-.6562,33.8319.0346.2093,1.305,2.1506,1.5947,2.1209,1.2257-.1226,3.25-2.0033,2.8786-3.5608C227.7157,408.6659,235.5431,383.5021,232.0132,380.1777Z" style="fill: #f7a2a1"/>
          <path d="M229.7016,415.457a6.9827,6.9827,0,0,1-2.23-.3442l-1.7222,3.36a4.08,4.08,0,0,1,.6178,1.5737,2.1878,2.1878,0,0,0,1.4461,1.5328c1.7855.478,3.1722-1.3,4.2493-1.26a5.5919,5.5919,0,0,0,4.0327-1.3174c1.378-1.2071,1.9438-5.7833,1.3681-6.4865C236.3219,411.1211,234.7445,414.9234,229.7016,415.457Z" style="fill: #010080"/>
          <path d="M229.2225,415.3853a2.8951,2.8951,0,0,1-2.1643-.9509l-2.1939,2.475a10.5578,10.5578,0,0,0,1.451,2.8737s3.2192-1.6839,3.5534-2.927C230.2477,415.4435,229.6249,415.3866,229.2225,415.3853Z" style="fill: #f7a2a1"/>
          <path d="M255.6294,394.3928a7.0011,7.0011,0,0,1-2.2559-.0743l-1.305,3.5435a4.0717,4.0717,0,0,1,.8023,1.4882,2.1843,2.1843,0,0,0,1.6207,1.3471c1.83.26,2.9926-1.6714,4.0661-1.7618a5.591,5.591,0,0,0,3.8456-1.7929c1.222-1.3656,1.2344-5.9752.5781-6.6042C261.6813,389.2916,260.5708,393.2561,255.6294,394.3928Z" style="fill: #010080"/>
          <path d="M255.1464,394.3778a5.6833,5.6833,0,0,1-2.07-.6487l-2.4243,3.69a10.5452,10.5452,0,0,1,2.1359,1.674s2.995-2.059,3.1758-3.3331C256.1692,394.3135,255.5476,394.3989,255.1464,394.3778Z" style="fill: #ffb2b2"/>
        </g>
        <g>
          <path d="M500.1691,326.1357l-1.1229-1.2084-3.6339,3.0025a29.7181,29.7181,0,0,1,1.7457,2.5493c.8432,1.5006,1.9414,3.9942,2.3561,4.7531.691,1.2592,1.79,1.24,3.0483.5437,1.09-.603,2.1767-3.6105,1.4141-5.0232C503.4712,329.8191,501.8443,326.1889,500.1691,326.1357Z" style="fill: #010080"/>
          <path d="M499.0462,324.9273,495.411,327.93s.8345,1.0995,1.3843,1.9673c.2785.0732.489-.588,1.2889-1.1279.9979-.6736,2.2644-1.0078,2.3128-1.5712a3.81,3.81,0,0,0-.2266-1.0635C499.5167,325.4164,499.0462,324.9273,499.0462,324.9273Z" style="fill: #ffb2b2"/>
          <path d="M412.107,345.1076s-.9237.9348-1.66,1.5254c-1.4214,1.1366-7.0586,2.5357-7.2319,4.3272-.088.9064,2.0689,1.9353,3.8877,2.1743a5.5911,5.5911,0,0,0,4.0834-1.1478c.8716-.6315,3.7725-.7949,4.2319-1.3136a2.1756,2.1756,0,0,0,.3516-2.0789c.2959-.9794.5843-1.929.5843-1.929Z" style="fill: #010080"/>
          <path d="M410.4455,346.633a5.9937,5.9937,0,0,0,2.0676,1.9773c.7887.452,3.255-.0161,3.255-.0161.2985-.9782.5856-1.9278.5856-1.9278l-4.3532-1.7594A7.6859,7.6859,0,0,1,410.4455,346.633Z" style="fill: #ffb2b2"/>
          <path d="M450.135,261.14c-1.2951,2.51-15.1969,8.9492-17.05,8.2906.4136.7143,23.1284,37.6441,23.1284,37.6441l37.4535,21.7008c3.0272.4729,6.8977-3.192,6.8877-3.3728l-32.8353-25.9611S451.0512,262.7768,450.135,261.14Z" style="fill: url(#aw)"/>
          <path d="M427.3954,254.3067c-.333,1.67-15.93,90.0828-15.93,90.0828,1.243,3.8394,7.0846,2.709,7.1959,2.5754,0,0,25.7854-81.728,26.61-85.55C442.6914,262.18,428.3265,256.1627,427.3954,254.3067Z" style="fill: url(#ax)"/>
          <path d="M452.5,208.37a24.5983,24.5983,0,0,0-9.94-1.5217,21.2068,21.2068,0,0,0-7.9762,1.41c-6.1262,2.459-7.3148,7.591-7.8423,10.7743-1.456,8.8329-5.69,56.9542-5.69,56.9542,13.82,15.3713,44.2954,13.1389,44.2954,13.1389,0-26.1839-3.1078-66.6412-4.0784-70.0151C459.5176,213.0174,456.4941,209.927,452.5,208.37Z" style="fill: url(#ay)"/>
          <path d="M440.0677,202.554c-.0185.3455.7058,4.06-.489,5.9641.27,1.8534,6.14,2.88,8.1815-.1139-.6513-.9249-.6153-5.9331.3567-8.1445C447.5573,200.54,441.62,202.8325,440.0677,202.554Z" style="fill: #ffb2b2"/>
          <path d="M441.9484,209.5482a1.6876,1.6876,0,0,0-1.3619.099,2.6884,2.6884,0,0,0,1.6443.53A.7509.7509,0,0,0,441.9484,209.5482Z" style="fill: #d7e3e3"/>
          <path d="M442.2308,210.1871a4.3326,4.3326,0,0,0,2.2769-.0421,2.4284,2.4284,0,0,0-1.6505-.5274A.9473.9473,0,0,0,442.2308,210.1871Z" style="fill: #d7e3e3"/>
          <path d="M443.0009,187.9379c-3.68-.52-7.3211.0792-8.392,3.5138-.384,1.2307-.6638,12.56,5.2384,14.7065,2.4949.9063,7.705-3.0953,8.121-6.0482,0,0,.57-4.0252.5744-4.0661C449.0962,192.129,446.9555,188.4975,443.0009,187.9379Z" style="fill: #ffb2b2"/>
          <path d="M450.8433,182.7675c-5.3-4.8386-15.1214-1.2754-18.0447,4.3136-2.1816,4.1675-3.69,1.0449-3.4258-.083-.7751,2.8218.2463,5.3908,5.8118,5.3908,1.1687,0-1.2988,1.3434-1.2988,1.3434s7.4486.79,12.9223-1.7779c2.2919,3.5732.8617,9.7874.8617,9.7874,2.4318,1.5118,4.5453-1.2592,4.5453-1.2592s-2.9938.2675-1.2555-2.0255C454.3372,194.0059,455.5245,187.04,450.8433,182.7675Z" style="fill: #010080"/>
          <path d="M447.7974,193.5986a2.41,2.41,0,0,0-1.0623.0891,6.9632,6.9632,0,0,1,.3442,6.24c1.0574-.1585,2.2831-2.6087,2.4057-3.6425C449.615,195.1908,448.8919,193.73,447.7974,193.5986Z" style="fill: #ffb2b2"/>
          <path d="M447.3269,205.866c-.5893,3.4582-4.47,3.7516-4.47,3.7516,2.0269.2649,3.5783,4.5291,3.5783,4.5291,1.5154-1.2332,3.8084-5.641,2.8811-6.74A5.8064,5.8064,0,0,0,447.3269,205.866Z" style="fill: #feffff"/>
          <path d="M440.2051,206.4628a2.8707,2.8707,0,0,0-1.6318.6686c-.967.7008-1.165,3.9632-.44,5.3611,0,0,1.5687-3.44,3.8147-2.9443C441.9484,209.5482,439.6245,208.6345,440.2051,206.4628Z" style="fill: #feffff"/>
          <g>
            <path d="M399.0645,224.9122c-.2439-.3751-.4024-.8531-.8592-.4618-.317.2278.3664,1.7853.6784,2.0108.915.3144,1.0945-.22,1.9092.1967A8.139,8.139,0,0,1,399.0645,224.9122Z" style="fill: #ffb2b2"/>
            <path d="M401.5507,227.0331c-.0446-.0284-.0879-.0421-.1324-.0694a20.21,20.21,0,0,0-2.6311-1.1044c-1.076-.3838-3.5757-.9632-3.7541-1.0028a14.27,14.27,0,0,0-2.184-.4309,4.8854,4.8854,0,0,0-1.097.6909,1.2361,1.2361,0,0,0,.1052.7256c-.37.42.842,1.1291.7293,1.2109-.4618.3367-.1412,1.07,1.8274,1.4783.119.0247,3.9584,1.768,5.4912,2.2707a8.5027,8.5027,0,0,1,1.88-2.605,8.9378,8.9378,0,0,1,.7008-.6178c-.1486-.0991-.2959-.1821-.4445-.2674C401.8776,227.2152,401.7142,227.1149,401.5507,227.0331Z" style="fill: #ffb2b2"/>
            <path d="M453.1821,212.9654a4.1418,4.1418,0,0,0-1.814.3839c-5.5962,2.8278-16.5921,10.9327-24.6289,14.9108-9.858,4.882-2.9343,10.0153.5287,9.5014,9.1189-1.3544,30.3379-15.4977,30.1251-20.2966C457.2394,214.003,455.0182,212.9654,453.1821,212.9654Z" style="fill: url(#az)"/>
            <path d="M427.9675,229.715c-6.0248-1.32-19.3112-1.9724-28.0685-3.8841a22.5038,22.5038,0,0,1-1.2629,5.2113c10.0412,3.6971,28.8584,9.1,31.4077,5.6681C432.9064,232.8535,429.7492,230.1037,427.9675,229.715Z" style="fill: url(#ba)"/>
          </g>
        </g>
      </g>
    </g>
  </g>
</svg>
