<svg xmlns="http://www.w3.org/2000/svg" xmlns:xlink="http://www.w3.org/1999/xlink" width="603" height="512" viewBox="0 0 603 512">
  <defs>
    <radialGradient id="a" cx="223.8963" cy="437.8204" r="35.0969" gradientUnits="userSpaceOnUse">
      <stop offset="0" stop-color="#cfd1e5"/>
      <stop offset="1" stop-color="#fff"/>
    </radialGradient>
    <linearGradient id="b" x1="483.9659" y1="364.6203" x2="540.078" y2="364.6203" gradientUnits="userSpaceOnUse">
      <stop offset="0.0118" stop-color="#dfe0f1"/>
      <stop offset="0.5677" stop-color="#f4f4fa"/>
      <stop offset="1" stop-color="#fff"/>
    </linearGradient>
    <linearGradient id="c" x1="239.2217" y1="335.3704" x2="380.0988" y2="335.3704" gradientUnits="userSpaceOnUse">
      <stop offset="0" stop-color="#dfe0f1"/>
      <stop offset="1" stop-color="#fff"/>
    </linearGradient>
    <linearGradient id="d" x1="326.3745" y1="325.8194" x2="468.4455" y2="325.8194" xlink:href="#c"/>
    <linearGradient id="e" x1="381.6705" y1="272.0951" x2="500.6802" y2="272.0951" xlink:href="#c"/>
    <linearGradient id="f" x1="314.0079" y1="289.9846" x2="402.5691" y2="289.9846" xlink:href="#c"/>
    <linearGradient id="g" x1="445.7619" y1="341.9367" x2="534.1086" y2="341.9367" xlink:href="#c"/>
    <linearGradient id="h" x1="119.6733" y1="395.0641" x2="306.9589" y2="395.0641" xlink:href="#c"/>
    <linearGradient id="i" x1="231.9149" y1="206.1896" x2="269.6813" y2="206.1896" gradientUnits="userSpaceOnUse">
      <stop offset="0" stop-color="#00b5e2"/>
      <stop offset="0.1105" stop-color="#28c0e6"/>
      <stop offset="0.2358" stop-color="#4dcbeb"/>
      <stop offset="0.3669" stop-color="#6cd4ee"/>
      <stop offset="0.5036" stop-color="#84dbf1"/>
      <stop offset="0.648" stop-color="#95e0f3"/>
      <stop offset="0.8054" stop-color="#9fe3f4"/>
      <stop offset="1" stop-color="#a2e4f4"/>
    </linearGradient>
    <linearGradient id="j" x1="214.2227" y1="199.6692" x2="240.5634" y2="199.6692" gradientUnits="userSpaceOnUse">
      <stop offset="0" stop-color="#00b5e2"/>
      <stop offset="0.1182" stop-color="#08b7e3"/>
      <stop offset="0.3001" stop-color="#1dbee5"/>
      <stop offset="0.5231" stop-color="#41c8e9"/>
      <stop offset="0.7761" stop-color="#71d6ef"/>
      <stop offset="1" stop-color="#a2e4f4"/>
    </linearGradient>
    <linearGradient id="k" x1="325.9607" y1="428.2005" x2="553.927" y2="428.2005" gradientUnits="userSpaceOnUse">
      <stop offset="0" stop-color="#fff"/>
      <stop offset="0.4323" stop-color="#f4f4fa"/>
      <stop offset="0.9882" stop-color="#dfe0f1"/>
      <stop offset="1" stop-color="#dfe0f1"/>
    </linearGradient>
    <linearGradient id="l" x1="366.3807" y1="156.9544" x2="388.2612" y2="156.9544" gradientUnits="userSpaceOnUse">
      <stop offset="0" stop-color="#083e7f"/>
      <stop offset="0.158" stop-color="#0f488c"/>
      <stop offset="1" stop-color="#357bcf"/>
    </linearGradient>
    <linearGradient id="m" x1="345.4567" y1="173.7573" x2="375.1114" y2="173.7573" gradientUnits="userSpaceOnUse">
      <stop offset="0" stop-color="#005dff"/>
      <stop offset="0.1932" stop-color="#005afb"/>
      <stop offset="0.3815" stop-color="#0150ef"/>
      <stop offset="0.5679" stop-color="#0340dc"/>
      <stop offset="0.7531" stop-color="#0529c0"/>
      <stop offset="0.9358" stop-color="#080c9d"/>
      <stop offset="1" stop-color="#09008f"/>
    </linearGradient>
    <linearGradient id="n" x1="395.2065" y1="116.9124" x2="401.7837" y2="116.9124" gradientUnits="userSpaceOnUse">
      <stop offset="0" stop-color="#cac8d9"/>
      <stop offset="0.401" stop-color="#e6e6ed"/>
      <stop offset="0.753" stop-color="#f9f8fa"/>
      <stop offset="1" stop-color="#fff"/>
    </linearGradient>
    <linearGradient id="o" x1="375.9494" y1="232.2711" x2="418.6573" y2="232.2711" gradientUnits="userSpaceOnUse">
      <stop offset="0" stop-color="#feda66"/>
      <stop offset="0.1607" stop-color="#fed662"/>
      <stop offset="0.335" stop-color="#fdca55"/>
      <stop offset="0.5158" stop-color="#fbb73f"/>
      <stop offset="0.6999" stop-color="#f99c21"/>
      <stop offset="0.7145" stop-color="#f99a1e"/>
      <stop offset="0.8469" stop-color="#dc881b"/>
      <stop offset="1" stop-color="#b67116"/>
    </linearGradient>
    <linearGradient id="p" x1="362.1907" y1="213.2927" x2="414.7212" y2="213.2927" gradientUnits="userSpaceOnUse">
      <stop offset="0" stop-color="#0084a5"/>
      <stop offset="0.3157" stop-color="#009ec5"/>
      <stop offset="0.6351" stop-color="#00b5e2"/>
      <stop offset="1" stop-color="#a2e4f4"/>
    </linearGradient>
    <linearGradient id="q" x1="358.6091" y1="195.5356" x2="375.3233" y2="195.5356" gradientUnits="userSpaceOnUse">
      <stop offset="0" stop-color="#a2e4f4"/>
      <stop offset="0.5044" stop-color="#00b5e2"/>
      <stop offset="0.7536" stop-color="#009ec5"/>
      <stop offset="1" stop-color="#0084a5"/>
    </linearGradient>
    <linearGradient id="r" x1="338.3132" y1="183.7449" x2="356.2214" y2="183.7449" xlink:href="#q"/>
    <linearGradient id="s" x1="383.6805" y1="180.0035" x2="401.5886" y2="180.0035" xlink:href="#q"/>
    <linearGradient id="t" x1="364.5785" y1="168.214" x2="381.2927" y2="168.214" xlink:href="#q"/>
    <linearGradient id="u" x1="399.6337" y1="159.722" x2="416.5254" y2="159.722" gradientUnits="userSpaceOnUse">
      <stop offset="0" stop-color="#357bcf"/>
      <stop offset="1" stop-color="#083e7f"/>
    </linearGradient>
    <linearGradient id="v" x1="399.2825" y1="183.7361" x2="416.5746" y2="183.7361" xlink:href="#u"/>
    <linearGradient id="w" x1="450.0676" y1="295.7284" x2="474.2155" y2="295.7284" xlink:href="#u"/>
    <linearGradient id="x" x1="472.209" y1="316.0236" x2="490.1015" y2="316.0236" xlink:href="#u"/>
    <linearGradient id="y" x1="452.158" y1="249.5572" x2="493.5169" y2="249.5572" gradientUnits="userSpaceOnUse">
      <stop offset="0" stop-color="#fed42f"/>
      <stop offset="1" stop-color="#f99a1e"/>
    </linearGradient>
    <linearGradient id="z" x1="419.7509" y1="368.8071" x2="472.5752" y2="368.8071" gradientUnits="userSpaceOnUse">
      <stop offset="0" stop-color="#295959"/>
      <stop offset="0.2306" stop-color="#387979"/>
      <stop offset="0.569" stop-color="#4aa1a1"/>
      <stop offset="0.8373" stop-color="#56baba"/>
      <stop offset="1" stop-color="#5ac3c3"/>
    </linearGradient>
    <linearGradient id="aa" x1="415.5246" y1="350.8402" x2="433.1389" y2="350.8402" gradientUnits="userSpaceOnUse">
      <stop offset="0" stop-color="#5ac3c3"/>
      <stop offset="0.1627" stop-color="#56baba"/>
      <stop offset="0.431" stop-color="#4aa1a1"/>
      <stop offset="0.7694" stop-color="#387979"/>
      <stop offset="1" stop-color="#295959"/>
    </linearGradient>
    <linearGradient id="ab" x1="396.1719" y1="339.2658" x2="413.785" y2="339.2658" xlink:href="#aa"/>
    <linearGradient id="ac" x1="440.9678" y1="335.2108" x2="458.5821" y2="335.2108" xlink:href="#aa"/>
    <linearGradient id="ad" x1="421.6139" y1="323.6358" x2="439.2294" y2="323.6358" gradientUnits="userSpaceOnUse">
      <stop offset="0" stop-color="#69be55"/>
      <stop offset="0.3649" stop-color="#22af85"/>
      <stop offset="0.5794" stop-color="#1d926f"/>
      <stop offset="1" stop-color="#10503d"/>
    </linearGradient>
    <linearGradient id="ae" x1="427.8538" y1="298.9579" x2="481.5781" y2="298.9579" gradientUnits="userSpaceOnUse">
      <stop offset="0" stop-color="#10503d"/>
      <stop offset="0.4206" stop-color="#1d926f"/>
      <stop offset="0.6351" stop-color="#22af85"/>
      <stop offset="1" stop-color="#69be55"/>
    </linearGradient>
    <linearGradient id="af" x1="424.2722" y1="280.6714" x2="442.1803" y2="280.6714" xlink:href="#ad"/>
    <linearGradient id="ag" x1="449.3436" y1="265.1405" x2="467.2517" y2="265.1405" xlink:href="#ad"/>
    <linearGradient id="ah" x1="430.2416" y1="253.351" x2="448.1497" y2="253.351" xlink:href="#ad"/>
    <linearGradient id="ai" x1="405.1702" y1="268.8819" x2="421.8844" y2="268.8819" xlink:href="#ad"/>
    <linearGradient id="aj" x1="163.3429" y1="181.4849" x2="180.8215" y2="181.4849" gradientUnits="userSpaceOnUse">
      <stop offset="0" stop-color="#ff655e"/>
      <stop offset="0.453" stop-color="#fea162"/>
      <stop offset="0.8145" stop-color="#feca65"/>
      <stop offset="1" stop-color="#feda66"/>
    </linearGradient>
    <linearGradient id="ak" x1="206.911" y1="193.3443" x2="219.7291" y2="193.3443" xlink:href="#aj"/>
    <linearGradient id="al" x1="187.3371" y1="222.0899" x2="240.8831" y2="222.0899" xlink:href="#ae"/>
    <linearGradient id="am" x1="178.713" y1="209.1234" x2="197.3886" y2="209.1234" xlink:href="#ad"/>
    <linearGradient id="an" x1="157.1329" y1="202.5818" x2="175.8081" y2="202.5818" xlink:href="#ad"/>
    <linearGradient id="ao" x1="199.6127" y1="187.7957" x2="218.2885" y2="187.7957" xlink:href="#ad"/>
    <linearGradient id="ap" x1="178.0315" y1="181.2548" x2="196.7078" y2="181.2548" xlink:href="#ad"/>
    <linearGradient id="aq" x1="181.869" y1="184.9121" x2="212.1917" y2="184.9121" xlink:href="#aj"/>
    <linearGradient id="ar" x1="209.1383" y1="221.8332" x2="221.9566" y2="221.8332" xlink:href="#aj"/>
    <linearGradient id="as" x1="162.7094" y1="192.58" x2="182.5056" y2="192.58" xlink:href="#aj"/>
    <linearGradient id="at" x1="162.6834" y1="237.9588" x2="176.0041" y2="237.9588" xlink:href="#aj"/>
    <linearGradient id="au" x1="182.9755" y1="169.9" x2="209.6732" y2="169.9" xlink:href="#aj"/>
    <linearGradient id="av" x1="174.113" y1="164.8156" x2="187.8041" y2="164.8156" gradientUnits="userSpaceOnUse">
      <stop offset="0" stop-color="#a2e4f4"/>
      <stop offset="0.0028" stop-color="#a1e4f4"/>
      <stop offset="0.2009" stop-color="#5cd0ec"/>
      <stop offset="0.3666" stop-color="#2ac1e7"/>
      <stop offset="0.4917" stop-color="#0cb8e3"/>
      <stop offset="0.5615" stop-color="#00b5e2"/>
      <stop offset="0.7821" stop-color="#009ec5"/>
      <stop offset="1" stop-color="#0084a5"/>
    </linearGradient>
    <radialGradient id="aw" cx="178.5983" cy="158.6574" r="2.5" gradientUnits="userSpaceOnUse">
      <stop offset="0" stop-color="#00b5e2"/>
      <stop offset="0.005" stop-color="#01b5e2"/>
      <stop offset="0.3578" stop-color="#46c9ea"/>
      <stop offset="0.6529" stop-color="#78d8ef"/>
      <stop offset="0.8755" stop-color="#96e1f3"/>
      <stop offset="1" stop-color="#a2e4f4"/>
    </radialGradient>
    <linearGradient id="ax" x1="161.2362" y1="125.3861" x2="180.8223" y2="125.3861" gradientUnits="userSpaceOnUse">
      <stop offset="0" stop-color="#fff"/>
      <stop offset="0.4991" stop-color="#f1f0f5"/>
      <stop offset="1" stop-color="#dedce9"/>
    </linearGradient>
    <linearGradient id="ay" x1="159.2181" y1="136.0529" x2="166.4303" y2="136.0529" gradientUnits="userSpaceOnUse">
      <stop offset="0" stop-color="#a2e4f4"/>
      <stop offset="0.0191" stop-color="#9ee3f4"/>
      <stop offset="0.3658" stop-color="#5bcfec"/>
      <stop offset="0.6563" stop-color="#2ac1e7"/>
      <stop offset="0.8762" stop-color="#0bb8e3"/>
      <stop offset="1" stop-color="#00b5e2"/>
    </linearGradient>
    <linearGradient id="az" x1="165.0866" y1="126.7369" x2="195.2396" y2="126.7369" gradientUnits="userSpaceOnUse">
      <stop offset="0" stop-color="#a2e4f4"/>
      <stop offset="1" stop-color="#00b5e2"/>
    </linearGradient>
    <linearGradient id="ba" x1="116.1908" y1="119.4622" x2="123.4041" y2="119.4622" gradientUnits="userSpaceOnUse">
      <stop offset="0" stop-color="#a2e4f4"/>
      <stop offset="0.5615" stop-color="#00b5e2"/>
      <stop offset="0.7821" stop-color="#009ec5"/>
      <stop offset="1" stop-color="#0084a5"/>
    </linearGradient>
    <linearGradient id="bb" x1="122.055" y1="110.1464" x2="152.2128" y2="110.1464" gradientUnits="userSpaceOnUse">
      <stop offset="0" stop-color="#cb19ff"/>
      <stop offset="0.1369" stop-color="#aa15ec"/>
      <stop offset="0.4427" stop-color="#660cc4"/>
      <stop offset="0.6987" stop-color="#3305a8"/>
      <stop offset="0.892" stop-color="#150196"/>
      <stop offset="1" stop-color="#09008f"/>
    </linearGradient>
    <linearGradient id="bc" x1="134.8778" y1="139.3705" x2="139.845" y2="139.3705" xlink:href="#ba"/>
    <linearGradient id="bd" x1="122.7536" y1="138.021" x2="131.1563" y2="138.021" xlink:href="#ba"/>
    <radialGradient id="be" cx="124.8788" cy="139.0779" r="3.458" xlink:href="#aw"/>
    <linearGradient id="bf" x1="54.4213" y1="103.4359" x2="259.3847" y2="103.4359" gradientUnits="userSpaceOnUse">
      <stop offset="0" stop-color="#fed42f"/>
      <stop offset="0.2546" stop-color="#fdcb2c"/>
      <stop offset="0.673" stop-color="#fbb225"/>
      <stop offset="1" stop-color="#f99a1e"/>
    </linearGradient>
    <radialGradient id="bg" cx="156.8992" cy="105.0722" r="18.4996" xlink:href="#aw"/>
    <linearGradient id="bh" x1="146.4347" y1="174.4305" x2="162.882" y2="174.4305" xlink:href="#ba"/>
    <linearGradient id="bi" x1="125.824" y1="165.2636" x2="180.3539" y2="165.2636" gradientUnits="userSpaceOnUse">
      <stop offset="0" stop-color="#f99a1e"/>
      <stop offset="0.0172" stop-color="#f99b1e"/>
      <stop offset="0.6658" stop-color="#fdc42a"/>
      <stop offset="1" stop-color="#fed42f"/>
    </linearGradient>
    <radialGradient id="bj" cx="153.475" cy="165.3661" r="3.3145" xlink:href="#aw"/>
    <linearGradient id="bk" x1="113.4408" y1="163.1704" x2="122.1497" y2="163.1704" gradientUnits="userSpaceOnUse">
      <stop offset="0" stop-color="#a2e4f4"/>
      <stop offset="0.1537" stop-color="#90dff2"/>
      <stop offset="0.4639" stop-color="#60d1ed"/>
      <stop offset="0.8985" stop-color="#13bae4"/>
      <stop offset="1" stop-color="#00b5e2"/>
    </linearGradient>
    <linearGradient id="bl" x1="246.7195" y1="99.2165" x2="263.1673" y2="99.2165" xlink:href="#ba"/>
    <linearGradient id="bm" x1="226.1096" y1="90.0495" x2="280.6395" y2="90.0495" xlink:href="#bi"/>
    <radialGradient id="bn" cx="253.7604" cy="90.152" r="3.3145" xlink:href="#aw"/>
    <linearGradient id="bo" x1="213.7264" y1="87.9563" x2="222.4352" y2="87.9563" xlink:href="#bk"/>
    <linearGradient id="bp" x1="152.4041" y1="37.135" x2="168.8513" y2="37.135" xlink:href="#ba"/>
    <linearGradient id="bq" x1="131.7934" y1="27.968" x2="186.3235" y2="27.968" xlink:href="#bi"/>
    <radialGradient id="br" cx="159.4443" cy="28.0706" r="3.3145" xlink:href="#aw"/>
    <linearGradient id="bs" x1="119.4101" y1="25.8748" x2="128.1191" y2="25.8748" xlink:href="#bk"/>
    <linearGradient id="bt" x1="49.7309" y1="106.3797" x2="66.1781" y2="106.3797" xlink:href="#ba"/>
    <linearGradient id="bu" x1="29.1202" y1="97.2127" x2="83.6501" y2="97.2127" xlink:href="#bi"/>
    <radialGradient id="bv" cx="56.7711" cy="97.3153" r="3.3145" xlink:href="#aw"/>
    <linearGradient id="bw" x1="16.7369" y1="95.1196" x2="25.4459" y2="95.1196" xlink:href="#bk"/>
    <linearGradient id="bx" x1="257.9902" y1="419.5386" x2="439.5606" y2="419.5386" xlink:href="#c"/>
    <linearGradient id="by" x1="550.0755" y1="375.1455" x2="550.8229" y2="375.1455" xlink:href="#c"/>
    <linearGradient id="bz" x1="419.3719" y1="390.2886" x2="544.1061" y2="390.2886" xlink:href="#c"/>
    <linearGradient id="ca" x1="213.1838" y1="369.2752" x2="247.9421" y2="369.2752" gradientUnits="userSpaceOnUse">
      <stop offset="0" stop-color="#ffca71"/>
      <stop offset="0.8392" stop-color="#ff655e"/>
      <stop offset="1" stop-color="#ff655e"/>
    </linearGradient>
    <linearGradient id="cb" x1="183.3084" y1="398.264" x2="244.3108" y2="398.264" xlink:href="#o"/>
    <linearGradient id="cc" x1="195.7817" y1="398.3526" x2="227.4625" y2="398.3526" gradientUnits="userSpaceOnUse">
      <stop offset="0" stop-color="#a2e4f4"/>
      <stop offset="0.7933" stop-color="#15bbe4"/>
      <stop offset="1" stop-color="#00b5e2"/>
    </linearGradient>
    <linearGradient id="cd" x1="258.3237" y1="398.5112" x2="310.8541" y2="398.5112" xlink:href="#ae"/>
    <linearGradient id="ce" x1="254.742" y1="380.6695" x2="271.4563" y2="380.6695" xlink:href="#ad"/>
    <linearGradient id="cf" x1="234.4462" y1="368.8794" x2="252.3543" y2="368.8794" xlink:href="#ad"/>
    <linearGradient id="cg" x1="279.8134" y1="365.138" x2="297.7215" y2="365.138" xlink:href="#ad"/>
    <linearGradient id="ch" x1="260.7114" y1="353.3485" x2="277.4256" y2="353.3485" xlink:href="#ad"/>
    <linearGradient id="ci" x1="202.4693" y1="378.717" x2="233.1868" y2="378.717" gradientUnits="userSpaceOnUse">
      <stop offset="0" stop-color="#f99a1e"/>
      <stop offset="1" stop-color="#fed42f"/>
    </linearGradient>
    <linearGradient id="cj" x1="224.2355" y1="388.6796" x2="254.9309" y2="388.6796" xlink:href="#bi"/>
    <linearGradient id="ck" x1="194.0293" y1="361.3288" x2="222.7849" y2="361.3288" xlink:href="#u"/>
    <linearGradient id="cl" x1="263.801" y1="282.7654" x2="327.334" y2="282.7654" xlink:href="#aj"/>
    <linearGradient id="cm" x1="243.4422" y1="288.2129" x2="275.2757" y2="288.2129" xlink:href="#aj"/>
    <linearGradient id="cn" x1="252.4685" y1="238.5508" x2="294.1807" y2="238.5508" gradientUnits="userSpaceOnUse">
      <stop offset="0" stop-color="#00b5e2"/>
      <stop offset="1" stop-color="#a2e4f4"/>
    </linearGradient>
    <linearGradient id="co" x1="253.0423" y1="217.228" x2="286.6924" y2="217.228" gradientUnits="userSpaceOnUse">
      <stop offset="0" stop-color="#00b5e2"/>
      <stop offset="0.0519" stop-color="#1bbde5"/>
      <stop offset="0.1333" stop-color="#3fc7e9"/>
      <stop offset="0.2224" stop-color="#5ed0ec"/>
      <stop offset="0.3193" stop-color="#77d7ef"/>
      <stop offset="0.4271" stop-color="#8addf1"/>
      <stop offset="0.5517" stop-color="#98e1f3"/>
      <stop offset="0.7084" stop-color="#a0e3f4"/>
      <stop offset="1" stop-color="#a2e4f4"/>
    </linearGradient>
    <linearGradient id="cp" x1="231.3612" y1="223.2893" x2="262.0212" y2="223.2893" gradientUnits="userSpaceOnUse">
      <stop offset="0" stop-color="#a2e4f4"/>
      <stop offset="0.2916" stop-color="#a0e3f4"/>
      <stop offset="0.4483" stop-color="#98e1f3"/>
      <stop offset="0.5729" stop-color="#8addf1"/>
      <stop offset="0.6807" stop-color="#77d7ef"/>
      <stop offset="0.7776" stop-color="#5ed0ec"/>
      <stop offset="0.8667" stop-color="#3fc7e9"/>
      <stop offset="0.9481" stop-color="#1bbde5"/>
      <stop offset="1" stop-color="#00b5e2"/>
    </linearGradient>
    <linearGradient id="cq" x1="119.8342" y1="374.1574" x2="173.5585" y2="374.1574" xlink:href="#z"/>
    <linearGradient id="cr" x1="116.2526" y1="355.8855" x2="134.1607" y2="355.8855" xlink:href="#aa"/>
    <linearGradient id="cs" x1="141.324" y1="340.3546" x2="159.2321" y2="340.3546" xlink:href="#aa"/>
    <linearGradient id="ct" x1="122.222" y1="328.5651" x2="140.1301" y2="328.5651" xlink:href="#aa"/>
    <linearGradient id="cu" x1="97.1506" y1="344.096" x2="113.8649" y2="344.096" xlink:href="#aa"/>
  </defs>
  <g style="isolation: isolate">
    <g>
      <path d="M21.3508,319.6746C-88.3118,478.27,277.68,563.3235,428.1751,440.2093c20.5731-16.83,43.7312-24.27,63.7224-16.4742,36.4816,14.2261,78.1356.0323,96.2011-34.7086,35.4028-68.0814,1.0334-140.3044-45.9824-140.3765-63.4053-.0971-122.6118-147.4384-122.6118-147.4384-34.94-65.7868-116.1863-83.3011-182.9324-12.2175,0,0-36.8546,79.0636-93.3915,138.6129C98.6276,274.5337,33.6013,301.9579,21.3508,319.6746Z" style="fill: #eef7f9"/>
      <path d="M223.8855,421.5544c-24.3986,0-44.473,6.4078-46.8927,14.6086a5.885,5.885,0,0,0-.2473,1.658c0,8.9843,21.1057,16.2653,47.14,16.2653s47.1615-7.281,47.1615-16.2653a5.9565,5.9565,0,0,0-.2459-1.658C268.3818,427.9622,248.2842,421.5544,223.8855,421.5544Z" style="mix-blend-mode: multiply;fill: url(#a)"/>
      <rect x="483.9659" y="361.0387" width="56.1121" height="7.1632" style="mix-blend-mode: multiply;fill: url(#b)"/>
      <rect x="239.2217" y="333.5796" width="140.8772" height="3.5816" style="mix-blend-mode: multiply;fill: url(#c)"/>
      <path d="M326.3745,325.8218v.0408c0,1.1262,1.4119,1.7476,2.537,1.7476h139.534v-3.5816H328.9115C327.7864,324.0286,326.3745,324.6955,326.3745,325.8218Z" style="mix-blend-mode: multiply;fill: url(#d)"/>
      <polygon points="381.67 276.274 500.68 276.274 500.68 267.917 389.187 267.917 381.67 276.274" style="mix-blend-mode: multiply;fill: url(#e)"/>
      <polygon points="314.008 295.295 349.776 315.891 402.569 284.673 402.569 284.673 366.798 264.078 314.008 295.295" style="mix-blend-mode: multiply;fill: url(#f)"/>
      <path d="M404.8006,284.97s-.1131,1.2941-.2787,2.2478c.1482.2273.7124-.1014,1.6113.0291,1.1228.161,2.2176.7288,2.6081.3673a3.5714,3.5714,0,0,0,.5142-.886c0-.9142-.0186-1.553-.0186-1.553Z" style="fill: #ffb2b2"/>
      <rect x="445.7619" y="338.3551" width="88.3467" height="7.1632" style="mix-blend-mode: multiply;fill: url(#g)"/>
      <path d="M165.437,161.6687l.0035.014-.0012-.014Z" style="fill: #616161"/>
      <polygon points="119.673 411.181 253.968 411.181 306.959 378.947 172.665 378.947 119.673 411.181" style="mix-blend-mode: multiply;fill: url(#h)"/>
      <g>
        <path d="M216.7678,186.5268c-.3638.0489-.4815,1.6474-.3207,1.9738.6226.6634,1.0074.2961,1.5006,1.0038a7.7208,7.7208,0,0,1-.6681-2.214C217.2422,186.8707,217.3216,186.402,216.7678,186.5268Z" style="fill: #ffb2b2"/>
        <path d="M218.611,189.7551c-.0257-.042-.0559-.0735-.08-.1166a18.9878,18.9878,0,0,0-1.7022-2.0776c-.7287-.7929-2.5533-2.3762-2.6828-2.488a13.462,13.462,0,0,0-1.6288-1.3221,4.6728,4.6728,0,0,0-1.2171.0932,1.1623,1.1623,0,0,0-.2332.65c-.492.1866.2041,1.3106.0758,1.3292-.534.0758-.7.6331.344,2.481.668,1.1857,3.0406,2.77,4.0945,3.8638a8.7585,8.7585,0,0,1,3.5677-1.546c-.0805-.1481-.1667-.2833-.253-.4174C218.8022,190.0512,218.71,189.8961,218.611,189.7551Z" style="fill: #ffb2b2"/>
        <path d="M265.9031,200.71c-.1713-.0048-.3462-.0048-.5281-.0048-2.8728,0-7.1049.3965-11.6333.7928a142.3629,142.3629,0,0,1-14.9048.7707c-10.3543-.2821-6.8543,7.0409-3.7471,8.1391,8.188,2.8915,32.0771.47,34.0149-3.619C271.0412,202.7035,267.6205,200.7425,265.9031,200.71Z" style="fill: url(#i)"/>
        <path d="M239.2182,204.0186c-4.4339-3.7495-15.2021-10.148-21.6495-15.5973a21.1518,21.1518,0,0,1-3.346,3.78c6.7271,7.5026,20.0078,20.2888,23.6407,18.5564C241.9452,208.8082,240.53,205.1285,239.2182,204.0186Z" style="fill: url(#j)"/>
      </g>
      <g style="mix-blend-mode: multiply">
        <rect x="370.8055" y="427.7056" width="1.3093" height="0.9898" style="fill: url(#k)"/>
      </g>
      <g>
        <path d="M414.923,121.9047c0-15.9039-14.8046-10.8987-15.7349-6.7819.15,1.0155.93,1.4165,2.0379,2.2163,2.2117-1.11,5.37-1.1612,4.9795,5.65-.1516,2.6617-3.3357,4.33.3463,9.6933,4.3826,6.3844.9455,7.7788.9455,7.7788,4.9644.7975,14.1318-4.7731,7.8966-12.6382C414.1313,126.23,414.923,126.6978,414.923,121.9047Z" style="fill: #010080"/>
        <path d="M409.2369,285.1753l-4.4351-.2064a27.8366,27.8366,0,0,1-.3941,2.8833c-.3626,1.5809-1.1752,4.0152-1.3652,4.8058-.3148,1.3139.4651,1.9971,1.7815,2.3073,1.1425.27,3.8031-1.1415,4.1645-2.6081.239-.9713,1.4-4.5319.267-5.6289Z" style="fill: #010080"/>
        <path d="M381.4652,269.1407l-3.7949-1.1075s-.7812.9607-1.419,1.5809c-1.2276,1.1951-6.3843,3.0173-6.3843,4.7136,0,.8558,2.1149,1.6242,3.84,1.6825a5.256,5.256,0,0,0,3.7239-1.4457c.76-.67,3.4651-1.0889,3.8475-1.6159a2.0457,2.0457,0,0,0,.14-1.98A5.7832,5.7832,0,0,0,381.4652,269.1407Z" style="fill: #010080"/>
        <path d="M376.2513,269.6141a5.641,5.641,0,0,0,2.1174,1.6648c.7787.3521,3.05-.31,3.05-.31.19-.9456.27-1.5868.27-1.5868l-4.1366-1.5262A7.2549,7.2549,0,0,1,376.2513,269.6141Z" style="fill: #ffb2b2"/>
        <path d="M398.4733,225.0909c.098,1.117,6.4288,59.82,6.4288,59.82a6.6245,6.6245,0,0,0,4.3674.7905s1.04-59.8464.8546-62.4172C408.6527,224.4159,399.3956,226,398.4733,225.0909Z" style="fill: #ffb2b2"/>
        <path d="M377.176,208.4467c-.0175,1.1216.1958,60.1636.1958,60.1636a6.6289,6.6289,0,0,0,4.2614,1.2381s7.2367-59.4174,7.3182-61.994C387.3705,208.829,377.9991,209.4447,377.176,208.4467Z" style="fill: #ffb2b2"/>
        <path d="M409.2077,149.43c-1.6463-5.7374-3.4312-8.6474-7.1912-10.1141a23.1785,23.1785,0,0,0-9.361-1.434,19.945,19.945,0,0,0-7.5106,1.329c-5.7689,2.3144-5.8319,7.1481-6.32,10.1457-.53,3.1748,1.01,13.8531.8477,20.5966,5.173,1.8911,23.8,2.6,28.2752.7789C407.797,162.2726,409.6333,150.8749,409.2077,149.43Z" style="fill: #357bcf"/>
        <path d="M397.6852,131.8591c-.527.2635-5.9146,2.2468-7.3778,1.9844-.0175.3265.6657,3.8218-.4606,5.6173.2554,1.7442,6.1186,2.0263,8.0413-.7928C397.2736,137.7982,397.248,133.4285,397.6852,131.8591Z" style="fill: #ffb2b2"/>
        <path d="M393.0705,120.0813c-3.4661-.49-6.8951.0734-7.9035,3.3076-.3614,1.1577-.6237,11.8269,4.9329,13.8473,2.35.8558,7.2553-2.9135,7.6482-5.6942,0,0,.5363-3.79.541-3.8287C398.8091,124.0267,396.7933,120.6071,393.0705,120.0813Z" style="fill: #ffb2b2"/>
        <path d="M407.9707,170.7347c-3.2144.5864-22.4877,1.8351-28.2927-1.6125,0,0-.1411,4.0049-.2379,6.13-.0326.7193-1.0015,2.6735-1.4469,4.6263,5.6266,4.4164,27.2306,4.3173,31.5327,2.3865-.2972-2.0507-1.5518-3.91-1.5518-5.61C407.9741,175.2036,407.9707,171.8913,407.9707,170.7347Z" style="fill: #ffb2b2"/>
        <path d="M387.8287,116.7387c-5.5334.7264-5.1346,9.6244-2.7142,11.1343-.759-6.7062,2.8763-7.4792,2.8763-7.4792,7.4069.48,11.1832,9.8343,9.38,12.2885,0,0,8.7874-7.5865,2.2769-15.2615C395.3231,112.3234,387.8287,116.7387,387.8287,116.7387Z" style="fill: #010080"/>
        <path d="M397.4509,125.2928a3.3969,3.3969,0,0,0-1.7384.3055c1.0353,1.7349,2.0182,3.922,1.1985,5.7723.9957-.148,2.1487-2.4565,2.2654-3.43C399.3,126.91,398.4815,125.4153,397.4509,125.2928Z" style="fill: #ffb2b2"/>
        <g>
          <path d="M343.42,176.3427c-.1456.3357,1.159,1.2661,1.52,1.2964.8908-.1877.7777-.7088,1.6381-.7624a7.6928,7.6928,0,0,1-2.2421-.5771C343.96,176.1141,343.5994,175.8052,343.42,176.3427Z" style="fill: #ffb2b2"/>
          <path d="M347.371,176.8124c-.0489-.001-.092.0083-.1409.0071a19.1,19.1,0,0,0-2.6583.3789c-1.0564.2122-3.3578.9514-3.5187,1.0026a13.5116,13.5116,0,0,0-1.9751.709,4.6106,4.6106,0,0,0-.5514,1.09,1.1577,1.1577,0,0,0,.4349.5351c-.0956.5165,1.2265.5049,1.1751.625-.2109.4954.4035.9338,2.192.3124.1072-.0374,4.0526-.4851,5.5356-.8185a7.9775,7.9775,0,0,1,.2589-3.015,8.1183,8.1183,0,0,1,.2681-.837c-.1678-.0071-.3276-.0047-.4885,0C347.7231,176.8021,347.5437,176.8,347.371,176.8124Z" style="fill: #ffb2b2"/>
          <path d="M384.3823,139.8887a4.2514,4.2514,0,0,0-3.3612,1.7908c-3.1573,4.9876-8.1251,16.8507-12.699,23.9509-5.61,8.7093,2.4682,9.5137,5.0192,7.4244,6.7155-5.5006,17.03-27.1851,14.54-30.9614A4.1907,4.1907,0,0,0,384.3823,139.8887Z" style="fill: url(#l)"/>
          <path d="M371.1086,166.0536a3.5208,3.5208,0,0,0-1.0912.1585c-5.5054,1.8469-16.56,7.7381-24.5607,10.4266a21.1649,21.1649,0,0,1,1.4958,4.8222c9.9032-1.8642,27.7226-6.5908,28.1225-10.5979C375.4435,167.1927,372.9309,166.0536,371.1086,166.0536Z" style="fill: url(#m)"/>
        </g>
        <path d="M399.6906,114.6319a3.239,3.239,0,0,0-1.904-.6366,4.1912,4.1912,0,0,0-2.58,1.0365,17.217,17.217,0,0,1,6.0149,4.7977C402.1086,118.2124,402.18,116.3971,399.6906,114.6319Z" style="fill: url(#n)"/>
        <path d="M411.7563,198.357c-.35-5.5788-1.2416-8.6882-2.2723-16.0788-4.3872,1.9225-25.85,1.9878-31.4908-2.3982a207.5212,207.5212,0,0,0-2.0438,21.3312c0,35.8605.6972,65.4346.7229,65.4368,1.8176,3.3368,7.028,1.2744,7.1061,1.131,0,0,4.3791-37.438,7.2647-62.2936a9.6245,9.6245,0,0,0,3.8684.816c2.4449,21.4909,8.8736,77.6426,8.8736,77.6426,2.3948,1.6113,7.1551.03,7.2216-.1282,0,0,1.1379-81.8538.8709-85.5357A1.4187,1.4187,0,0,1,411.7563,198.357Z" style="fill: url(#o)"/>
      </g>
      <g>
        <g>
          <polygon points="326.505 187.876 362.273 208.472 415.067 177.254 379.297 156.659 326.505 187.876" style="fill: #a2e4f4"/>
          <polygon points="326.505 228.694 362.273 249.331 362.273 208.472 326.505 187.877 326.505 228.694" style="fill: #00b5e2"/>
          <polygon points="362.191 249.331 414.721 218.121 414.721 177.254 362.191 208.472 362.191 249.331" style="fill: url(#p)"/>
          <path d="M358.6091,195.8212c0,2.7248,3.2494,4.9352,8.3559,4.9352,5.109,0,8.3583-2.21,8.3583-4.9352v-5.5065H358.6091Z" style="fill: url(#q)"/>
          <path d="M338.3132,184.4223c0,2.5918,4.0959,4.6916,8.9541,4.6916s8.9541-2.0987,8.9541-4.6905v-6.0475H338.3132Z" style="fill: url(#r)"/>
          <path d="M383.6805,180.5212c0,2.5906,4.0958,4.6916,8.954,4.6916s8.9541-2.1,8.9541-4.6916v-5.7269H383.6805Z" style="fill: url(#s)"/>
          <path d="M364.5785,168.8785c0,2.593,3.4989,4.694,8.3571,4.694s8.3571-2.101,8.3571-4.694v-6.0229H364.5785Z" style="fill: url(#t)"/>
          <path d="M372.9356,158.1373c-4.6158,0-8.3571,1.9948-8.3571,4.4572s3.7413,4.4583,8.3571,4.4583,8.3571-1.996,8.3571-4.4583S377.5514,158.1373,372.9356,158.1373Z" style="fill: #00b5e2"/>
          <path d="M366.9092,185.29c-4.6461,0-8.4143,2.0089-8.4143,4.4887s3.7682,4.4875,8.4143,4.4875,8.4141-2.0088,8.4141-4.4875S371.5563,185.29,366.9092,185.29Z" style="fill: #00b5e2"/>
          <path d="M392.5984,169.4405c-4.9644,0-8.9891,2.1453-8.9891,4.7942s4.0247,4.7964,8.9891,4.7964,8.99-2.1475,8.99-4.7964S397.5639,169.4405,392.5984,169.4405Z" style="fill: #00b5e2"/>
          <path d="M347.2673,173.4454c-4.8582,0-8.7967,2.1-8.7967,4.6915s3.9385,4.6928,8.7967,4.6928,8.7967-2.101,8.7967-4.6928S352.1255,173.4454,347.2673,173.4454Z" style="fill: #00b5e2"/>
        </g>
        <g>
          <path d="M397.6327,197.2331c.1341.34,1.7139.0746,1.9926-.1586.4966-.7624.0489-1.05.6179-1.6974a7.74,7.74,0,0,1-1.9926,1.1775C397.8531,196.69,397.38,196.7259,397.6327,197.2331Z" style="fill: #ffb2b2"/>
          <path d="M401.8754,194.8244a8.2372,8.2372,0,0,1-.4035-.7823c-.1246.113-.2342.23-.345.3451-.1271.1271-.2542.253-.3684.3835-.035.035-.06.0712-.0945.1061a18.8361,18.8361,0,0,0-1.6124,2.1476c-.5969.8954-1.701,3.0453-1.7768,3.198a13.2976,13.2976,0,0,0-.8954,1.8958,4.6274,4.6274,0,0,0,.38,1.1612,1.16,1.16,0,0,0,.6867.0712c.2973.4325,1.223-.5107,1.272-.3883.2.499.9443.3742,1.77-1.3315.05-.1025,2.5242-3.2073,3.3356-4.491A8.0243,8.0243,0,0,1,401.8754,194.8244Z" style="fill: #ffb2b2"/>
          <path d="M404.8473,141.5757a6.4211,6.4211,0,0,0-1.2825-.1375,3.907,3.907,0,0,0-3.8627,4.6962c1.2989,5.76,6.1746,17.6609,7.9631,25.9154,2.1919,10.1247,8.4715,4.9808,8.7967,1.7C417.32,165.11,409.2776,142.4839,404.8473,141.5757Z" style="fill: url(#u)"/>
          <path d="M412.7917,169.1188a4.2017,4.2017,0,0,0-3.5176,2.1428c-2.5871,5.2-6.2352,17.1818-9.9916,24.7415a21.1825,21.1825,0,0,1,4.4677,2.35c5.6837-8.3209,14.9385-24.2657,12.39-27.381A4.3344,4.3344,0,0,0,412.7917,169.1188Z" style="fill: url(#v)"/>
        </g>
      </g>
      <path d="M427.7932,256.2576c-.09.3556,1.35,1.06,1.7127,1.0307.8477-.3312.6505-.8244,1.49-1.019a7.7313,7.7313,0,0,1-2.3049-.2029C428.2887,255.9452,427.8841,255.6979,427.7932,256.2576Z" style="fill: #ffb2b2"/>
      <g>
        <path d="M432.6445,256.7706a7.9542,7.9542,0,0,1,.1294-.8721c-.1679.021-.3253.05-.4839.0793-.176.03-.3532.0582-.5223.098-.049.0069-.0886.0245-.1375.03a19.0237,19.0237,0,0,0-2.5615.8092c-1.0062.38-3.1561,1.4853-3.3064,1.5646a13.4652,13.4652,0,0,0-1.8329,1.0213,4.5878,4.5878,0,0,0-.3672,1.1648,1.1646,1.1646,0,0,0,.5177.457c-.0105.5258,1.2917.2985,1.26.4255-.1258.5223.55.8547,2.2141-.0512.1-.0537,3.92-1.14,5.3269-1.7116A8.0043,8.0043,0,0,1,432.6445,256.7706Z" style="fill: #ffb2b2"/>
        <path d="M452.3784,241.9194c-5.13,2.7212-15.0727,10.3392-22.5285,14.2986a21.2422,21.2422,0,0,1,2.2652,4.512c9.4648-3.4569,26.2735-11.0306,26.0147-15.0482C457.8382,241.1686,453.8964,241.115,452.3784,241.9194Z" style="fill: #fffffe"/>
        <g>
          <path d="M487.8962,358.3153l-4.4351-.2065a28.1985,28.1985,0,0,1-.3941,2.8834c-.3637,1.5809-1.1752,4.0152-1.3653,4.8057-.3148,1.3139.4653,1.9972,1.7815,2.3074,1.1426.27,3.8032-1.1415,4.1646-2.607.239-.9724,1.4-4.533.267-5.63Z" style="fill: #010080"/>
          <path d="M483.46,358.11s-.1131,1.2942-.2787,2.2479c.148.2262.7124-.1015,1.6113.0279,1.1227.1621,2.2175.73,2.6081.3684a3.5679,3.5679,0,0,0,.5141-.886c0-.9141-.0186-1.5529-.0186-1.5529Z" style="fill: #ffb2b2"/>
          <path d="M450.7333,338.1628s-.7811.9619-1.4177,1.5809c-1.2288,1.1951-6.3857,3.0185-6.3857,4.7137,0,.8557,2.1162,1.6241,3.8405,1.6836a5.2663,5.2663,0,0,0,3.7239-1.4457c.7614-.6716,3.465-1.0889,3.8474-1.6171a2.0474,2.0474,0,0,0,.1411-1.98c.1877-.9455.3719-1.8608.3719-1.8608Z" style="fill: #010080"/>
          <path d="M449.3144,339.7437a5.6491,5.6491,0,0,0,2.1172,1.6661c.78.352,3.05-.3113,3.05-.3113.19-.9455.3743-1.8608.3743-1.8608l-4.24-1.2522A7.2525,7.2525,0,0,1,449.3144,339.7437Z" style="fill: #ffb2b2"/>
          <path d="M456.8158,251.67c-.162,1.5961-6.7482,85.8785-6.7482,85.8785,1.5122,3.4861,6.8869,1.8947,6.9779,1.7617,0,0,16.7422-78.9391,17.17-82.6024h0C471.8652,257.66,457.8558,253.3253,456.8158,251.67Z" style="fill: url(#w)"/>
          <path d="M472.209,273.1013c.1411,1.5985,9.7586,85.3958,9.7586,85.3958,2.3936,1.6112,7.1562.03,7.2215-.127,0,0,1.1379-81.8551.8721-85.5382C487.9544,274.4561,473.53,274.4013,472.209,273.1013Z" style="fill: url(#x)"/>
          <path d="M459.2268,215.9177c-2.2992,5.4377-5.264,17.9548-8.6159,25.7056-4.1121,9.509,3.99,8.9808,6.164,6.5033,5.7269-6.5243,12.3608-29.602,9.2864-32.92S459.8949,214.3345,459.2268,215.9177Z" style="fill: #fffffe"/>
          <path d="M481.8627,212.2685a23.3146,23.3146,0,0,0-7.9794-1.658h-.0117a3.8763,3.8763,0,0,0-1.2206.2239,19.84,19.84,0,0,0-7.5107,1.4248c-5.7689,2.3154-6.8894,7.1982-7.386,10.1922-1.37,8.32-5.5963,51.58-5.5963,51.58a7.832,7.832,0,0,0,10.9536-4.5343l2.4857-6.7505.5317,2.9988c1.6788,9.5824,8.1822,17.3076,17.18,19.8773,6.67,1.9015,10.2074,2.8809,10.2074,2.8809v-.02c0-24.6576-2.63-62.7356-3.5442-65.91C488.3228,216.8365,485.6238,213.7352,481.8627,212.2685Z" style="fill: url(#y)"/>
          <path d="M472.6521,211.0257a19.9667,19.9667,0,0,0-7.5118,1.3291,1.9832,1.9832,0,0,0-.4885,1.2521c0,2.1359,3.9733,3.8684,8.8817,3.8684s8.8806-1.7325,8.8806-3.8684a1.9058,1.9058,0,0,0-.4034-1.1473A23.1737,23.1737,0,0,0,472.6521,211.0257Z" style="fill: #fffffe"/>
          <path d="M470.3039,206.9834c-.0186.3254.6647,3.8231-.46,5.6161.2553,1.7454,5.7817,2.7119,7.7031-.1072-.6121-.8709-.5783-5.5869.3369-7.6692C477.3576,205.0866,471.7661,207.2459,470.3039,206.9834Z" style="fill: #ffb2b2"/>
          <path d="M473.0672,193.22c-3.4662-.4885-6.8951.0746-7.9036,3.3088-.3626,1.1589-.625,11.8268,4.9328,13.8485,2.3493.8535,7.2555-2.9147,7.6484-5.6954,0,0,.5351-3.79.54-3.8287C478.8056,197.1667,476.7887,193.7471,473.0672,193.22Z" style="fill: #ffb2b2"/>
          <path d="M460.64,192.5813c-.2716,1.5762.7148,5.6195,16.0113,4.421,2.158,3.3647.6913,9.1266.6913,9.1266,4.9446-3.3321,7.6238-12.4658,3.1083-17.7775C474.5455,181.4038,461.8675,185.4506,460.64,192.5813Z" style="fill: #f99a1e"/>
        </g>
      </g>
      <path d="M477.5826,198.5506a2.2653,2.2653,0,0,0-1,.084,6.5564,6.5564,0,0,1,.3241,5.876c.9957-.1493,2.1488-2.4565,2.2654-3.43C479.2954,200.05,478.6133,198.6742,477.5826,198.5506Z" style="fill: #ffb2b2"/>
      <g>
        <polygon points="383.91 343.604 384.05 384.42 419.89 404.936 419.75 364.077 383.91 343.604" style="fill: #5ac3c3"/>
        <polygon points="419.751 364.077 419.89 404.936 472.575 373.545 472.435 332.678 419.751 364.077" style="fill: url(#z)"/>
        <polygon points="383.91 343.604 419.75 364.076 472.435 332.677 436.595 312.204 383.91 343.604" style="fill: #b4e3e3"/>
        <path d="M415.5246,345.3972l.0221,6.2841c.0081,2.5917,3.9547,4.68,8.8118,4.6624s8.7885-2.1313,8.78-4.7219l-.021-6.2853Z" style="fill: url(#aa)"/>
        <path d="M396.1719,333.8221l.02,6.2854c.0093,2.5918,3.9547,4.6787,8.8118,4.6624,4.86-.0175,8.7908-2.1313,8.7815-4.7231l-.0221-6.2852Z" style="fill: url(#ab)"/>
        <path d="M440.9678,329.7672l.0221,6.2853c.0082,2.5906,3.9536,4.6788,8.8119,4.6624s8.79-2.1313,8.78-4.7231l-.0222-6.2852Z" style="fill: url(#ac)"/>
        <path d="M421.6139,318.1933l.0222,6.2842c.0081,2.5918,3.9535,4.6787,8.8119,4.6625s8.79-2.1314,8.7814-4.7231l-.0233-6.2853Z" style="fill: url(#ad)"/>
        <path d="M424.3048,340.6741c-4.857.0163-8.7885,2.1313-8.78,4.7231s3.9547,4.6787,8.8117,4.6612c4.8594-.0151,8.7909-2.13,8.7816-4.7219S429.1631,340.6577,424.3048,340.6741Z" style="fill: #5ac3c3"/>
        <path d="M404.951,329.1c-4.857.0163-8.7885,2.13-8.78,4.7218s3.9547,4.6788,8.8118,4.6624,8.7909-2.1312,8.7815-4.7219C413.7558,331.17,409.8092,329.084,404.951,329.1Z" style="fill: #5ac3c3"/>
        <path d="M449.7482,325.0453c-4.8572.0164-8.7886,2.13-8.78,4.7219s3.9547,4.6787,8.8118,4.6623c4.8595-.0162,8.7908-2.1312,8.7815-4.7217C458.5518,327.1148,454.6064,325.029,449.7482,325.0453Z" style="fill: #5ac3c3"/>
        <path d="M430.3943,313.47c-4.8583.0163-8.79,2.1312-8.78,4.7218s3.9547,4.6788,8.8119,4.6625,8.79-2.13,8.7815-4.7219S435.2526,313.454,430.3943,313.47Z" style="fill: #69be55"/>
      </g>
      <g>
        <polygon points="392.486 314.201 428.255 334.84 428.255 293.981 392.486 273.386 392.486 314.201" style="fill: #69be55"/>
        <polygon points="428.152 334.667 480.534 304.238 480.534 263.248 428.152 293.806 428.152 334.667" style="fill: url(#ae)"/>
        <polygon points="392.486 273.448 428.256 294.043 481.049 262.826 445.278 242.23 392.486 273.448" style="fill: #84c973"/>
        <path d="M424.2722,281.5727c0,2.5905,4.0969,4.69,8.9541,4.69,4.8594,0,8.954-2.1,8.954-4.6915V275.08H424.2722Z" style="fill: url(#af)"/>
        <path d="M449.3436,266.03c0,2.5918,4.0958,4.6915,8.954,4.6915s8.9541-2.1,8.9541-4.6915v-6.4707H449.3436Z" style="fill: url(#ag)"/>
        <path d="M430.2416,254.39c0,2.5907,4.0958,4.6916,8.954,4.6916s8.9541-2.1009,8.9541-4.6916v-6.7691H430.2416Z" style="fill: url(#ah)"/>
        <path d="M433.2811,270.7439c-4.8583,0-8.7968,2.1008-8.7968,4.6926s3.9385,4.6916,8.7968,4.6916,8.7967-2.1,8.7967-4.6916S438.1382,270.7439,433.2811,270.7439Z" style="fill: #69be55"/>
        <g>
          <path d="M405.17,269.9324c0,2.5894,3.4989,4.69,8.3571,4.69s8.3571-2.101,8.3571-4.6892V263.141H405.17Z" style="fill: url(#ai)"/>
          <path d="M413.5273,258.8553c-4.5737,0-8.2825,1.9772-8.2825,4.4186,0,2.4391,3.7088,4.4165,8.2825,4.4165s8.2825-1.9774,8.2825-4.4165C421.81,260.8325,418.1012,258.8553,413.5273,258.8553Z" style="fill: #69be55"/>
        </g>
        <path d="M458.3874,255.052c-4.8572,0-8.7955,2.101-8.7955,4.6928s3.9383,4.6916,8.7955,4.6916,8.7967-2.1,8.7967-4.6916S463.2456,255.052,458.3874,255.052Z" style="fill: #69be55"/>
        <path d="M438.94,243.0387c-4.8571,0-8.7954,2.101-8.7954,4.6916,0,2.5929,3.9383,4.6927,8.7954,4.6927s8.7967-2.1,8.7967-4.6927C447.737,245.14,443.7986,243.0387,438.94,243.0387Z" style="fill: #69be55"/>
      </g>
      <path d="M256.4769,97.4187v-.02h-.0035A.1126.1126,0,0,1,256.4769,97.4187Z" style="fill: #616161"/>
      <g>
        <path d="M178.0327,167.0272l-.0064-.0141-14.6057,26.9975a1.4745,1.4745,0,0,0,2.794.9432l14.6069-26.9986A1.9447,1.9447,0,0,1,178.0327,167.0272Z" style="fill: url(#aj)"/>
        <path d="M209.8155,172.7447a1.4755,1.4755,0,0,0-1.4281-1.1134,1.4477,1.4477,0,0,0-.3638.0455,1.4724,1.4724,0,0,0-1.0669,1.7908l10.338,40.9158a.8918.8918,0,0,0,1.5215.3847,3.48,3.48,0,0,0,.8068-3.2015Z" style="fill: url(#ak)"/>
        <g>
          <polygon points="147.606 212.717 157.628 252.284 197.37 263.507 187.337 223.899 147.606 212.717" style="fill: #69be55"/>
          <polygon points="187.337 223.899 197.37 263.507 240.883 220.29 230.848 180.673 187.337 223.899" style="fill: url(#al)"/>
          <polygon points="147.606 212.716 187.337 223.899 230.848 180.673 191.116 169.492 147.606 212.716" style="fill: #84c973"/>
          <path d="M195.7676,202.4785l-17.0546,4.3207,1.5437,6.0919c.6354,2.5125,4.97,3.5816,9.6792,2.39,4.7078-1.1939,8.0108-4.1972,7.3742-6.7085Z" style="fill: url(#am)"/>
          <path d="M174.1858,195.9366l-17.0529,4.3208,1.5419,6.093c.6366,2.5114,4.97,3.5817,9.6792,2.3889s8.0121-4.1984,7.3755-6.71Z" style="fill: url(#an)"/>
          <path d="M216.6663,181.1507l-17.0536,4.3209,1.5437,6.093c.6354,2.5113,4.969,3.5816,9.6792,2.3877,4.708-1.1916,8.0109-4.1949,7.3744-6.7074Z" style="fill: url(#ao)"/>
          <path d="M195.0845,174.61l-17.053,4.3209,1.5437,6.0917c.636,2.5125,4.97,3.5816,9.6786,2.389s8.012-4.1972,7.3754-6.7087Z" style="fill: url(#ap)"/>
          <path d="M186.0872,200.09c-4.7078,1.1939-8.01,4.1972-7.3736,6.7086s4.97,3.5817,9.6786,2.39c4.709-1.1939,8.012-4.1972,7.3754-6.7085C195.1311,199.966,190.7975,198.898,186.0872,200.09Z" style="fill: #69be55"/>
          <path d="M164.5066,193.5489c-4.7085,1.1916-8.0109,4.1961-7.3743,6.7085s4.97,3.5816,9.6786,2.3877c4.71-1.1914,8.0121-4.196,7.3755-6.7085S169.2168,192.355,164.5066,193.5489Z" style="fill: #69be55"/>
          <path d="M206.9871,178.763c-4.708,1.1928-8.0109,4.1973-7.3744,6.7086s4.97,3.5816,9.6782,2.389c4.71-1.1928,8.0131-4.1962,7.3766-6.7087S211.6973,177.57,206.9871,178.763Z" style="fill: #69be55"/>
          <path d="M185.4063,172.2212c-4.709,1.1928-8.0113,4.1961-7.3748,6.7086s4.97,3.5816,9.6787,2.3889c4.71-1.1928,8.0121-4.1973,7.3755-6.7086C194.4491,172.0965,190.1155,171.0285,185.4063,172.2212Z" style="fill: #69be55"/>
        </g>
        <path d="M184.3034,166.731v.0164a2.059,2.059,0,0,1-2.4344,1.85l27.6842,33.9543a1.3845,1.3845,0,0,0,1.9995.2075,1.5,1.5,0,0,0,.36-2.0741Z" style="fill: url(#aq)"/>
        <path d="M212.0424,201.2333a1.4733,1.4733,0,0,0-1.427-1.1134,1.5444,1.5444,0,0,0-.3626.0442,1.4758,1.4758,0,0,0-1.0693,1.7909l10.337,40.917a.8932.8932,0,0,0,1.5249.3836,3.474,3.474,0,0,0,.8044-3.1992Z" style="fill: url(#ar)"/>
        <path d="M179.6982,165.7272l-.0076-.0128-16.9137,51.8145a1.4752,1.4752,0,1,0,2.8157.8815l16.913-51.8169A1.94,1.94,0,0,1,179.6982,165.7272Z" style="fill: url(#as)"/>
        <path d="M165.5891,217.5068a1.477,1.477,0,0,0-1.4282-1.1123,1.508,1.508,0,0,0-.3644.0455,1.4754,1.4754,0,0,0-1.0673,1.7932l9.8571,38.809a3.4793,3.4793,0,0,0,2.2337,2.431.8923.8923,0,0,0,1.1555-1.0634Z" style="fill: url(#at)"/>
        <path d="M184.9843,165.5792l.0012.0162a1.9429,1.9429,0,0,1-2.01,2.143l24.2191,6.0883a1.4746,1.4746,0,0,0,2.0089-2.1593Z" style="fill: url(#au)"/>
        <path d="M186.3274,159.3813c.4489,2.01-1.5552,4.1948-4.7323,4.9993-3.3881.8581-6.7418-.1994-7.4821-2.3295-.0094-.03,1.37,5.4506,1.4113,5.5684.74,2.1336,4.0946,3.19,7.4821,2.3317,3.2185-.8149,5.2354-3.0477,4.7167-5.0775Z" style="fill: url(#av)"/>
        <path d="M178.77,156.758c-3.2966.8347-5.387,3.1922-4.6571,5.2919.74,2.1324,4.0934,3.1888,7.4821,2.3307,3.3869-.8581,5.4494-3.2867,4.6181-5.3958C185.3936,156.9072,182.0661,155.9232,178.77,156.758Z" style="fill: #f99a1e"/>
        <path d="M182.6647,157.32a1.9355,1.9355,0,0,0-1.4555-1.2661,4.5684,4.5684,0,0,0-4.3622,1.1052,1.627,1.627,0,0,0-.4657,1.4551l.4633,1.83a1.9137,1.9137,0,0,0,1.4353,1.28,4.5591,4.5591,0,0,0,4.4042-1.1158,1.6149,1.6149,0,0,0,.4488-1.4375Z" style="fill: #00b5e2"/>
        <path d="M181.21,156.0538a4.079,4.079,0,0,0-1.1636-.1609,4.4353,4.4353,0,0,0-3.2,1.265c-.9421,1.0574-.513,2.2839.9694,2.7364a4.56,4.56,0,0,0,4.4042-1.1146C183.1527,157.7128,182.6957,156.4945,181.21,156.0538Z" style="fill: url(#aw)"/>
        <path d="M164.5107,92.2386l-.0081.0152a2.2255,2.2255,0,0,1-3.2664.8137l16.2591,64.1918a1.6892,1.6892,0,0,0,3.2749-.83Z" style="fill: url(#ax)"/>
        <path d="M164.0537,142.5178s-.1545-1.138-.1557-1.6288l-.0332-11.6263,1.5582-.8989-4.6466-2.7-1.5583.9.0338,11.6239c.007,2.7305.9753,4.65,2.5329,5.5544l4.6455,2.7A5.3434,5.3434,0,0,1,164.0537,142.5178Z" style="fill: url(#ay)"/>
        <path d="M189.0369,109.3482l.0315,11.6239a10.9607,10.9607,0,0,1-.1306,1.6252c-.0139.0851-.03.1725-.0443.2588a13.7688,13.7688,0,0,1-.359,1.5484c-.0151.0466-.0292.0956-.0444.1445a16.252,16.252,0,0,1-.619,1.6778c-.0059.01-.0093.0221-.0152.0314a17.2594,17.2594,0,0,1-.8383,1.6591c-.0093.0174-.0174.0338-.0279.05a17.1515,17.1515,0,0,1-.9921,1.52c-.034.0443-.0665.0886-.0993.1329a15.9792,15.9792,0,0,1-1.04,1.2545c-.0769.084-.1562.1679-.2355.2518-.2891.3009-.5923.5725-.8978.84-.1375.12-.27.25-.4109.3613a10.9589,10.9589,0,0,1-1.3373.9282l-14.0316,8.1005a8.0043,8.0043,0,0,1-1.3081.6016c-.0827.0291-.1649.0583-.2471.0851a5.73,5.73,0,0,1-1.1676.2518c-.035.0036-.0682.1353-.1015.1377-.0122.0012-.0227.127-.0338.127h.1143v.541l2.4075,1.4433c.0134.0071-.0467.014-.0338.0223a3.5413,3.5413,0,0,0,.36.1759,3.18,3.18,0,0,0,.3772.1318c.0821.0245.1673.0409.2518.0583.0192.0058.0384.0105.0582.0152.0316.0046.0613.0139.0922.02a3.9628,3.9628,0,0,0,.4314.05c.1527.0093.3113.01.4727.0047.0473-.0023.1-.0116.1493-.0164.0343-.0023.0665-.0069.1008-.0093.0933-.0093.1843-.014.2787-.0279a5.0647,5.0647,0,0,0,.6243-.1341c.0869-.0233.1779-.0629.2653-.0922.0821-.0244.1644-.0536.2483-.0839.1073-.0384.2121-.0653.3217-.1119a8.256,8.256,0,0,0,.9864-.49l14.0315-8.1029a10.7622,10.7622,0,0,0,1.3374-.9258c.14-.1118.2692-.24.4068-.3591.21-.1818.4255-.3509.6261-.55.0944-.0933.1818-.196.2752-.2927.0793-.0839.1562-.1644.2344-.2495.0885-.0967.1806-.1854.2657-.2845.1994-.2273.3917-.4628.5783-.7029.0676-.0864.1317-.18.197-.2659.0338-.0455.0653-.0886.098-.1341.06-.0805.1224-.1609.18-.2437.1423-.2028.28-.408.4139-.6179.1259-.1982.25-.3988.3672-.6016.0105-.02.0222-.0384.0327-.0583l.0268-.0489c.0944-.1644.1878-.3276.2764-.4944.1061-.2006.21-.4034.3077-.6062.0886-.1866.1738-.3719.2554-.5585.0035-.0105.0105-.0221.014-.0314.0046-.0117.0105-.021.0139-.03.0933-.2122.18-.4268.2623-.64.0852-.2227.1656-.4477.24-.6726.0384-.112.0687-.2239.1037-.3359.014-.0489.03-.0956.0443-.1446.0234-.0827.0525-.1632.0746-.2459.0758-.2717.1411-.5433.1994-.8151.035-.1654.056-.3264.0839-.49.0152-.0863.0315-.1714.0443-.2565.0117-.0793.0315-.1586.0408-.24a10.5748,10.5748,0,0,0,.091-1.384l-.0338-11.6263,1.5577-.8978h0l-4.6461-2.7012Z" style="fill: url(#az)"/>
        <path d="M193.6819,112.0483l.0338,11.624a15.6568,15.6568,0,0,1-7.091,12.2838l-14.0321,8.1006c-3.9151,2.26-7.1242.4315-7.137-4.0666l-.0338-11.6263-1.5564.9.0332,11.6239c.0157,5.4984,3.929,7.7136,8.7,4.9585l14.032-8.1017c4.7849-2.7621,8.6592-9.4717,8.6429-14.97l-.0328-11.6263Z" style="fill: #f99a1e"/>
        <path d="M121.0263,125.9283s-.1545-1.1391-.155-1.6312l-.0339-11.6239,1.5583-.9-4.6467-2.7h0l-1.5582.9.0339,11.6251c.0069,2.7294.9752,4.6485,2.5317,5.5543l4.6477,2.6991A5.3392,5.3392,0,0,1,121.0263,125.9283Z" style="fill: url(#ba)"/>
        <path d="M147.5661,91.8574h0l-1.557.9.0321,11.6251a10.6046,10.6046,0,0,1-.1312,1.624c-.0128.0863-.0285.1715-.0443.2588a13.9111,13.9111,0,0,1-.3579,1.5484c-.0152.0477-.03.0968-.0443.1446a15.9655,15.9655,0,0,1-.62,1.6788l-.0139.03a17.2994,17.2994,0,0,1-.8382,1.66l-.0286.049a17.0365,17.0365,0,0,1-.9922,1.5215c-.0332.0442-.0653.0885-.0991.1328a16.0029,16.0029,0,0,1-1.04,1.2534c-.0775.0851-.1563.1679-.2349.2507-.2892.3007-.5923.5747-.8989.8418-.1375.12-.27.2483-.4109.36a11.14,11.14,0,0,1-1.3356.9281l-14.0321,8.1a7.9993,7.9993,0,0,1-1.3081.6016c-.084.03-.1662.0595-.2473.0864a5.7627,5.7627,0,0,1-1.1688.2517c-.035.0036-.067.0724-.1.0747-.0134.0023-.0262.0653-.04.0653h.1667v.6657l2.3843,1.4411c.0121.0081-.0234.0152-.01.0221a2.8834,2.8834,0,0,0,.3363.1773,3.3844,3.3844,0,0,0,.3655.1329c.081.0232.16.04.2443.0582.0192.0047.0367.0093.0559.0129.0309.0057.0594.0152.09.0221a4.2386,4.2386,0,0,0,.43.0489,4.516,4.516,0,0,0,.4722.0047c.0489-.0023.1-.0116.1492-.0152l.1026-.01c.0916-.0082.1836-.014.278-.028a5.3149,5.3149,0,0,0,.6244-.1329c.0874-.0245.1766-.0629.2635-.091.0828-.0256.1661-.0548.25-.0863.1074-.04.2111-.0652.3207-.1106a8.6587,8.6587,0,0,0,.9864-.491l14.0315-8.1017a10.6141,10.6141,0,0,0,1.3384-.9269c.14-.1119.27-.2391.4075-.359.2087-.182.4226-.35.6255-.55.0938-.0933.1825-.1958.2745-.2914.08-.084.1563-.1668.2338-.252.0886-.0955.18-.1842.2665-.2843.1992-.2263.3911-.4618.5788-.7019.0671-.0863.13-.1784.1959-.2659q.05-.0665.0979-.1329c.0606-.0816.123-.1609.1813-.2448q.2115-.3043.4122-.6168.19-.2973.3684-.604c.0111-.0174.0215-.036.0326-.057.0082-.0164.0163-.03.0262-.049.0945-.1632.1883-.3265.2769-.4944.1061-.2.2093-.4022.3067-.6062.09-.1854.1743-.3731.2559-.56l.0139-.03c.0047-.0117.01-.021.0146-.03.0916-.2123.179-.4256.26-.639.0863-.2238.1685-.4477.2425-.6738.0368-.112.0683-.2239.1015-.3359.0157-.0489.0309-.0956.0455-.1445.0238-.0816.0513-.1644.0752-.2449.0752-.2728.1422-.5456.1993-.816.0344-.1656.0559-.3265.0846-.49.0145-.0864.0314-.17.0443-.2565.0115-.0794.0309-.16.0408-.239a10.8122,10.8122,0,0,0,.0892-1.3839l-.0333-11.6263,1.5582-.9Z" style="fill: url(#bb)"/>
        <path d="M150.6552,95.4577l.0338,11.6239a15.6568,15.6568,0,0,1-7.09,12.2839l-14.0333,8.1c-3.9145,2.2608-7.1236.4315-7.137-4.0665l-.0333-11.6252-1.5565.8989.0332,11.6251c.0152,5.4972,3.9292,7.7125,8.7,4.9585l14.0315-8.1029c4.7848-2.7619,8.6591-9.4717,8.6433-14.97l-.0332-11.6251Z" style="fill: #f99a1e"/>
        <polygon points="122.461 139.482 134.878 146.65 134.911 134.958 122.494 127.79 122.461 139.482" style="fill: #f99a1e"/>
        <polygon points="122.494 127.812 134.912 134.981 139.844 132.113 127.427 124.945 122.494 127.812" style="fill: #ff3158"/>
        <polygon points="134.878 146.65 139.812 143.783 139.845 132.091 134.911 134.958 134.878 146.65" style="fill: url(#bc)"/>
        <path d="M130.5791,138.9069v-.0081c0-.0455.2938-.091.2926-.1363-.0012-.0479.1452-.0969.1417-.1435-.0036-.049.0659-.0979.0618-.1469s-.2385-.0979-.2454-.1469c-.0064-.0513-.2507-.1-.2507-.1493v-.0081c0-.0489.2495-.0967.24-.1434-.0093-.0536.1125-.1061.1014-.1573-.0116-.0538.0426-.1062.03-.1587s.0052-.1048-.0087-.1585c-.0116-.0408-.0075-.0805-.0192-.1224,0,0,.007-.0071.0058-.0117a.1625.1625,0,0,1-.0041-.0257c-.0157-.0512-.0315-.1025-.0484-.1539s-.0332-.1025-.0512-.1539c-.0182-.0489-.0368-.0979-.0554-.1468s-.0385-.0979-.0572-.1446c-.0158-.0374-.0308-.0734-.0478-.11l-.0046-.0093a.1036.1036,0,0,0-.0105-.0257c-.0217-.0489-.0443-.0979-.0659-.1469-.0251-.0513-.05-.1049-.0763-.1586-.031-.0582-.0625-.1189-.0934-.1795-.0344-.063-.0688-.1236-.1049-.1865-.0058-.01-.0122-.0233-.0181-.0326l-.025-.0444q-.105-.18-.2221-.3544c-.0606-.0909-.1231-.1783-.186-.2658l-.0035-.0023-.0012-.0024c-.0431-.0595-.0873-.1166-.1328-.1749-.038-.049-.0764-.0956-.1155-.1446-.0384-.0443-.077-.09-.1171-.1341-.0374-.0443-.0764-.0874-.116-.1294l-.0211-.0233-.01-.0093c-.03-.0327-.0612-.0653-.092-.0956-.04-.0431-.0835-.0851-.1266-.126s-.0869-.0815-.1312-.1235c-.0443-.0385-.088-.0781-.1334-.1143-.0227-.0186-.0443-.0372-.067-.056l-.0146-.0115c-.0175-.014-.0344-.0281-.0513-.0433-.0443-.0337-.088-.0663-.1323-.1-.0432-.0315-.0869-.0631-.13-.0922s-.0851-.0571-.1284-.0839c-.0413-.0269-.0845-.0536-.1264-.0781l-.0309-.0176c-.0309-.0163-.0629-.0361-.0945-.0536-.04-.021-.081-.042-.1212-.0606-.0408-.021-.0816-.0419-.1206-.0583s-.0805-.0349-.12-.0513c-.0409-.0164-.08-.03-.1207-.0443a.1368.1368,0,0,0-.0263-.0093l-.0093-.0024-.0851-.0279c-.0413-.0117-.0822-.0233-.123-.0338s-.0821-.02-.1242-.0292c-.0443-.0082-.0857-.0139-.13-.021-.0309-.0024-.0618-.007-.092-.0093l-.0129-.0024h-.0286c-.0477-.0046-.0944-.0069-.1411-.0069l-.1561.0069c-.06.0071-.1173.0152-.1733.0269l-.0063.0012-.007.0023a1.7613,1.7613,0,0,0-.1982.0536,1.4844,1.4844,0,0,0-.2437.1142l-3.289,1.9109a1.414,1.414,0,0,1,.4419-.1666l.007-.0024a1.8508,1.8508,0,0,1,.5048-.028l.0135.0023a2.3584,2.3584,0,0,1,.5555.1213l.0081.0024a3.2378,3.2378,0,0,1,.604.2775,4.8383,4.8383,0,0,1,.5981.4149c.0047.0047.0111.0071.0146.0117a5.64,5.64,0,0,1,.55.5142l.0093.0106a6.7933,6.7933,0,0,1,.5049.6085h0a7.1171,7.1171,0,0,1,.4348.6646.3873.3873,0,0,0,.02.035,7.6638,7.6638,0,0,1,.351.6971l.0034.0094a6.4794,6.4794,0,0,1,.2722.7345c.0012.0023.1872.0069.1884.0117.074.2471.3555.4943.3555.7391v.0023c0,.2472-.1265.4921-.1265.73a3.3224,3.3224,0,0,1-.1533.6459c-.0011.007-.0944.0117-.0955.0186a2.4466,2.4466,0,0,1-.17.5294l-.0046.0093a1.7172,1.7172,0,0,1-.2257.35c-.0262.035-.0542.071-.0827.1026a1.454,1.454,0,0,1-.3271.27l3.2878-1.9121a1.3889,1.3889,0,0,0,.3282-.2705,1.11,1.11,0,0,0,.0829-.1014,1.39,1.39,0,0,0,.1072-.1341,1.6511,1.6511,0,0,0,.1148-.2052l.0035-.0105.0046-.01c.0228-.0478.0444-.0979.0637-.1492s.0366-.1038.0524-.1586c.0145-.0489.0274-.1026.04-.1539.0059-.0222.0082-.0443.014-.0676l.0036-.0175c.0034-.02.0081-.0408.0121-.0619.0083-.0465.0152-.0944.021-.1444.0065-.0467.0112-.0956.0146-.1446.0047-.0467-.2868-.0934-.2857-.1423S130.5791,138.956,130.5791,138.9069Z" style="fill: url(#bd)"/>
        <path d="M124.8884,135.6274c-1.6533-.9561-3.0063-.1843-3.011,1.715a6.594,6.594,0,0,0,2.9918,5.1823c1.6608.9607,3.0062.1936,3.0109-1.715A6.592,6.592,0,0,0,124.8884,135.6274Z" style="fill: url(#be)"/>
        <path d="M195.7735,106.8986a12.3343,12.3343,0,0,1-1.2534,1.3524,14.8726,14.8726,0,0,1-1.3174,1.1065c-.0513.04-.1154.0746-.169.1142a18.3238,18.3238,0,0,1-1.5484,1.0143l-25.1367,14.6086a22.515,22.515,0,0,1-2.1218,1.0692c-.2413.1061-.4944.1971-.7415.2972-.5107.2076-1.0289.4081-1.5635.5877q-.6286.21-1.2755.3929c-.2145.0606-.4262.1271-.6436.1831-.6873.1806-1.3856.3428-2.0962.48l-.025,8.6451c.7105-.1364,1.4088-.3,2.0968-.4792.2168-.0571.4284-.1224.643-.1843.3177-.09.6412-.1725.9519-.2716.1119-.0361.2145-.0851.3259-.1223.5345-.1784,1.05-.379,1.5623-.5865.2459-.0992.5-.19.74-.2974a22.2251,22.2251,0,0,0,2.1219-1.0679l25.1384-14.6086c.1026-.0606.2053-.1213.3055-.183.4454-.2693.8522-.55,1.2463-.836.0514-.0373.1131-.0723.1632-.11a15.1957,15.1957,0,0,0,1.2475-1.0306c.0269-.0245.0444-.0514.0712-.077a12.4537,12.4537,0,0,0,1.2533-1.3525l.0035-.0046a10.0161,10.0161,0,0,0,.8674-1.29.12.12,0,0,0,.0093-.0186l51.2574-.0047c6.3378-.0012,11.4805-3.8684,11.4981-8.6463l-62.73.0071A10.2515,10.2515,0,0,1,195.7735,106.8986Z" style="fill: #ff655e"/>
        <path d="M145.1638,128.2589q-1.3877-.2272-2.724-.569c-.2006-.05-.4046-.0933-.6028-.1469a28.4817,28.4817,0,0,1-3.0221-.9991c-.06-.0234-.1177-.0525-.18-.0781a23.352,23.352,0,0,1-2.8379-1.3712L122.4,117.36c-3.7127-2.1429-5.7973-4.88-6.2625-7.6821l-61.6781.0071-.04-5.1219-.0322,8.6463c.0217,2.832,3.0745,5.1206,6.8316,5.1195l54.8926-.0047c.4658,2.8,2.5515,5.538,6.2644,7.6821L135.772,133.74a23.4626,23.4626,0,0,0,2.8378,1.3723c.0623.0244.1195.0537.1812.0782.0362.0127.0683.0314.1038.0443.8371.33,1.7052.6214,2.597.8755.1038.0292.2152.049.32.0781.1994.0548.4034.0979.6051.1481.4454.1119.8832.2343,1.3372.3265.456.0955.9217.1655,1.3851.2425.161.0256.3183.0582.48.0827.0926.0152.1836.035.2756.0479q1.0459.1486,2.1069.2354c.3491.0281.6989.0525,1.05.0712h.0034l.0239-8.6451c-1.156-.0619-2.3044-.1842-3.4347-.3545C145.4827,128.3183,145.3254,128.2857,145.1638,128.2589Z" style="fill: #ff655e"/>
        <path d="M197.6611,100.4641c-.4652-2.8-2.5626-5.5311-6.2749-7.674L177.99,85.0556a30.211,30.211,0,0,0-13.27-3.61l-.1189-40.5171-8.7547.1515h-.0764l.1108,41.1245a26.7629,26.7629,0,0,0-8.43,2.937l-25.1384,14.464a20.4234,20.4234,0,0,0-5.18,4.75h-62.71l.0384,5.2256,61.6775.0455c.4658,2.8,2.5515,5.5648,6.2631,7.7077l13.395,7.7462a30.2794,30.2794,0,0,0,13.2836,3.6119l.1195,37.25,8.83-.007-.1218-37.8321a27.0281,27.0281,0,0,0,8.4417-3.01l25.1383-14.6074a13.5669,13.5669,0,0,0,5.1684-4.899l62.73-.0083-.0374-5.1077Z" style="fill: url(#bf)"/>
        <path d="M176.742,96.7693l-4.1354-2.3866A19.784,19.784,0,0,0,164.1394,92.2l-3.1282-.17-3.1158.5946a16.2822,16.2822,0,0,0-5.0343,1.7489l-15.8188,9.1919a5.6759,5.6759,0,0,0,.0139,9.8215l4.125,2.3819a19.8485,19.8485,0,0,0,8.4778,2.1767l3.1625.169,3.0552-.5864a16.45,16.45,0,0,0,5.0611-1.7442l15.8171-9.1942A5.6741,5.6741,0,0,0,176.742,96.7693Z" style="fill: url(#bg)"/>
        <g>
          <path d="M157.2862,144.473c-36.3916,0-41.8188,23.2315-41.8188,23.2315l-.0024,2.811c-.7677,13.3028,14.7946,24.3579,36.4488,24.3579,22.9751,0,41.7028-12.4332,41.8217-26.7922.0023-.3009-.0186-4.9458-.0186-4.9458S184.8887,144.473,157.2862,144.473Zm-5.3724,45.6144c-12.3135,0-23.25-4.0212-28.5265-10.4942a12.2674,12.2674,0,0,1-2.8961-10.5537c2.2373-10.9127,18.7388-19.7806,36.795-19.7806,11.3564,0,21.5877,3.4709,27.3554,9.2735,2.8832,2.9194,4.3312,6.114,4.3079,9.5021C188.8539,179.7844,171.551,190.0874,151.9138,190.0874Z" style="fill: #cac8d9"/>
          <path d="M163.2317,167.37v-.021h-.0035A.164.164,0,0,1,163.2317,167.37Z" style="fill: #616161"/>
          <path d="M162.8137,167.9412c0,2.9661-4.1349,5.4028-8.743,5.4028-4.322,0-7.5585-2.1453-7.636-4.8594l.0128,7.4733c-.0071,2.7632,3.2692,4.9643,7.6483,4.9643,4.6081,0,8.529-2.4389,8.7844-5.4038.0146-.1633-.0665-7.5772-.0665-7.58Z" style="fill: url(#bh)"/>
          <path d="M155.28,162.6831c-4.4851,0-8.42,2.3364-8.7943,5.2581-.3794,2.9649,3.0437,5.4016,7.6518,5.4016s8.5542-2.4367,8.81-5.4016C163.2,165.02,159.7643,162.6831,155.28,162.6831Z" style="fill: #f99a1e"/>
          <path d="M157.8686,162.5723a6.0338,6.0338,0,0,0-5.9362,0,2.5577,2.5577,0,0,0-1.4491,2.0916l.0011,2.5195a2.1265,2.1265,0,0,0,1.0388,1.69,6.012,6.012,0,0,0,5.9921,0,2.5222,2.5222,0,0,0,1.4195-2.1009v-2.49A2.1476,2.1476,0,0,0,157.8686,162.5723Z" style="fill: #00b5e2"/>
          <path d="M176.9519,151.9825l-.01-.0071a1.9117,1.9117,0,0,0-1.8276.01l-22.15,13.27-3.1315,1.876a2.01,2.01,0,0,1-1.6381.1421l-2.6081-.9851a2.0108,2.0108,0,0,0-1.6358.1411l-18.1255,10.0628a1.5845,1.5845,0,0,0,.1731,1.539,21.7131,21.7131,0,0,0,3.0634,2.7223l.0081.0058a1.9262,1.9262,0,0,0,1.964-.0093l23.7073-14.2822,3.1024-1.87a1.9968,1.9968,0,0,1,1.6241-.14l2.6309.9759a1.984,1.984,0,0,0,1.6252-.1411l16.2188-9.874c.7-.4768.4115-1.6521.4115-1.6521S178.1335,152.7333,176.9519,151.9825Z" style="fill: #ff3158"/>
          <path d="M176.9507,150.8608l-.0081-.0046a1.6918,1.6918,0,0,0-.8891-.2308h-.001a1.8875,1.8875,0,0,0-.9391.2378l-22.1486,13.2691-3.1327,1.877a2.01,2.01,0,0,1-1.6381.1423l-2.6087-.9852a2.01,2.01,0,0,0-1.6352.1422l-17.6,10.4347c-.5252.3114-.6843.8057-.3521,1.166a21.7565,21.7565,0,0,0,3.0634,2.7212l.0093.007a1.926,1.926,0,0,0,1.964-.0094L154.74,165.346l3.1042-1.87a1.993,1.993,0,0,1,1.6223-.1411l2.6315.9769a1.9863,1.9863,0,0,0,1.6246-.141l16.22-9.8751c.46-.2786.55-.7205.1911-1.0422A24.3159,24.3159,0,0,0,176.9507,150.8608Z" style="fill: url(#bi)"/>
          <path d="M157.868,162.5723a5.2453,5.2453,0,0,0-2.8891-.78,6.0674,6.0674,0,0,0-3.0459.78c-1.7559,1.0458-1.9458,2.7527-.4092,3.8113a6.01,6.01,0,0,0,5.9909,0C159.2636,165.325,159.4151,163.6181,157.868,162.5723Z" style="fill: url(#bj)"/>
          <path d="M157.2862,140.4821c-20.2457,0-38.7338,10.2062-41.4737,23.6094-2.9445,14.3591,13.1384,26.7922,36.1013,26.7922,22.9751,0,41.7028-12.4331,41.8217-26.7922C193.8427,150.6883,177.5214,140.4821,157.2862,140.4821Zm-5.3724,45.6144c-12.3135,0-23.25-4.02-28.5265-10.493a12.27,12.27,0,0,1-2.8961-10.5549c2.2373-10.9139,18.7388-19.7793,36.795-19.7793,11.3564,0,21.5877,3.47,27.3554,9.2734,2.8832,2.9194,4.3312,6.114,4.3079,9.5009C188.8539,175.7935,171.551,186.0965,151.9138,186.0965Z" style="fill: #fff"/>
          <path d="M122.1486,153.1343l-2.7691-.7589a23.7438,23.7438,0,0,0-5.5013,10.5012,18.2692,18.2692,0,0,0,1,11.0876l3.254-.8418a16.9076,16.9076,0,0,1-1.0061-10.2458A21.8247,21.8247,0,0,1,122.1486,153.1343Z" style="fill: #d3d3d3"/>
          <path d="M113.8782,162.8766a18.2731,18.2731,0,0,0,1,11.0888l3.2528-.8441a16.91,16.91,0,0,1-1.0049-10.2447,21.7888,21.7888,0,0,1,5.0238-9.7411h0l-2.77-.76A23.7627,23.7627,0,0,0,113.8782,162.8766Z" style="fill: url(#bk)"/>
          <path d="M113.4509,166.7672l-.0093.0105v3.7565a18.7988,18.7988,0,0,0,1.4364,7.1912l1.6387-.436v-2.9381l1.6153-.4186v-.81l-3.254.843A18.3092,18.3092,0,0,1,113.4509,166.7672Z" style="fill: #cac8d9"/>
          <path d="M116.7616,166.9223a17.35,17.35,0,0,1,.3643-3.2342,21.8008,21.8008,0,0,1,5.0227-9.7423v-.8115a21.8136,21.8136,0,0,0-5.0227,9.7423A17.3038,17.3038,0,0,0,116.7616,166.9223Z" style="fill: #cac8d9"/>
        </g>
        <g>
          <path d="M257.5716,69.2589c-36.3909,0-41.8194,23.2315-41.8194,23.2315l-.0023,2.811c-.7671,13.3028,14.7952,24.3579,36.4493,24.3579,22.9752,0,41.7029-12.4331,41.8218-26.7922.0022-.3009-.0186-4.9458-.0186-4.9458S285.1741,69.2589,257.5716,69.2589Zm-5.3724,45.6144c-12.313,0-23.249-4.0212-28.5258-10.4942a12.2652,12.2652,0,0,1-2.8961-10.5537c2.2361-10.9127,18.7382-19.7806,36.7943-19.7806,11.3558,0,21.5878,3.471,27.3554,9.2735,2.8832,2.9194,4.3313,6.114,4.308,9.5021C289.1393,104.57,271.8364,114.8733,252.1992,114.8733Z" style="fill: #cac8d9"/>
          <path d="M263.5165,92.1559v-.021h-.0034A.1471.1471,0,0,1,263.5165,92.1559Z" style="fill: #616161"/>
          <path d="M263.0992,92.7271c0,2.9661-4.1343,5.4028-8.743,5.4028-4.322,0-7.5586-2.1453-7.6367-4.8594l.0129,7.4733c-.007,2.7632,3.2691,4.9643,7.6482,4.9643,4.6088,0,8.53-2.4389,8.7851-5.4038.0139-.1633-.0665-7.5772-.0665-7.5795Z" style="fill: url(#bl)"/>
          <path d="M255.5652,87.469c-4.4852,0-8.42,2.3364-8.7932,5.2581-.38,2.9649,3.043,5.4016,7.6506,5.4016s8.5542-2.4367,8.8106-5.4016C263.485,89.8054,260.05,87.469,255.5652,87.469Z" style="fill: #f99a1e"/>
          <path d="M258.1534,87.3582a6.0326,6.0326,0,0,0-5.9356,0,2.5577,2.5577,0,0,0-1.4491,2.0916l.0011,2.52a2.1265,2.1265,0,0,0,1.0389,1.6905,6.01,6.01,0,0,0,5.9914,0,2.5208,2.5208,0,0,0,1.42-2.1009v-2.49A2.1438,2.1438,0,0,0,258.1534,87.3582Z" style="fill: #00b5e2"/>
          <path d="M277.2368,76.7684l-.0093-.0071a1.9129,1.9129,0,0,0-1.8282.0095l-22.15,13.27-3.1316,1.876a2.0111,2.0111,0,0,1-1.6381.1422l-2.6081-.9852a2.0108,2.0108,0,0,0-1.6357.1411L226.11,101.2778a1.5869,1.5869,0,0,0,.1737,1.539,21.7069,21.7069,0,0,0,3.0639,2.7223l.0082.0058a1.9243,1.9243,0,0,0,1.9633-.0093l23.7073-14.2822,3.1024-1.87a1.9976,1.9976,0,0,1,1.6242-.14l2.6314.9759a1.9814,1.9814,0,0,0,1.624-.1411l16.2188-9.874c.7-.4768.4127-1.652.4127-1.652S278.419,77.5192,277.2368,76.7684Z" style="fill: #ff3158"/>
          <path d="M277.2368,75.6467a.0127.0127,0,0,0-.0093-.0046,1.69,1.69,0,0,0-.8885-.2308h-.0011a1.8842,1.8842,0,0,0-.9386.2378L253.25,88.9182l-3.1316,1.877a2.01,2.01,0,0,1-1.6381.1423l-2.6092-.9852a2.0112,2.0112,0,0,0-1.6358.1422l-17.6,10.4347c-.5245.3114-.6831.8057-.352,1.166a21.7625,21.7625,0,0,0,3.064,2.7212l.0093.007a1.927,1.927,0,0,0,1.9645-.0094l23.7049-14.2821,3.1048-1.87a1.9918,1.9918,0,0,1,1.6218-.1411l2.6314.977a1.9883,1.9883,0,0,0,1.6252-.141l16.22-9.8752c.4593-.2786.5491-.7205.1911-1.0422A24.382,24.382,0,0,0,277.2368,75.6467Z" style="fill: url(#bm)"/>
          <path d="M258.1534,87.3582a5.2477,5.2477,0,0,0-2.889-.78,6.0623,6.0623,0,0,0-3.0454.78c-1.757,1.0458-1.9458,2.7527-.41,3.8113a6.01,6.01,0,0,0,5.9914,0C259.5491,90.1109,259.7006,88.404,258.1534,87.3582Z" style="fill: url(#bn)"/>
          <path d="M257.5716,65.268c-20.2457,0-38.7332,10.2062-41.4742,23.6094-2.944,14.3591,13.14,26.7922,36.1018,26.7922,22.9752,0,41.7029-12.4331,41.8218-26.7922C294.1282,75.4742,277.8069,65.268,257.5716,65.268Zm-5.3724,45.6144c-12.313,0-23.249-4.02-28.5258-10.4942a12.2642,12.2642,0,0,1-2.8961-10.5537c2.2361-10.9139,18.7382-19.7793,36.7943-19.7793,11.3558,0,21.5878,3.47,27.3554,9.2735,2.8832,2.9193,4.3313,6.1139,4.308,9.5008C289.1393,100.5794,271.8364,110.8824,252.1992,110.8824Z" style="fill: #fff"/>
          <path d="M222.434,77.92l-2.7691-.7589a23.7361,23.7361,0,0,0-5.5006,10.5012,18.2653,18.2653,0,0,0,.9991,11.0876l3.2541-.8418a16.9016,16.9016,0,0,1-1.0061-10.2458A21.8138,21.8138,0,0,1,222.434,77.92Z" style="fill: #d3d3d3"/>
          <path d="M214.1643,87.6625a18.2691,18.2691,0,0,0,.9991,11.0888l3.2529-.844a16.9046,16.9046,0,0,1-1.0049-10.2448,21.7762,21.7762,0,0,1,5.0238-9.7411h0l-2.77-.76A23.7478,23.7478,0,0,0,214.1643,87.6625Z" style="fill: url(#bo)"/>
          <path d="M213.7364,91.5531l-.0093.01V95.32a18.8,18.8,0,0,0,1.4363,7.1912l1.6393-.436V99.1372l1.6148-.4186v-.81l-3.2541.843A18.309,18.309,0,0,1,213.7364,91.5531Z" style="fill: #cac8d9"/>
          <path d="M217.0476,91.7082a17.3414,17.3414,0,0,1,.3638-3.2342,21.8132,21.8132,0,0,1,5.0226-9.7423V77.92a21.826,21.826,0,0,0-5.0226,9.7423A17.239,17.239,0,0,0,217.0476,91.7082Z" style="fill: #cac8d9"/>
        </g>
        <g>
          <path d="M163.2556,7.1775c-36.3916,0-41.8188,23.2314-41.8188,23.2314l-.0024,2.811c-.7677,13.3029,14.7946,24.3579,36.4487,24.3579,22.9752,0,41.7029-12.4331,41.8218-26.7922.0023-.3009-.0186-4.9457-.0186-4.9457S190.8581,7.1775,163.2556,7.1775Zm-5.3725,45.6143c-12.3135,0-23.25-4.0212-28.5264-10.4941a12.2672,12.2672,0,0,1-2.8961-10.5538c2.2373-10.9127,18.7388-19.7806,36.795-19.7806,11.3563,0,21.5877,3.471,27.3553,9.2736,2.8832,2.9194,4.3313,6.1139,4.308,9.502C194.8233,42.4888,177.52,52.7918,157.8831,52.7918Z" style="fill: #cac8d9"/>
          <path d="M169.2011,30.0744v-.021h-.0035A.1669.1669,0,0,1,169.2011,30.0744Z" style="fill: #616161"/>
          <path d="M168.7831,30.6457c0,2.966-4.1349,5.4027-8.743,5.4027-4.3221,0-7.5585-2.1452-7.636-4.8594l.0128,7.4733c-.0071,2.7632,3.2691,4.9644,7.6483,4.9644,4.6081,0,8.529-2.439,8.7844-5.4039.0145-.1633-.0665-7.5771-.0665-7.5795Z" style="fill: url(#bp)"/>
          <path d="M161.25,25.3875c-4.4851,0-8.42,2.3364-8.7943,5.2582-.3794,2.9648,3.0437,5.4015,7.6518,5.4015s8.5542-2.4367,8.8095-5.4015C169.1689,27.7239,165.7337,25.3875,161.25,25.3875Z" style="fill: #f99a1e"/>
          <path d="M163.8379,25.2767a6.0338,6.0338,0,0,0-5.9362,0,2.558,2.558,0,0,0-1.4491,2.0917l.0012,2.5194a2.1263,2.1263,0,0,0,1.0388,1.6905,6.0115,6.0115,0,0,0,5.9921,0,2.5226,2.5226,0,0,0,1.4195-2.1008v-2.49A2.1478,2.1478,0,0,0,163.8379,25.2767Z" style="fill: #00b5e2"/>
          <path d="M182.9213,14.6869l-.01-.007a1.9114,1.9114,0,0,0-1.8276.0094l-22.15,13.27-3.1315,1.8759a2.0105,2.0105,0,0,1-1.6381.1422l-2.6082-.9852a2.011,2.011,0,0,0-1.6357.1411L131.7946,39.1963a1.5847,1.5847,0,0,0,.1731,1.5391,21.707,21.707,0,0,0,3.0634,2.7222l.0081.0059a1.9261,1.9261,0,0,0,1.964-.0093L160.7105,29.172l3.1024-1.87a1.9968,1.9968,0,0,1,1.6241-.14l2.6308.9758a1.9839,1.9839,0,0,0,1.6252-.1411l16.2182-9.8739c.7-.4769.4128-1.6521.4128-1.6521S184.1029,15.4378,182.9213,14.6869Z" style="fill: #ff3158"/>
          <path d="M182.92,13.5653l-.0081-.0047a1.6921,1.6921,0,0,0-.8891-.2308h-.0011a1.8881,1.8881,0,0,0-.9391.2379l-22.1485,13.269-3.1327,1.8771a2.0107,2.0107,0,0,1-1.6381.1423l-2.6088-.9852a2.0092,2.0092,0,0,0-1.6351.1422l-17.6,10.4347c-.5252.3113-.6844.8056-.3521,1.1659a21.7446,21.7446,0,0,0,3.0634,2.7212l.0093.007a1.9258,1.9258,0,0,0,1.964-.0094L160.7093,28.05l3.1042-1.87a1.993,1.993,0,0,1,1.6223-.1412l2.6314.977a1.987,1.987,0,0,0,1.6247-.141L185.9124,17c.4593-.2787.5491-.7205.1912-1.0423A24.3138,24.3138,0,0,0,182.92,13.5653Z" style="fill: url(#bq)"/>
          <path d="M163.8373,25.2767a5.2455,5.2455,0,0,0-2.889-.78,6.0691,6.0691,0,0,0-3.046.78c-1.7558,1.0458-1.9457,2.7527-.4091,3.8113a6.0092,6.0092,0,0,0,5.9909,0C165.233,28.0294,165.3845,26.3225,163.8373,25.2767Z" style="fill: url(#br)"/>
          <path d="M163.2556,3.1866c-20.2458,0-38.7339,10.2062-41.4737,23.6093C118.8373,41.155,134.92,53.5881,157.8831,53.5881c22.9752,0,41.7029-12.4331,41.8218-26.7922C199.8121,13.3928,183.4908,3.1866,163.2556,3.1866Zm-5.3725,45.6143c-12.3135,0-23.25-4.02-28.5264-10.4941a12.2663,12.2663,0,0,1-2.8961-10.5538c2.2373-10.9139,18.7388-19.7792,36.795-19.7792,11.3563,0,21.5877,3.47,27.3553,9.2734,2.8832,2.9194,4.3313,6.1139,4.308,9.5008C194.8233,38.4979,177.52,48.8009,157.8831,48.8009Z" style="fill: #fff"/>
          <path d="M128.1179,15.8388l-2.769-.759a23.7438,23.7438,0,0,0-5.5013,10.5012,18.27,18.27,0,0,0,1,11.0877l3.2541-.8418a16.9073,16.9073,0,0,1-1.0061-10.2459A21.8241,21.8241,0,0,1,128.1179,15.8388Z" style="fill: #d3d3d3"/>
          <path d="M119.8476,25.581a18.2741,18.2741,0,0,0,1,11.0889l3.2529-.8441a16.91,16.91,0,0,1-1.0049-10.2448,21.7875,21.7875,0,0,1,5.0238-9.741h0l-2.77-.76A23.7622,23.7622,0,0,0,119.8476,25.581Z" style="fill: url(#bs)"/>
          <path d="M119.42,29.4716l-.0093.0105v3.7566a18.8,18.8,0,0,0,1.4363,7.1911l1.6388-.436V37.0557l1.6153-.4186v-.81l-3.2541.843A18.31,18.31,0,0,1,119.42,29.4716Z" style="fill: #cac8d9"/>
          <path d="M122.7309,29.6267a17.351,17.351,0,0,1,.3644-3.2342,21.8016,21.8016,0,0,1,5.0226-9.7423v-.8114a21.813,21.813,0,0,0-5.0226,9.7422A17.31,17.31,0,0,0,122.7309,29.6267Z" style="fill: #cac8d9"/>
        </g>
        <g>
          <path d="M60.5824,76.4222c-36.3916,0-41.8188,23.2315-41.8188,23.2315l-.0024,2.8109c-.7677,13.3029,14.7946,24.3579,36.4487,24.3579,22.9752,0,41.7023-12.4331,41.8218-26.7922.0023-.3008-.018-4.9457-.018-4.9457S88.1849,76.4222,60.5824,76.4222ZM55.21,122.0365c-12.3135,0-23.25-4.0212-28.5264-10.4941a12.2672,12.2672,0,0,1-2.8961-10.5538c2.2373-10.9127,18.7388-19.7805,36.795-19.7805,11.3563,0,21.5877,3.4709,27.3553,9.2735,2.8832,2.9194,4.3313,6.1139,4.3074,9.502C92.15,111.7335,74.8471,122.0365,55.21,122.0365Z" style="fill: #cac8d9"/>
          <path d="M66.5279,99.3191v-.021h-.0035A.1669.1669,0,0,1,66.5279,99.3191Z" style="fill: #616161"/>
          <path d="M66.11,99.89c0,2.9661-4.1349,5.4028-8.743,5.4028-4.3221,0-7.5585-2.1453-7.636-4.8595l.0128,7.4733c-.0071,2.7632,3.2691,4.9644,7.6483,4.9644,4.6081,0,8.529-2.439,8.7844-5.4038.0145-.1634-.0665-7.5772-.0665-7.58Z" style="fill: url(#bt)"/>
          <path d="M58.5764,94.6322c-4.4851,0-8.42,2.3364-8.7943,5.2582-.3794,2.9649,3.0437,5.4016,7.6518,5.4016s8.5542-2.4367,8.8095-5.4016C66.4957,96.9686,63.0605,94.6322,58.5764,94.6322Z" style="fill: #f99a1e"/>
          <path d="M61.1647,94.5214a6.0338,6.0338,0,0,0-5.9362,0,2.558,2.558,0,0,0-1.4491,2.0917l.0012,2.5194a2.1266,2.1266,0,0,0,1.0388,1.6906,6.012,6.012,0,0,0,5.9921,0,2.5227,2.5227,0,0,0,1.4195-2.1009v-2.49A2.1478,2.1478,0,0,0,61.1647,94.5214Z" style="fill: #00b5e2"/>
          <path d="M80.2481,83.9316l-.01-.007a1.9117,1.9117,0,0,0-1.8276.0094l-22.15,13.27L53.1289,99.08a2.01,2.01,0,0,1-1.6381.1422l-2.6082-.9852a2.011,2.011,0,0,0-1.6357.1411L29.1214,108.441a1.5847,1.5847,0,0,0,.1731,1.5391,21.707,21.707,0,0,0,3.0634,2.7222l.0081.0059a1.9261,1.9261,0,0,0,1.964-.0093L58.0373,98.4167l3.1024-1.87a1.9968,1.9968,0,0,1,1.6241-.14l2.6308.9758a1.9839,1.9839,0,0,0,1.6252-.1411l16.2188-9.8739c.7-.4768.4116-1.6521.4116-1.6521S81.43,84.6825,80.2481,83.9316Z" style="fill: #ff3158"/>
          <path d="M80.2469,82.81l-.0081-.0047a1.692,1.692,0,0,0-.8891-.2307h-.0011a1.888,1.888,0,0,0-.9391.2378L56.261,96.0815l-3.1327,1.877a2.01,2.01,0,0,1-1.6381.1423l-2.6088-.9852a2.0092,2.0092,0,0,0-1.6351.1422l-17.6,10.4347c-.5252.3113-.6844.8056-.3521,1.1659a21.7446,21.7446,0,0,0,3.0634,2.7212l.0093.0071a1.9258,1.9258,0,0,0,1.964-.0095l23.7055-14.282,3.1042-1.87a1.9926,1.9926,0,0,1,1.6223-.1411l2.6314.9769a1.9866,1.9866,0,0,0,1.6247-.141l16.22-9.8751c.46-.2787.55-.7205.1912-1.0423A24.3066,24.3066,0,0,0,80.2469,82.81Z" style="fill: url(#bu)"/>
          <path d="M61.1641,94.5214a5.2455,5.2455,0,0,0-2.889-.78,6.069,6.069,0,0,0-3.046.78c-1.7558,1.0459-1.9457,2.7527-.4091,3.8113a6.0092,6.0092,0,0,0,5.9909,0C62.56,97.2741,62.7113,95.5673,61.1641,94.5214Z" style="fill: url(#bv)"/>
          <path d="M60.5824,72.4313c-20.2458,0-38.7339,10.2062-41.4737,23.6093C16.1641,110.4,32.2471,122.8328,55.21,122.8328c22.9752,0,41.7023-12.4331,41.8218-26.7922C97.1389,82.6375,80.8176,72.4313,60.5824,72.4313ZM55.21,118.0456c-12.3135,0-23.25-4.02-28.5264-10.4941a12.2661,12.2661,0,0,1-2.8961-10.5537c2.2373-10.914,18.7388-19.7793,36.795-19.7793,11.3563,0,21.5877,3.47,27.3553,9.2734,2.8832,2.9194,4.3313,6.114,4.3074,9.5009C92.15,107.7426,74.8471,118.0456,55.21,118.0456Z" style="fill: #fff"/>
          <path d="M25.4447,85.0835l-2.769-.759a23.7438,23.7438,0,0,0-5.5013,10.5012,18.27,18.27,0,0,0,1,11.0877l3.2541-.8418a16.9073,16.9073,0,0,1-1.0061-10.2459A21.8241,21.8241,0,0,1,25.4447,85.0835Z" style="fill: #d3d3d3"/>
          <path d="M17.1744,94.8257a18.2741,18.2741,0,0,0,1,11.0889l3.2529-.8441a16.91,16.91,0,0,1-1.0049-10.2448,21.7875,21.7875,0,0,1,5.0238-9.741h0l-2.77-.76A23.7622,23.7622,0,0,0,17.1744,94.8257Z" style="fill: url(#bw)"/>
          <path d="M16.7471,98.7163l-.0093.01v3.7566a18.8005,18.8005,0,0,0,1.4363,7.1912l1.6388-.436V106.3l1.6153-.4185v-.81l-3.2541.843A18.31,18.31,0,0,1,16.7471,98.7163Z" style="fill: #cac8d9"/>
          <path d="M20.0577,98.8714a17.351,17.351,0,0,1,.3644-3.2342,21.8008,21.8008,0,0,1,5.0226-9.7422v-.8115a21.813,21.813,0,0,0-5.0226,9.7422A17.31,17.31,0,0,0,20.0577,98.8714Z" style="fill: #cac8d9"/>
        </g>
      </g>
      <polygon points="257.99 435.059 388.185 435.059 439.561 404.018 309.364 404.018 257.99 435.059" style="mix-blend-mode: multiply;fill: url(#bx)"/>
      <polygon points="550.823 375.365 550.823 374.926 550.076 375.365 550.823 375.365" style="mix-blend-mode: multiply;fill: url(#by)"/>
      <polygon points="419.372 405.212 499.399 405.212 544.106 375.365 470.747 375.365 419.372 405.212" style="mix-blend-mode: multiply;fill: url(#bz)"/>
      <g>
        <path d="M242.7672,370.9966c-7.8418-3.1374-18.765-9.93-24.2273-12.1683a3.7122,3.7122,0,0,0-1.37-.239c-1.7908-.0012-4.1028,1.0586-3.9816,4.5516.1551,4.52,21.1272,16.22,29.7875,16.8133C246.2648,380.1792,252.3834,374.8441,242.7672,370.9966Z" style="fill: url(#ca)"/>
        <path d="M250.7011,417.4843c-12.9578,0-27.3122,6.016-30.93,7.654-.1819.0829-1.637,1.7128-1.54,1.9693.41,1.0843,2.6128,2.4658,3.9407,1.7488,5.7921-3.1339,30.5883-2.1511,32.75-6.1746a3.8025,3.8025,0,0,0,.47-3.1584C254.7105,417.7245,252.2564,417.4843,250.7011,417.4843Z" style="fill: #f7a2a1"/>
        <path d="M221.0757,404.5627a6.6709,6.6709,0,0,0-5.7047,4.0538,4.29,4.29,0,0,0,.5782,3.8638c1.21,1.78,3.6657,3.0908,7.2974,3.8987,4.4222.9841,10.1281,2.8576,15.1624,4.5109,4.1623,1.3664,8.0937,2.6559,10.7811,3.2737,2.1721.4991,5.868-.1713,6.8985-3.1956a5.7143,5.7143,0,0,0-.0431-3.49C254.2838,411.4939,228.8662,404.1348,221.0757,404.5627Z" style="fill: #f7a2a1"/>
        <path d="M222.2708,429.1852a6.626,6.626,0,0,1-.2309-2.1126l-3.4767-.7473a3.8424,3.8424,0,0,1-1.28.9455,2.0583,2.0583,0,0,0-1.041,1.69c0,1.74,1.9574,2.5685,2.1825,3.5572a5.2726,5.2726,0,0,0,2.1813,3.3461c1.4365.9584,5.735.3579,6.2353-.3381C227.8286,434.1484,223.9858,433.64,222.2708,429.1852Z" style="fill: #010080"/>
        <path d="M219.7723,425.1383a9.9583,9.9583,0,0,0-2.2618,2.0217s2.3178,2.5172,3.53,2.5172c1.3768,0,1.2766-.5794,1.18-.9456a2.72,2.72,0,0,1,.3369-2.2Z" style="fill: #f7a2a1"/>
        <path d="M239.8734,423.9608c-12.9565,0-27.3121,6.0161-30.9287,7.6542-.182.0827-1.637,1.7126-1.54,1.9691.41,1.0843,2.6128,2.4659,3.9408,1.7488,5.7922-3.1339,30.5883-2.151,32.75-6.1746a3.807,3.807,0,0,0,.47-3.1584C243.8841,424.201,241.43,423.9608,239.8734,423.9608Z" style="fill: #ffb2b2"/>
        <path d="M210.2481,411.0393a6.6689,6.6689,0,0,0-5.7036,4.0538,4.2893,4.2893,0,0,0,.5783,3.8637c1.21,1.7791,3.6656,3.0908,7.2973,3.8987,4.4223.9841,10.127,2.8577,15.1625,4.5109,4.161,1.3664,8.0924,2.6559,10.781,3.2738,2.172.499,5.8668-.1714,6.8986-3.1957a5.7154,5.7154,0,0,0-.0443-3.49C243.4574,417.97,218.04,410.6114,210.2481,411.0393Z" style="fill: #ffb2b2"/>
        <path d="M211.4431,435.6605a6.6051,6.6051,0,0,1-.23-2.1113l-3.4767-.7474a3.8413,3.8413,0,0,1-1.28.9455,2.0586,2.0586,0,0,0-1.0412,1.6906c0,1.7394,1.9575,2.5685,2.1826,3.5571a5.2672,5.2672,0,0,0,2.1814,3.3461c1.4364.9584,5.735.3579,6.2341-.3381C217.0021,440.6249,213.1593,440.1165,211.4431,435.6605Z" style="fill: #010080"/>
        <path d="M208.9447,431.615a9.9345,9.9345,0,0,0-2.2608,2.0216s2.3178,2.5171,3.53,2.5171c1.377,0,1.2767-.5794,1.18-.9455a2.7226,2.7226,0,0,1,.3359-2.2Z" style="fill: #ffb2b2"/>
        <path d="M226.5485,393.0507c-.44-10.1409.5187-19.9054-.0631-23.4286-.4954-2.9964-.5537-7.83-6.3226-10.1457a19.9539,19.9539,0,0,0-7.5107-1.3291c-.0722,0-.5165-.0326-1.2276-.0326a22.8792,22.8792,0,0,0-8.1309,1.4667c-3.76,1.4666-5.5463,4.3779-7.1948,10.1153-.4839,1.6776.9759,13.1187.2716,27.1746-.6283,12.5286-13.062,29.9191-13.062,41.5408,0,0,27.0785.3393,34.1111-10.2948,13.339-20.1677,20.9208-19.0543,26.8913-18.4585h0C229.3862,400.4693,227.0451,404.4962,226.5485,393.0507Z" style="fill: url(#cb)"/>
        <path d="M226.5368,392.7965a44.14,44.14,0,0,1-19.1965,4.1319,48.6835,48.6835,0,0,1-10.9313-1.2218c-.01.3824-.0222.7765-.0432,1.1682-.0852,1.7-.2868,3.6014-.5841,5.6511a47.8378,47.8378,0,0,0,11.5586,1.3827,43.5013,43.5013,0,0,0,20.1222-4.6006h0a34.6945,34.6945,0,0,1-.914-6.2573C226.5485,392.9656,226.5368,392.8816,226.5368,392.7965Z" style="fill: url(#cc)"/>
        <g>
          <polygon points="222.638 373.094 258.406 393.69 310.854 362.473 275.43 341.877 222.638 373.094" style="fill: #84c973"/>
          <polygon points="222.638 413.911 258.406 434.55 258.406 393.691 222.638 373.095 222.638 413.911" style="fill: #69be55"/>
          <polygon points="258.324 434.55 310.854 403.34 310.854 362.473 258.324 393.69 258.324 434.55" style="fill: url(#cd)"/>
          <path d="M254.742,381.04c0,2.7248,3.2494,4.9341,8.356,4.9341,5.1089,0,8.3583-2.2093,8.3583-4.9341v-5.6744H254.742Z" style="fill: url(#ce)"/>
          <path d="M234.4462,369.6407c0,2.5918,4.0958,4.6916,8.954,4.6916s8.9541-2.1,8.9541-4.69v-6.2154H234.4462Z" style="fill: url(#cf)"/>
          <path d="M279.8134,365.7384c0,2.5918,4.0958,4.6928,8.9541,4.6928s8.954-2.1,8.954-4.6916v-5.8948H279.8134Z" style="fill: url(#cg)"/>
          <path d="M260.7114,354.0971c0,2.5917,3.4989,4.6938,8.3571,4.6938s8.3571-2.1021,8.3571-4.6938v-6.191H260.7114Z" style="fill: url(#ch)"/>
          <ellipse cx="269.0685" cy="347.8129" rx="8.3571" ry="4.4572" style="fill: #69be55"/>
          <path d="M263.0421,370.5082c-4.6461,0-8.4143,2.0088-8.4143,4.4874s3.7682,4.4887,8.4143,4.4887,8.4142-2.0088,8.4142-4.4887S267.6892,370.5082,263.0421,370.5082Z" style="fill: #69be55"/>
          <path d="M288.7325,354.659c-4.9656,0-8.99,2.1464-8.99,4.7941s4.0247,4.7954,8.99,4.7954,8.989-2.1465,8.989-4.7954S293.6968,354.659,288.7325,354.659Z" style="fill: #69be55"/>
          <path d="M243.4,358.6639c-4.8582,0-8.7966,2.1-8.7966,4.6914s3.9384,4.6916,8.7966,4.6916,8.7967-2.1,8.7967-4.6916S248.2585,358.6639,243.4,358.6639Z" style="fill: #69be55"/>
        </g>
        <path d="M212.6521,358.1485a23.1471,23.1471,0,0,0-9.3585,1.4341,1.9015,1.9015,0,0,0-.4034,1.1471c0,2.136,3.9733,3.8662,8.8805,3.8662s8.8818-1.73,8.8818-3.8662a1.99,1.99,0,0,0-.4885-1.2545A19.9961,19.9961,0,0,0,212.6521,358.1485Z" style="fill: #fffffe"/>
        <path d="M215,354.1052c-1.462.2623-7.0536-1.897-7.5794-2.1605.9152,2.0824.949,6.7984.3357,7.67,1.9226,2.8181,7.449,1.8515,7.7043.1074C214.3357,357.9282,215.0178,354.4305,215,354.1052Z" style="fill: #ffb2b2"/>
        <path d="M212.2371,340.343c-3.7215.5258-5.7386,3.9453-5.2174,7.6319.0047.0385.54,3.8288.54,3.8288.3929,2.7807,5.299,6.55,7.6482,5.6954,5.5579-2.0217,5.2956-12.6907,4.933-13.8484C219.1322,340.4165,215.7033,339.8533,212.2371,340.343Z" style="fill: #ffb2b2"/>
        <path d="M207.7215,345.6722c-1.03.1236-1.7115,1.5006-1.589,2.53.1154.9735,1.27,3.2808,2.2652,3.43a6.5566,6.5566,0,0,1,.3242-5.8761A2.2865,2.2865,0,0,0,207.7215,345.6722Z" style="fill: #ffb2b2"/>
        <g>
          <path d="M255.4953,384.7087a7.7417,7.7417,0,0,1-1.8784,1.3512c.8208-.2623.9047.2647,1.8025.1155.3253-.16,1.2044-1.4994.9468-1.7593C256.0035,383.98,255.78,384.3985,255.4953,384.7087Z" style="fill: #ffb2b2"/>
          <path d="M261.3433,385.2322a13.37,13.37,0,0,0-2.0974.0583c-.169.0093-2.5824.1551-3.6422.34a18.8535,18.8535,0,0,0-2.6151.612c-.0455.0187-.09.0246-.1353.0444-.1644.0512-.3322.1177-.4978.1818-.1516.056-.302.11-.456.1784a8.0665,8.0665,0,0,1,.5539.6844,7.9824,7.9824,0,0,1,1.3362,2.713c1.5027-.2251,5.3409-1.2417,5.4539-1.2452,1.8923-.07,2.3062-.7007,1.93-1.0866-.0909-.0932,1.1449-.5619.8686-1.0084a1.1539,1.1539,0,0,0,.211-.6564A4.6631,4.6631,0,0,0,261.3433,385.2322Z" style="fill: #ffb2b2"/>
          <path d="M229.2743,383.4717c-6.838-4.9562-15.7733-14.2075-20.5256-17.7123a4.2,4.2,0,0,0-2.3725-.7041c-1.5553,0-3.28.8406-3.87,3.58-.95,4.4222,16.5312,20.8858,24.7844,23.5732C230.4262,393.2314,237.6617,389.5518,229.2743,383.4717Z" style="fill: url(#ci)"/>
          <path d="M239.7545,385.0468c-3.858-.2262-7.4816-.4535-10.2051-.4535-.5934,0-1.1437.01-1.6439.0349-1.7162.0817-5.0786,2.1407-3.0267,6.17,1.8282,3.5875,20.1479,1.5249,30.0521-.3312a21.1923,21.1923,0,0,1-.3555-5.0366C250.216,385.6379,244.7853,385.3418,239.7545,385.0468Z" style="fill: url(#cj)"/>
        </g>
        <path d="M220.6525,337.3525A3.2,3.2,0,0,0,217.4789,337s0-.56-2.8016-2.101c-2.24-1.2323-8.6615-1.8083-12.1649,1.4131s-4.9026,7.6716-3.6411,13.4754-.2414,10.7705-1.7535,12.4774c-2.5137,2.84-3.0885,7.0151-3.0885,9.0216,0,11.7184,11.6369,17.45,11.6369,17.45s-3.2308-12.8725,1.5075-22.989c3.2983-7.0386,1.1308-9.523.6855-12.6978-.583-4.1587,4.0479-1.7418,7.485-7.12a15.367,15.367,0,0,0,1.9738-5.2744s5.6442,2.0088,1.335,13.4683C221.7006,351.9459,225.0875,340.85,220.6525,337.3525Z" style="fill: url(#ck)"/>
        <path d="M211.4408,338.8133c-5.0472,2.5953-5.4844,4.87-6.3879,7.7031,0,0,5.2943-7.3486,13.7936-7.26A6.9222,6.9222,0,0,0,211.4408,338.8133Z" style="fill: #00b5e2"/>
      </g>
      <g>
        <path d="M473.987,272.347c.105.3521,1.7023.218,1.9983.0081.5585-.7193.1365-1.0424.7567-1.64a7.6976,7.6976,0,0,1-2.0822,1.0073C474.2517,271.8247,473.7783,271.82,473.987,272.347Z" style="fill: #ffb2b2"/>
        <path d="M478.0793,269.4859c-.1329.1025-.253.21-.3742.3171-.1364.1142-.2729.23-.3975.3508-.0386.0293-.0643.0653-.1027.0969a18.9858,18.9858,0,0,0-1.7862,2.0065c-.6679.8429-1.9481,2.8937-2.0367,3.0395a13.3958,13.3958,0,0,0-1.05,1.8153,4.6289,4.6289,0,0,0,.2833,1.188,1.1538,1.1538,0,0,0,.6774.127c.2611.457,1.2626-.4056,1.3011-.2821.1585.5153.9106.4536,1.8737-1.1763.0582-.098,2.7829-2.9871,3.6969-4.2008a8.02,8.02,0,0,1-1.7488-2.4682A8.3,8.3,0,0,1,478.0793,269.4859Z" style="fill: #ffb2b2"/>
        <path d="M485.8069,217.4836c-4.3418-1.2733-5.7421,2.4122-5.5053,4.1143.8114,5.847,4.6821,18.1133,5.7769,26.488,1.3431,10.27,8.0295,5.6663,8.6264,2.4238C496.2777,241.9732,490.1464,218.7555,485.8069,217.4836Z" style="fill: #fffffe"/>
        <path d="M487.7481,247.4342c-3.0092,4.9666-7.6425,16.6046-12.0145,23.8249a21.2538,21.2538,0,0,1,4.2566,2.7131c6.3553-7.82,16.9055-22.9378,14.625-26.2559C492.0514,243.9913,488.6377,245.9651,487.7481,247.4342Z" style="fill: #fffffe"/>
      </g>
      <g>
        <path d="M326.97,312.1038l-1.0574-1.1378-3.4219,2.8273a27.7056,27.7056,0,0,1,1.6439,2.4005c.794,1.4131,1.8282,3.7612,2.2187,4.4759.6505,1.1857,1.6859,1.1671,2.87.5119,1.026-.5678,2.05-3.4,1.3315-4.73C330.08,315.5724,328.5477,312.154,326.97,312.1038Z" style="fill: #010080"/>
        <path d="M325.9128,310.966l-3.4219,2.8273s.7847,1.0353,1.3035,1.8525c.2611.0689.4593-.5537,1.2125-1.062.94-.6343,2.1324-.9491,2.1779-1.48a3.584,3.584,0,0,0-.2134-1.0014C326.3559,311.4266,325.9128,310.966,325.9128,310.966Z" style="fill: #ffb2b2"/>
        <path d="M244.0461,329.9689s-.87.88-1.5634,1.4363c-1.3385,1.07-6.6468,2.3878-6.81,4.0748-.0816.8535,1.9482,1.8224,3.6609,2.0474a5.2648,5.2648,0,0,0,3.8451-1.0808c.8208-.5947,3.5525-.7486,3.985-1.237a2.0486,2.0486,0,0,0,.3311-1.9576c.2787-.9223.55-1.8165.55-1.8165Z" style="fill: #010080"/>
        <path d="M242.4827,331.4052a5.6319,5.6319,0,0,0,1.947,1.862c.7415.4255,3.0651-.0152,3.0651-.0152.28-.9211.55-1.8153.55-1.8153l-4.0993-1.6567A7.2441,7.2441,0,0,1,242.4827,331.4052Z" style="fill: #ffb2b2"/>
        <path d="M279.8554,250.9015c-1.2195,2.3621-14.309,8.4259-16.0544,7.8068.3883.6715,21.7777,35.4467,21.7777,35.4467L320.847,314.59c2.8518.4453,6.4953-3.0057,6.487-3.1759l-30.9206-24.4464S280.7181,252.4428,279.8554,250.9015Z" style="fill: url(#cl)"/>
        <path d="M258.4438,244.4657c-.3137,1.5716-15.0016,84.8269-15.0016,84.8269,1.1706,3.6155,6.6712,2.551,6.7762,2.425,0,0,24.282-76.9594,25.0573-80.56C272.8461,251.88,259.3193,246.2134,258.4438,244.4657Z" style="fill: url(#cm)"/>
        <path d="M282.0822,201.2088a23.1622,23.1622,0,0,0-9.36-1.4329,19.9691,19.9691,0,0,0-7.5108,1.3279c-5.7688,2.3156-6.888,7.1481-7.3847,10.1457-1.371,8.3175-5.3585,53.6311-5.3585,53.6311,13.0149,14.4745,41.7122,12.3724,41.7122,12.3724,0-24.6563-2.9276-62.753-3.8416-65.93C288.6906,205.5855,285.8434,202.6755,282.0822,201.2088Z" style="fill: url(#cn)"/>
        <path d="M270.3755,195.7326c-.0175.3253.6646,3.823-.46,5.6161.2554,1.7453,5.7817,2.7119,7.7042-.1072-.6133-.8709-.5794-5.587.3358-7.6693C277.4291,193.8357,271.8375,195.9949,270.3755,195.7326Z" style="fill: #ffb2b2"/>
        <path d="M272.1465,202.3187a1.5892,1.5892,0,0,0-1.2825.0933,2.531,2.531,0,0,0,1.5483.499A.7071.7071,0,0,0,272.1465,202.3187Z" style="fill: #d7e3e3"/>
        <path d="M272.4123,202.92a4.08,4.08,0,0,0,2.1441-.04,2.2869,2.2869,0,0,0-1.5542-.4967A.8927.8927,0,0,0,272.4123,202.92Z" style="fill: #d7e3e3"/>
        <path d="M273.1387,181.9693c-3.4662-.49-6.8951.0746-7.9036,3.3088-.3615,1.1589-.625,11.8267,4.9329,13.8485,2.3493.8533,7.2554-2.9148,7.6483-5.6954,0,0,.5363-3.79.5409-3.8289C278.8772,185.9157,276.8613,182.4962,273.1387,181.9693Z" style="fill: #ffb2b2"/>
        <path d="M263.5305,181.1624c-2.0543,3.9244-3.4743.984-3.226-.078-.73,2.657.2332,5.0762,5.4728,5.0762,1.1,0-1.222,1.265-1.222,1.265s7.014.7438,12.1673-1.6741c2.1592,3.3647.8126,9.2163.8126,9.2163,2.2887,1.4236,4.2789-1.1857,4.2789-1.1857s-2.8191.2519-1.1811-1.9074c3.1806-4.1914,4.2975-10.7507-.11-14.7742C275.5311,172.5442,266.2832,175.9,263.5305,181.1624Z" style="fill: #010080"/>
        <path d="M277.6542,187.3a2.272,2.272,0,0,0-1,.0839,6.5566,6.5566,0,0,1,.3241,5.8761c.9957-.1492,2.15-2.4565,2.2654-3.43C279.3657,188.7991,278.6848,187.4232,277.6542,187.3Z" style="fill: #ffb2b2"/>
        <path d="M277.2123,198.8514c-.5561,3.2563-4.21,3.5326-4.21,3.5326,1.9087.25,3.3695,4.2649,3.3695,4.2649,1.427-1.1613,3.5863-5.3119,2.7131-6.3471A5.4575,5.4575,0,0,0,277.2123,198.8514Z" style="fill: #feffff"/>
        <path d="M270.5049,199.4133a2.699,2.699,0,0,0-1.5355.63c-.9117.66-1.097,3.7319-.4151,5.0483,0,0,1.4772-3.2389,3.5922-2.7726C272.1465,202.3187,269.9593,201.4583,270.5049,199.4133Z" style="fill: #feffff"/>
        <g>
          <path d="M231.7646,216.7863c-.23-.3532-.3789-.8033-.8091-.4349-.2973.2146.3451,1.6812.64,1.8935.86.2961,1.0294-.2076,1.7966.1853A7.6642,7.6642,0,0,1,231.7646,216.7863Z" style="fill: #ffb2b2"/>
          <path d="M234.1069,218.7835c-.042-.0268-.0839-.04-.1259-.0654a18.9559,18.9559,0,0,0-2.4775-1.04c-1.0132-.3614-3.3671-.907-3.535-.9444a13.4273,13.4273,0,0,0-2.0566-.4057,4.6007,4.6007,0,0,0-1.0331.6506,1.1645,1.1645,0,0,0,.0991.6832c-.3486.3952.7929,1.0633.6867,1.14-.4348.3172-.1329,1.0074,1.7221,1.3922.1108.0232,3.7274,1.6648,5.17,2.1382a8.0054,8.0054,0,0,1,1.77-2.4531,8.4292,8.4292,0,0,1,.66-.5817c-.14-.0933-.2787-.1715-.4186-.252C234.4135,218.9549,234.2608,218.8605,234.1069,218.7835Z" style="fill: #ffb2b2"/>
          <path d="M282.7247,205.5366a3.9031,3.9031,0,0,0-1.7081.3615c-5.27,2.6628-15.6229,10.2948-23.192,14.0408-9.2828,4.5971-2.7619,9.4309.4991,8.947,8.5856-1.2754,28.5678-14.5934,28.3673-19.1125C286.5465,206.5136,284.4548,205.5366,282.7247,205.5366Z" style="fill: url(#co)"/>
          <path d="M258.9812,221.3089c-5.6721-1.243-18.1844-1.8574-26.4308-3.6575a21.19,21.19,0,0,1-1.1892,4.9072c9.4554,3.4813,27.1758,8.5694,29.5753,5.3375C263.632,224.2643,260.659,221.6749,258.9812,221.3089Z" style="fill: url(#cp)"/>
        </g>
      </g>
      <g>
        <polygon points="84.467 389.415 120.236 410.054 120.236 369.195 84.467 348.6 84.467 389.415" style="fill: #5ac3c3"/>
        <polygon points="120.133 409.882 172.563 379.423 172.563 338.433 120.133 369.02 120.133 409.882" style="fill: url(#cq)"/>
        <polygon points="84.467 348.662 120.236 369.257 172.563 338.433 137.258 317.445 84.467 348.662" style="fill: #b4e3e3"/>
        <path d="M116.2526,356.7867c0,2.5906,4.0969,4.69,8.9541,4.69,4.8588,0,8.954-2.1,8.954-4.6916v-6.4916H116.2526Z" style="fill: url(#cr)"/>
        <path d="M141.324,341.2442c0,2.5917,4.0964,4.6915,8.954,4.6915s8.9541-2.1,8.9541-4.6915v-6.4707H141.324Z" style="fill: url(#cs)"/>
        <path d="M122.222,329.6039c0,2.5907,4.0958,4.6916,8.9534,4.6916s8.9547-2.1009,8.9547-4.6916v-6.7692H122.222Z" style="fill: url(#ct)"/>
        <path d="M125.2615,345.9579c-4.8583,0-8.7967,2.1009-8.7967,4.6927s3.9384,4.6916,8.7967,4.6916,8.7961-2.1,8.7961-4.6916S130.1192,345.9579,125.2615,345.9579Z" style="fill: #5ac3c3"/>
        <g>
          <path d="M97.1506,345.1465c0,2.5894,3.4995,4.69,8.3571,4.69s8.3572-2.1009,8.3572-4.6891v-6.7926H97.1506Z" style="fill: url(#cu)"/>
          <path d="M105.5077,334.0693c-4.5737,0-8.2825,1.9773-8.2825,4.4176s3.7088,4.4187,8.2825,4.4187,8.2825-1.9773,8.2825-4.4187S110.0816,334.0693,105.5077,334.0693Z" style="fill: #5ac3c3"/>
        </g>
        <path d="M150.3684,330.2661c-4.8578,0-8.7967,2.101-8.7967,4.6928s3.9389,4.6916,8.7967,4.6916,8.7961-2.1,8.7961-4.6916S155.226,330.2661,150.3684,330.2661Z" style="fill: #5ac3c3"/>
        <path d="M130.9213,318.2528c-4.8583,0-8.7966,2.1-8.7966,4.6915s3.9383,4.6928,8.7966,4.6928,8.7961-2.1,8.7961-4.6928S135.779,318.2528,130.9213,318.2528Z" style="fill: #5ac3c3"/>
      </g>
    </g>
  </g>
</svg>
